<?xml version="1.0" encoding="utf-8"?>
<!-- Generator: Adobe Illustrator 27.6.1, SVG Export Plug-In . SVG Version: 6.00 Build 0)  -->
<svg version="1.1" id="Capa_1" xmlns="http://www.w3.org/2000/svg" xmlns:xlink="http://www.w3.org/1999/xlink" x="0px" y="0px"
	 viewBox="0 0 50 50" style="enable-background:new 0 0 50 50;" xml:space="preserve">
<style type="text/css">
	.st0{display:none;fill:#E10203;}
	.st1{display:none;fill:#ED1D24;}
	.st2{display:none;}
	.st3{display:inline;fill:#ED1D24;}
	.st4{fill:#ED1D24;}
	.st5{display:inline;}
	.st6{clip-path:url(#SVGID_00000009560968929358346470000014692175777126053763_);}
</style>
<path class="st0" d="M0.2,42.3c-0.2,0.6-0.2,1.2,0,1.8s0.7,1,1.2,1.3L4.6,47c0.5,0.2,1.1,0.3,1.6,0.2s1-0.4,1.4-0.8l8.5,3.4
	c0.5,0.2,1,0.3,1.5,0.2c0.5,0,1-0.1,1.4-0.3c0.5-0.2,0.9-0.5,1.2-0.9c0.3-0.4,0.6-0.8,0.8-1.3l5.9-16.4l1.6-3.8
	c0.2-0.5,0.3-1.1,0.1-1.7l-1.2-4.2c0-0.2,0-0.3,0-0.5c0.1-0.2,0.2-0.3,0.3-0.4l1.2-0.9c0.5-0.4,0.8-0.9,0.9-1.4
	c0.1-0.6,0.1-1.2-0.2-1.7l9.6-6.6c0.2-0.1,0.4-0.3,0.7-0.4l8.5-3.3c0.3-0.1,0.6-0.3,0.8-0.5s0.4-0.5,0.6-0.8c0.1-0.3,0.2-0.6,0.2-1
	c0-0.3,0-0.7-0.2-1l-0.6-1.6C49,1,48.5,0.5,47.9,0.2S46.6-0.1,46,0.1l-9.3,3.6c-0.2,0.1-0.5,0.2-0.7,0.4l-10.2,7
	c-0.4-0.4-0.9-0.7-1.4-0.8s-1.1,0-1.6,0.2l-3.2,1.6c-0.2,0.1-0.3,0.1-0.5,0.1l-3.4-0.6c-0.5-0.1-0.9,0-1.4,0.2
	c-0.4,0.2-0.8,0.5-1.1,0.9l-4.7,6.8c-0.1,0.1-0.2,0.2-0.3,0.3c-0.1,0.1-0.3,0.1-0.4,0.1H6.5c-0.5,0-1,0.1-1.4,0.4S4.4,21,4.2,21.4
	l-1.4,3.4c-0.3,0.6-0.3,1.2,0,1.8C2.9,27.2,3.4,27.7,4,28l0.6,0.3c0.2,0.1,0.3,0.2,0.4,0.4c0,0.2,0,0.4,0,0.6L0.2,42.3z M18.5,39.5
	l-0.2-2.9c0-0.1,0-0.2,0.1-0.3s0.2-0.1,0.3-0.2l1-0.1L18.5,39.5z M20.4,34.3l-1.9,0.2c-0.5,0.1-1,0.3-1.4,0.8
	c-0.3,0.4-0.5,0.9-0.5,1.5l0.5,6.7l-0.4,1.1l-1.2-0.5L15,36.9c-0.1-1,0.2-1.9,0.9-2.7c0.6-0.7,1.5-1.2,2.5-1.3l2.7-0.4L20.4,34.3z
	 M18.1,31.2c-1.4,0.2-2.6,0.9-3.5,1.9c-0.9,1.1-1.3,2.4-1.2,3.8l0.4,6.4l-4.2-1.7l4.7-12.1c0.1-0.2,0.2-0.4,0.4-0.5s0.4-0.1,0.6,0
	l4.4,1.8L18.1,31.2z M19.4,47c-0.2,0.5-0.6,0.9-1.1,1.2c-0.5,0.2-1.1,0.3-1.6,0.1l-8.4-3.4L9,43.3l7.1,2.9c0.4,0.2,0.9,0.1,1.3,0
	c0.4-0.2,0.7-0.5,0.9-0.9l4.6-12.9l0.7,0.3c0.3,0.1,0.6,0.2,0.9,0.2L19.4,47z M37.1,9.4l-1.8,1.2l-1.8-2.8l2.3-1.6L37.1,9.4z
	 M34,11.6L31.9,13l-1.8-2.8l2.1-1.4L34,11.6z M30.5,14l-1.9,1.3l-1.8-2.8l1.9-1.3L30.5,14z M42.1,7l-1.2-3.1l2.5-1L44.7,6L42.1,7z
	 M46.6,1.7c0.2-0.1,0.4-0.1,0.6,0c0.2,0.1,0.4,0.3,0.4,0.5l0.6,1.6c0,0.1,0.1,0.2,0.1,0.3c0,0.1,0,0.2-0.1,0.3
	c0,0.1-0.1,0.2-0.2,0.3c-0.1,0.1-0.2,0.1-0.3,0.2l-1.6,0.6L45,2.3L46.6,1.7z M39.4,4.5l1.2,3.1l-1.3,0.5c-0.2,0.1-0.5,0.2-0.7,0.3
	l-1.4-3.1l0.1-0.1L39.4,4.5z M5.3,26.8l-0.6-0.3c-0.2-0.1-0.3-0.3-0.4-0.5s-0.1-0.4,0-0.6L5.8,22c0.1-0.2,0.2-0.3,0.3-0.4
	c0.1-0.1,0.3-0.1,0.5-0.1H8c0.4,0,0.8-0.1,1.2-0.3c0.4-0.2,0.7-0.5,0.9-0.8l4.7-6.8c0.1-0.1,0.2-0.2,0.4-0.3
	c0.1-0.1,0.3-0.1,0.5-0.1l3.4,0.6c0.5,0.1,1.1,0,1.5-0.2l3.2-1.6c0.2-0.1,0.4-0.1,0.6-0.1c0.2,0.1,0.4,0.2,0.5,0.3l3.3,5
	c0.1,0.2,0.2,0.4,0.1,0.6c0,0.2-0.2,0.4-0.3,0.5l-1.2,0.9c-0.4,0.3-0.7,0.7-0.9,1.2c-0.2,0.5-0.2,1,0,1.5l1.2,4.2
	c0.1,0.2,0,0.4,0,0.6l-1.6,3.8c-0.1,0.2-0.2,0.4-0.4,0.4c-0.2,0.1-0.4,0.1-0.6,0L16,27.7c-0.6-0.2-1.3-0.2-1.9,0
	c-0.6,0.3-1.1,0.8-1.3,1.4L6.5,45c0,0.1-0.1,0.2-0.2,0.3S6.1,45.4,6,45.5c-0.1,0-0.2,0.1-0.3,0c-0.1,0-0.2,0-0.3-0.1l-3.2-1.6
	c-0.2-0.1-0.3-0.2-0.4-0.4s-0.1-0.4,0-0.6l4.8-13c0.2-0.6,0.2-1.2,0-1.8C6.3,27.5,5.8,27,5.3,26.8z"/>
<path class="st1" d="M48.7,17.3H47c-0.7,0-1.3,0.6-1.3,1.3v4.2c0,0.2-0.2,0.3-0.3,0.3h-1.7c-0.2,0-0.3-0.2-0.3-0.3v-4.2
	c0-1.2-1-2.2-2.2-2.2H27.5c-0.2,0-0.3-0.2-0.3-0.3v-1.7c0-0.2,0.2-0.3,0.3-0.3h4.2c0.7,0,1.3-0.6,1.3-1.3V12c0-2.1-1.7-3.9-3.9-3.9
	h-8.4c-2.1,0-3.9,1.7-3.9,3.9v0.8c0,0.7,0.6,1.3,1.3,1.3h4.2c0.2,0,0.3,0.2,0.3,0.3v1.7c0,0.2-0.2,0.3-0.3,0.3h-0.9
	c-0.6,0-1.2,0.2-1.7,0.5l-6.3,4.2c-0.3,0.2-0.7,0.3-1.1,0.3H9.8c-1.2,0-2.2,1-2.2,2.2v5.9c0,0.2-0.2,0.3-0.3,0.3H4.7
	c-0.2,0-0.3-0.2-0.3-0.3v-4.2c0-0.7-0.6-1.3-1.3-1.3H1.3C0.6,24,0,24.6,0,25.3V39c0,0.7,0.6,1.3,1.3,1.3H3c0.7,0,1.3-0.6,1.3-1.3
	v-4.2c0-0.2,0.2-0.3,0.3-0.3h2.5c0.2,0,0.3,0.2,0.3,0.3v5.1c0,1.2,1,2.2,2.2,2.2h17.7c0.7,0,1.3-0.2,1.8-0.6l8.8-6.6
	c0.4-0.3,0.8-0.4,1.2-0.4h1.7c1.2,0,2.2-1,2.2-2.2V28c0-0.2,0.2-0.3,0.3-0.3H45c0.2,0,0.3,0.2,0.3,0.3v4.2c0,0.7,0.6,1.3,1.3,1.3
	h1.7c0.7,0,1.3-0.6,1.3-1.3V18.7C50,17.9,49.4,17.3,48.7,17.3L48.7,17.3z M3.4,39c0,0.2-0.2,0.3-0.3,0.3H1.3C1.2,39.3,1,39.1,1,39
	V25.4c0-0.2,0.2-0.3,0.3-0.3H3c0.2,0,0.3,0.2,0.3,0.3V39H3.4z M7.6,33c0,0.2-0.2,0.3-0.3,0.3H4.7c-0.2,0-0.3-0.2-0.3-0.3v-1.7
	c0-0.2,0.2-0.3,0.3-0.3h2.5c0.2,0,0.3,0.2,0.3,0.3L7.6,33L7.6,33z M18.2,13.1c-0.2,0-0.3-0.2-0.3-0.3V12c0-1.6,1.3-2.9,2.9-2.9h8.4
	c1.6,0,2.9,1.3,2.9,2.9v0.8c0,0.2-0.2,0.3-0.3,0.3H18.2z M26.2,14.4v1.7c0,0.2-0.2,0.3-0.3,0.3h-1.7c-0.2,0-0.3-0.2-0.3-0.3v-1.7
	c0-0.2,0.2-0.3,0.3-0.3h1.7C26,14.1,26.2,14.2,26.2,14.4z M42.2,32.2c0,0.7-0.5,1.2-1.2,1.2h-1.7c-0.7,0-1.3,0.2-1.8,0.6l-8.8,6.6
	C28.4,40.8,28,41,27.5,41H9.8c-0.7,0-1.2-0.5-1.2-1.2V23.7c0-0.7,0.5-1.2,1.2-1.2h2.6c0.6,0,1.2-0.2,1.7-0.5l6.3-4.2
	c0.3-0.2,0.7-0.3,1.1-0.3H41c0.7,0,1.2,0.5,1.2,1.2V32.2z M45.6,26.3c0,0.2-0.2,0.3-0.3,0.3h-1.7c-0.2,0-0.3-0.2-0.3-0.3v-1.7
	c0-0.2,0.2-0.3,0.3-0.3h1.7c0.2,0,0.3,0.2,0.3,0.3V26.3z M49,32.2c0,0.2-0.2,0.3-0.3,0.3H47c-0.2,0-0.3-0.2-0.3-0.3V18.7
	c0-0.2,0.2-0.3,0.3-0.3h1.7c0.2,0,0.3,0.2,0.3,0.3V32.2z"/>
<g class="st2">
	<path class="st3" d="M25,3.1c-6.6,0-12.9,2.6-17.6,7.3l0,0l0,0l0,0l0,0C2.6,15.2,0,21.4,0,28c0,6,2.2,11.8,6.1,16.4
		c0.2,0.3,0.7,0.3,1,0.1l5.4-4.5c0.1-0.1,0.2-0.3,0.2-0.5s0-0.4-0.2-0.5c-2.6-3.1-4.1-7-4.1-11c0-9.1,7.4-16.5,16.6-16.5
		c3.8,0,7.5,1.3,10.5,3.7c0.2,0.2,0.4,0.2,0.6,0.1c0.2-0.1,0.5-0.3,0.5-0.6c0-0.2-0.1-0.4-0.3-0.6c-2.8-2.3-6.4-3.7-10-4h-0.6V4.5
		h0.7C38.9,5.3,48.6,15.6,48.6,28c0,5.2-1.7,10.3-4.9,14.4L43.3,43L39,39.3l0.4-0.5C41.7,35.7,43,31.9,43,28c0-1.7-0.2-3.5-0.7-5.1
		c-0.2-0.6-0.7-0.5-0.8-0.5s-0.7,0.2-0.5,0.8c0.5,1.5,0.7,3.1,0.7,4.7c0,4-1.5,7.9-4.1,10.9c-0.1,0.1-0.2,0.3-0.2,0.5
		s0.1,0.4,0.2,0.5l5.4,4.5c0.3,0.2,0.7,0.2,1-0.1c3.8-4.4,6-10.2,6-16.2C50,14.3,38.8,3.1,25,3.1z M10.7,38.8l0.4,0.5L6.7,43
		l-0.4-0.6c-2.9-3.7-4.6-8.2-4.9-13v-0.7H7v0.6C7.3,32.8,8.6,36,10.7,38.8L10.7,38.8z M11.4,16.3c-2.5,2.9-4,6.5-4.3,10.4v0.6H1.4
		v-0.7c0.3-5.3,2.4-10.2,5.9-14.2l0.5-0.5l4,4L11.4,16.3z M24.3,10.1h-0.6c-3.9,0.3-7.5,1.8-10.4,4.3l-0.5,0.4l-4-4l0.5-0.5
		c4-3.5,8.9-5.6,14.2-5.9h0.7L24.3,10.1L24.3,10.1z"/>
	<path class="st3" d="M40.3,16.6c-0.1,0-0.2,0-0.4,0.1C32.3,21.7,23,28,22.1,29c-0.7,0.7-1.2,1.7-1.2,2.8c0,1,0.4,2,1.1,2.8
		c1.5,1.5,4,1.5,5.6,0c1.2-1.2,11.2-14.2,13.2-16.8c0.3-0.4,0-0.8-0.1-0.9C40.6,16.7,40.4,16.6,40.3,16.6L40.3,16.6z M34.6,23.5
		c-2.7,3.4-7.2,9.3-8,10.1c-0.5,0.5-1.1,0.8-1.8,0.8c-0.2,0-0.4,0-0.6-0.1c-0.9-0.2-1.7-1-1.9-1.9c-0.2-0.9,0-1.7,0.7-2.4
		c0.6-0.6,4.1-3.1,10.7-7.4l3.5-2.4L34.6,23.5L34.6,23.5z"/>
	<path class="st3" d="M20.3,41.7h9.5c0.6,0,0.7-0.6,0.7-0.7c0-0.1,0-0.7-0.7-0.7h-9.5c-0.6,0-0.7,0.6-0.7,0.7
		C19.6,41.1,19.6,41.7,20.3,41.7z"/>
	<path class="st3" d="M36.6,45.5H13.4c-0.6,0-0.7,0.6-0.7,0.7c0,0.1,0,0.7,0.7,0.7h23.2c0.6,0,0.7-0.6,0.7-0.7S37.2,45.5,36.6,45.5z
		"/>
</g>
<g class="st2">
	<path class="st3" d="M25,3.1c-6.6,0-12.9,2.6-17.6,7.3l0,0l0,0l0,0l0,0C2.6,15.2,0,21.4,0,28c0,6,2.2,11.8,6.1,16.4
		c0.2,0.3,0.7,0.3,1,0.1l5.4-4.5c0.1-0.1,0.2-0.3,0.2-0.5s0-0.4-0.2-0.5c-2.6-3.1-4.1-7-4.1-11c0-9.1,7.4-16.5,16.6-16.5
		c3.8,0,7.5,1.3,10.5,3.7c0.2,0.2,0.4,0.2,0.6,0.1c0.2-0.1,0.5-0.3,0.5-0.6c0-0.2-0.1-0.4-0.3-0.6c-2.8-2.3-6.4-3.7-10-4h-0.6V4.5
		h0.7C38.9,5.3,48.6,15.6,48.6,28c0,5.2-1.7,10.3-4.9,14.4L43.3,43L39,39.3l0.4-0.5C41.7,35.7,43,31.9,43,28c0-1.7-0.2-3.5-0.7-5.1
		c-0.2-0.6-0.7-0.5-0.8-0.5s-0.7,0.2-0.5,0.8c0.5,1.5,0.7,3.1,0.7,4.7c0,4-1.5,7.9-4.1,10.9c-0.1,0.1-0.2,0.3-0.2,0.5
		s0.1,0.4,0.2,0.5l5.4,4.5c0.3,0.2,0.7,0.2,1-0.1c3.8-4.4,6-10.2,6-16.2C50,14.3,38.8,3.1,25,3.1z M10.7,38.8l0.4,0.5L6.7,43
		l-0.4-0.6c-2.9-3.7-4.6-8.2-4.9-13v-0.7H7v0.6C7.3,32.8,8.6,36,10.7,38.8L10.7,38.8z M11.4,16.3c-2.5,2.9-4,6.5-4.3,10.4v0.6H1.4
		v-0.7c0.3-5.3,2.4-10.2,5.9-14.2l0.5-0.5l4,4L11.4,16.3z M24.3,10.1h-0.6c-3.9,0.3-7.5,1.8-10.4,4.3l-0.5,0.4l-4-4l0.5-0.5
		c4-3.5,8.9-5.6,14.2-5.9h0.7L24.3,10.1L24.3,10.1z"/>
	<path class="st3" d="M40.3,16.6c-0.1,0-0.2,0-0.4,0.1C32.3,21.7,23,28,22.1,29c-0.7,0.7-1.2,1.7-1.2,2.8c0,1,0.4,2,1.1,2.8
		c1.5,1.5,4,1.5,5.6,0c1.2-1.2,11.2-14.2,13.2-16.8c0.3-0.4,0-0.8-0.1-0.9C40.6,16.7,40.4,16.6,40.3,16.6L40.3,16.6z M34.6,23.5
		c-2.7,3.4-7.2,9.3-8,10.1c-0.5,0.5-1.1,0.8-1.8,0.8c-0.2,0-0.4,0-0.6-0.1c-0.9-0.2-1.7-1-1.9-1.9c-0.2-0.9,0-1.7,0.7-2.4
		c0.6-0.6,4.1-3.1,10.7-7.4l3.5-2.4L34.6,23.5L34.6,23.5z"/>
	<path class="st3" d="M20.3,41.7h9.5c0.6,0,0.7-0.6,0.7-0.7c0-0.1,0-0.7-0.7-0.7h-9.5c-0.6,0-0.7,0.6-0.7,0.7
		C19.6,41.1,19.6,41.7,20.3,41.7z"/>
	<path class="st3" d="M36.6,45.5H13.4c-0.6,0-0.7,0.6-0.7,0.7c0,0.1,0,0.7,0.7,0.7h23.2c0.6,0,0.7-0.6,0.7-0.7S37.2,45.5,36.6,45.5z
		"/>
</g>
<g>
	<path class="st4" d="M25,0.4C11.4,0.4,0.4,11.4,0.4,25s11,24.6,24.6,24.6s24.6-11,24.6-24.6S38.6,0.4,25,0.4z M25,48
		C12.3,48,2,37.7,2,25S12.3,2,25,2s23,10.3,23,23S37.7,48,25,48L25,48z"/>
	<path class="st4" d="M21.1,42.5c-0.3,0-0.5-0.1-0.7-0.2c-0.7-0.4-1.1-1.2-0.8-1.9l3.3-11.8h-7.8c-0.6,0-1.2-0.4-1.5-0.9
		c-0.3-0.6-0.2-1.3,0.2-1.8L27.7,8.1c0.5-0.6,1.4-0.8,2.1-0.5c0.7,0.4,1.1,1.2,0.8,1.9l-3.3,11.8h7.8c0.6,0,1.2,0.4,1.5,0.9
		c0.3,0.6,0.2,1.3-0.2,1.8l-13.9,18C22,42.3,21.6,42.5,21.1,42.5z M28.9,8.8c-0.1,0-0.2,0-0.3,0.1L14.8,26.8c-0.1,0.1-0.1,0.3,0,0.4
		c0.1,0.1,0.2,0.2,0.3,0.2h9.4l-3.8,13.4c0,0.2,0,0.3,0.2,0.4s0.3,0,0.4-0.1l13.9-17.9c0.1-0.1,0.1-0.3,0-0.4
		c-0.1-0.1-0.2-0.2-0.3-0.2h-9.4l3.8-13.5C29.2,8.9,29.2,8.8,28.9,8.8C29,8.8,29,8.8,28.9,8.8L28.9,8.8z"/>
</g>
<g class="st2">
	<g class="st5">
		<defs>
			<rect id="SVGID_1_" y="0.6" width="50" height="48.9"/>
		</defs>
		<clipPath id="SVGID_00000172401190138198181240000008649977220001417864_">
			<use xlink:href="#SVGID_1_"  style="overflow:visible;"/>
		</clipPath>
		<g style="clip-path:url(#SVGID_00000172401190138198181240000008649977220001417864_);">
			<path class="st4" d="M44.8,3.4c-2.5-1.9-5.5-2.9-8.5-2.9S30.4,1.4,28,3.2c-3.8,2.8-5.8,7.3-5.4,11.9c0.3,3.1-0.9,6.2-3.2,8.5
				L3.1,39.5c-0.2,0.2-0.2,0.6,0,0.8l6.2,6.1c0.2,0.2,0.6,0.2,0.8,0l16.2-15.9c2.3-2.3,5.5-3.4,8.6-3.1c4.1,0.4,8.1-1,11-3.9
				c2.8-2.7,4.2-6.5,4-10.3C49.8,9.4,47.9,5.8,44.8,3.4L44.8,3.4z M45.1,22.7c-2.6,2.6-6.3,3.9-10,3.5c-3.5-0.3-7,0.9-9.6,3.5
				L9.7,45.2L4.3,40l15.8-15.4c2.6-2.5,3.9-5.9,3.5-9.4c-0.4-4.2,1.5-8.3,4.9-10.9C33,0.9,39.5,1,43.9,4.5c2.9,2.2,4.6,5.4,4.8,9
				C49,16.8,47.7,20.2,45.1,22.7L45.1,22.7z"/>
			<path class="st4" d="M10.9,46.4l-7.8-7.6c-0.1-0.1-0.3-0.2-0.4-0.2c-0.2,0-0.3,0.1-0.4,0.2l-0.5,0.5C0.6,40.4,0,41.9,0,43.5
				s0.6,3.1,1.8,4.2c1.1,1.1,2.7,1.7,4.3,1.7s3.2-0.6,4.3-1.7l0.5-0.5C11.2,47,11.2,46.6,10.9,46.4L10.9,46.4z M9.5,46.9
				c-0.9,0.9-2.2,1.3-3.4,1.3s-2.5-0.5-3.5-1.4c-0.9-0.9-1.4-2.1-1.4-3.4c0-1.3,0.5-2.4,1.4-3.3L2.7,40l7,6.8L9.5,46.9L9.5,46.9z"/>
			<path class="st4" d="M44.6,13.6l-2.2-2.1v-3c0-0.3-0.3-0.6-0.6-0.6h-3l-2.2-2.1c-0.2-0.2-0.6-0.2-0.8,0L33.7,8h-3
				C30.3,8,30,8.2,30,8.5v3l-2.2,2.1c-0.1,0.1-0.2,0.3-0.2,0.4c0,0.2,0.1,0.3,0.2,0.4l2.2,2.1v3c0,0.3,0.3,0.6,0.6,0.6h3l2.1,2.1
				c0.2,0.2,0.6,0.2,0.8,0l2.1-2.1h3c0.3,0,0.6-0.3,0.6-0.6v-3l2.2-2.1c0.1-0.1,0.2-0.3,0.2-0.4C44.7,13.9,44.7,13.7,44.6,13.6
				L44.6,13.6z M41.4,15.9c-0.1,0.1-0.2,0.3-0.2,0.4v2.6h-2.7c-0.2,0-0.3,0.1-0.4,0.2L36.2,21l-1.9-1.9c-0.1-0.1-0.3-0.2-0.4-0.2
				h-2.7v-2.6c0-0.2-0.1-0.3-0.2-0.4L29.1,14l1.9-1.9c0.1-0.1,0.2-0.3,0.2-0.4V9.1h2.7c0.2,0,0.3-0.1,0.4-0.2L36.2,7l1.9,1.9
				c0.1,0.1,0.3,0.2,0.4,0.2h2.7v2.6c0,0.2,0.1,0.3,0.2,0.4l1.9,1.9L41.4,15.9z"/>
			<path class="st4" d="M28,22c-0.3-0.3-0.8-0.5-1.3-0.5s-1,0.2-1.3,0.5L8,39.1c-0.3,0.3-0.5,0.8-0.5,1.3s0.2,0.9,0.5,1.3
				c0.7,0.7,1.9,0.7,2.6,0L28,24.6C28.7,23.9,28.7,22.7,28,22z M27.2,23.7L9.7,40.8C9.6,40.9,9.5,41,9.3,41S9,40.9,8.9,40.8
				c-0.2-0.2-0.2-0.3-0.2-0.4c0-0.2,0.1-0.3,0.2-0.4l17.4-17.1c0.2-0.2,0.4-0.2,0.4-0.2c0.1,0,0.3,0,0.4,0.2
				C27.4,23.1,27.4,23.5,27.2,23.7L27.2,23.7z"/>
		</g>
	</g>
</g>
</svg>
