<?xml version="1.0" encoding="utf-8"?>
<!-- Generator: Adobe Illustrator 27.6.1, SVG Export Plug-In . SVG Version: 6.00 Build 0)  -->
<svg version="1.1" id="Capa_1" xmlns="http://www.w3.org/2000/svg" xmlns:xlink="http://www.w3.org/1999/xlink" x="0px" y="0px"
	 viewBox="0 0 50.5 44.5" style="enable-background:new 0 0 50.5 44.5;" xml:space="preserve">
<style type="text/css">
	.st0{display:none;fill:#E10203;}
	.st1{display:none;fill:#ED1D24;}
	.st2{fill:#ED1D24;}
	.st3{display:none;}
	.st4{display:inline;fill:#ED1D24;}
	.st5{display:inline;}
	.st6{clip-path:url(#SVGID_00000166638773512459921380000003989744734500222639_);}
</style>
<path class="st0" d="M0.4,39.5c-0.2,0.6-0.2,1.2,0,1.8s0.7,1,1.2,1.3l3.2,1.6c0.5,0.2,1.1,0.3,1.6,0.2s1-0.4,1.4-0.8l8.5,3.4
	c0.5,0.2,1,0.3,1.5,0.2c0.5,0,1-0.1,1.4-0.3c0.5-0.2,0.9-0.5,1.2-0.9c0.3-0.4,0.6-0.8,0.8-1.3l5.9-16.4l1.6-3.8
	c0.2-0.5,0.3-1.1,0.1-1.7l-1.2-4.2c0-0.2,0-0.3,0-0.5c0.1-0.2,0.2-0.3,0.3-0.4l1.2-0.9c0.5-0.4,0.8-0.9,0.9-1.4
	c0.1-0.6,0.1-1.2-0.2-1.7l9.6-6.6c0.2-0.1,0.4-0.3,0.7-0.4l8.5-3.3c0.3-0.1,0.6-0.3,0.8-0.5s0.4-0.5,0.6-0.8c0.1-0.3,0.2-0.6,0.2-1
	c0-0.3,0-0.7-0.2-1l-0.6-1.6c-0.2-0.3-0.7-0.8-1.3-1.1s-1.3-0.3-1.9-0.1l-9.3,3.6c-0.2,0.1-0.5,0.2-0.7,0.4L26,8.3
	c-0.4-0.4-0.9-0.7-1.4-0.8s-1.1,0-1.6,0.2l-3.2,1.6c-0.2,0.1-0.3,0.1-0.5,0.1l-3.4-0.6c-0.5-0.1-0.9,0-1.4,0.2
	c-0.4,0.2-0.8,0.5-1.1,0.9l-4.7,6.8c-0.1,0.1-0.2,0.2-0.3,0.3c-0.1,0.1-0.3,0.1-0.4,0.1H6.7c-0.5,0-1,0.1-1.4,0.4s-0.7,0.7-0.9,1.1
	L3,22c-0.3,0.6-0.3,1.2,0,1.8c0.1,0.6,0.6,1.1,1.2,1.4l0.6,0.3c0.2,0.1,0.3,0.2,0.4,0.4c0,0.2,0,0.4,0,0.6L0.4,39.5z M18.7,36.7
	l-0.2-2.9c0-0.1,0-0.2,0.1-0.3s0.2-0.1,0.3-0.2l1-0.1L18.7,36.7z M20.6,31.5l-1.9,0.2c-0.5,0.1-1,0.3-1.4,0.8
	c-0.3,0.4-0.5,0.9-0.5,1.5l0.5,6.7l-0.4,1.1l-1.2-0.5l-0.5-7.2c-0.1-1,0.2-1.9,0.9-2.7c0.6-0.7,1.5-1.2,2.5-1.3l2.7-0.4L20.6,31.5z
	 M18.3,28.4c-1.4,0.2-2.6,0.9-3.5,1.9c-0.9,1.1-1.3,2.4-1.2,3.8l0.4,6.4l-4.2-1.7l4.7-12.1c0.1-0.2,0.2-0.4,0.4-0.5s0.4-0.1,0.6,0
	l4.4,1.8L18.3,28.4z M19.6,44.2c-0.2,0.5-0.6,0.9-1.1,1.2c-0.5,0.2-1.1,0.3-1.6,0.1l-8.4-3.4l0.7-1.6l7.1,2.9c0.4,0.2,0.9,0.1,1.3,0
	c0.4-0.2,0.7-0.5,0.9-0.9l4.6-12.9l0.7,0.3c0.3,0.1,0.6,0.2,0.9,0.2L19.6,44.2z M37.3,6.6l-1.8,1.2L33.7,5L36,3.4L37.3,6.6z
	 M34.2,8.8l-2.1,1.4l-1.8-2.8L32.4,6L34.2,8.8z M30.7,11.2l-1.9,1.3L27,9.7l1.9-1.3L30.7,11.2z M42.3,4.2l-1.2-3.1l2.5-1l1.3,3.1
	L42.3,4.2z M46.8-1.1c0.2-0.1,0.4-0.1,0.6,0c0.2,0.1,0.4,0.3,0.4,0.5L48.4,1c0,0.1,0.1,0.2,0.1,0.3c0,0.1,0,0.2-0.1,0.3
	c0,0.1-0.1,0.2-0.2,0.3C48.1,2,48,2,47.9,2.1l-1.6,0.6l-1.1-3.2L46.8-1.1z M39.6,1.7l1.2,3.1l-1.3,0.5c-0.2,0.1-0.5,0.2-0.7,0.3
	l-1.4-3.1l0.1-0.1L39.6,1.7z M5.5,24l-0.6-0.3c-0.2-0.1-0.3-0.3-0.4-0.5s-0.1-0.4,0-0.6L6,19.2c0.1-0.2,0.2-0.3,0.3-0.4
	c0.1-0.1,0.3-0.1,0.5-0.1h1.4c0.4,0,0.8-0.1,1.2-0.3c0.4-0.2,0.7-0.5,0.9-0.8l4.7-6.8c0.1-0.1,0.2-0.2,0.4-0.3
	c0.1-0.1,0.3-0.1,0.5-0.1l3.4,0.6c0.5,0.1,1.1,0,1.5-0.2L24,9.2c0.2-0.1,0.4-0.1,0.6-0.1c0.2,0.1,0.4,0.2,0.5,0.3l3.3,5
	c0.1,0.2,0.2,0.4,0.1,0.6c0,0.2-0.2,0.4-0.3,0.5L27,16.4c-0.4,0.3-0.7,0.7-0.9,1.2c-0.2,0.5-0.2,1,0,1.5l1.2,4.2
	c0.1,0.2,0,0.4,0,0.6l-1.6,3.8c-0.1,0.2-0.2,0.4-0.4,0.4c-0.2,0.1-0.4,0.1-0.6,0l-8.5-3.2c-0.6-0.2-1.3-0.2-1.9,0
	c-0.6,0.3-1.1,0.8-1.3,1.4L6.7,42.2c0,0.1-0.1,0.2-0.2,0.3s-0.2,0.1-0.3,0.2c-0.1,0-0.2,0.1-0.3,0c-0.1,0-0.2,0-0.3-0.1L2.4,41
	c-0.2-0.1-0.3-0.2-0.4-0.4c-0.1-0.2-0.1-0.4,0-0.6l4.8-13c0.2-0.6,0.2-1.2,0-1.8C6.5,24.7,6,24.2,5.5,24z"/>
<path class="st1" d="M48.9,14.5h-1.7c-0.7,0-1.3,0.6-1.3,1.3V20c0,0.2-0.2,0.3-0.3,0.3h-1.7c-0.2,0-0.3-0.2-0.3-0.3v-4.2
	c0-1.2-1-2.2-2.2-2.2H27.7c-0.2,0-0.3-0.2-0.3-0.3v-1.7c0-0.2,0.2-0.3,0.3-0.3h4.2c0.7,0,1.3-0.6,1.3-1.3V9.2c0-2.1-1.7-3.9-3.9-3.9
	h-8.4C18.8,5.3,17,7,17,9.2V10c0,0.7,0.6,1.3,1.3,1.3h4.2c0.2,0,0.3,0.2,0.3,0.3v1.7c0,0.2-0.2,0.3-0.3,0.3h-0.9
	c-0.6,0-1.2,0.2-1.7,0.5l-6.3,4.2c-0.3,0.2-0.7,0.3-1.1,0.3H10c-1.2,0-2.2,1-2.2,2.2v5.9c0,0.2-0.2,0.3-0.3,0.3H4.9
	c-0.2,0-0.3-0.2-0.3-0.3v-4.2c0-0.7-0.6-1.3-1.3-1.3H1.5c-0.7,0-1.3,0.6-1.3,1.3v13.7c0,0.7,0.6,1.3,1.3,1.3h1.7
	c0.7,0,1.3-0.6,1.3-1.3V32c0-0.2,0.2-0.3,0.3-0.3h2.5c0.2,0,0.3,0.2,0.3,0.3v5.1c0,1.2,1,2.2,2.2,2.2h17.7c0.7,0,1.3-0.2,1.8-0.6
	l8.8-6.6c0.4-0.3,0.8-0.4,1.2-0.4H41c1.2,0,2.2-1,2.2-2.2v-4.3c0-0.2,0.2-0.3,0.3-0.3h1.7c0.2,0,0.3,0.2,0.3,0.3v4.2
	c0,0.7,0.6,1.3,1.3,1.3h1.7c0.7,0,1.3-0.6,1.3-1.3V15.9C50.2,15.1,49.6,14.5,48.9,14.5L48.9,14.5z M3.6,36.2c0,0.2-0.2,0.3-0.3,0.3
	H1.5c-0.1,0-0.3-0.2-0.3-0.3V22.6c0-0.2,0.2-0.3,0.3-0.3h1.7c0.2,0,0.3,0.2,0.3,0.3v13.6H3.6z M7.8,30.2c0,0.2-0.2,0.3-0.3,0.3H4.9
	c-0.2,0-0.3-0.2-0.3-0.3v-1.7c0-0.2,0.2-0.3,0.3-0.3h2.5c0.2,0,0.3,0.2,0.3,0.3L7.8,30.2L7.8,30.2z M18.4,10.3
	c-0.2,0-0.3-0.2-0.3-0.3V9.2c0-1.6,1.3-2.9,2.9-2.9h8.4c1.6,0,2.9,1.3,2.9,2.9V10c0,0.2-0.2,0.3-0.3,0.3H18.4z M26.4,11.6v1.7
	c0,0.2-0.2,0.3-0.3,0.3h-1.7c-0.2,0-0.3-0.2-0.3-0.3v-1.7c0-0.2,0.2-0.3,0.3-0.3h1.7C26.2,11.3,26.4,11.4,26.4,11.6z M42.4,29.4
	c0,0.7-0.5,1.2-1.2,1.2h-1.7c-0.7,0-1.3,0.2-1.8,0.6l-8.8,6.6c-0.3,0.2-0.7,0.4-1.2,0.4H10c-0.7,0-1.2-0.5-1.2-1.2V20.9
	c0-0.7,0.5-1.2,1.2-1.2h2.6c0.6,0,1.2-0.2,1.7-0.5l6.3-4.2c0.3-0.2,0.7-0.3,1.1-0.3h19.5c0.7,0,1.2,0.5,1.2,1.2V29.4z M45.8,23.5
	c0,0.2-0.2,0.3-0.3,0.3h-1.7c-0.2,0-0.3-0.2-0.3-0.3v-1.7c0-0.2,0.2-0.3,0.3-0.3h1.7c0.2,0,0.3,0.2,0.3,0.3V23.5z M49.2,29.4
	c0,0.2-0.2,0.3-0.3,0.3h-1.7c-0.2,0-0.3-0.2-0.3-0.3V15.9c0-0.2,0.2-0.3,0.3-0.3h1.7c0.2,0,0.3,0.2,0.3,0.3V29.4z"/>
<g>
	<path class="st2" d="M25.2,0.3c-6.6,0-12.9,2.6-17.6,7.3l0,0l0,0l0,0l0,0c-4.8,4.8-7.4,11-7.4,17.6c0,6,2.2,11.8,6.1,16.4
		c0.2,0.3,0.7,0.3,1,0.1l5.4-4.5c0.1-0.1,0.2-0.3,0.2-0.5s0-0.4-0.2-0.5c-2.6-3.1-4.1-7-4.1-11c0-9.1,7.4-16.5,16.6-16.5
		c3.8,0,7.5,1.3,10.5,3.7c0.2,0.2,0.4,0.2,0.6,0.1c0.2-0.1,0.5-0.3,0.5-0.6c0-0.2-0.1-0.4-0.3-0.6c-2.8-2.3-6.4-3.7-10-4h-0.6V1.7
		h0.7c12.5,0.8,22.2,11.1,22.2,23.5c0,5.2-1.7,10.3-4.9,14.4l-0.4,0.6l-4.3-3.7l0.4-0.5c2.3-3.1,3.6-6.9,3.6-10.8
		c0-1.7-0.2-3.5-0.7-5.1c-0.2-0.6-0.7-0.5-0.8-0.5s-0.7,0.2-0.5,0.8c0.5,1.5,0.7,3.1,0.7,4.7c0,4-1.5,7.9-4.1,10.9
		c-0.1,0.1-0.2,0.3-0.2,0.5s0.1,0.4,0.2,0.5l5.4,4.5c0.3,0.2,0.7,0.2,1-0.1c3.8-4.4,6-10.2,6-16.2C50.2,11.5,39,0.3,25.2,0.3z
		 M10.9,36l0.4,0.5l-4.4,3.7l-0.4-0.6c-2.9-3.7-4.6-8.2-4.9-13v-0.7h5.6v0.6C7.5,30,8.8,33.2,10.9,36L10.9,36z M11.6,13.5
		c-2.5,2.9-4,6.5-4.3,10.4v0.6H1.6v-0.7C1.9,18.5,4,13.6,7.5,9.6L8,9.1l4,4L11.6,13.5z M24.5,7.3h-0.6c-3.9,0.3-7.5,1.8-10.4,4.3
		L13,12L9,8l0.5-0.5c4-3.5,8.9-5.6,14.2-5.9h0.7L24.5,7.3L24.5,7.3z"/>
	<path class="st2" d="M40.5,13.8c-0.1,0-0.2,0-0.4,0.1c-7.6,5-16.9,11.3-17.8,12.3c-0.7,0.7-1.2,1.7-1.2,2.8c0,1,0.4,2,1.1,2.8
		c1.5,1.5,4,1.5,5.6,0C29,30.6,39,17.6,41,15c0.3-0.4,0-0.8-0.1-0.9C40.8,13.9,40.6,13.8,40.5,13.8L40.5,13.8z M34.8,20.7
		c-2.7,3.4-7.2,9.3-8,10.1c-0.5,0.5-1.1,0.8-1.8,0.8c-0.2,0-0.4,0-0.6-0.1c-0.9-0.2-1.7-1-1.9-1.9c-0.2-0.9,0-1.7,0.7-2.4
		c0.6-0.6,4.1-3.1,10.7-7.4l3.5-2.4L34.8,20.7L34.8,20.7z"/>
	<path class="st2" d="M20.5,38.9H30c0.6,0,0.7-0.6,0.7-0.7c0-0.1,0-0.7-0.7-0.7h-9.5c-0.6,0-0.7,0.6-0.7,0.7
		C19.8,38.3,19.8,38.9,20.5,38.9z"/>
	<path class="st2" d="M36.8,42.7H13.6c-0.6,0-0.7,0.6-0.7,0.7c0,0.1,0,0.7,0.7,0.7h23.2c0.6,0,0.7-0.6,0.7-0.7S37.4,42.7,36.8,42.7z
		"/>
</g>
<g class="st3">
	<path class="st4" d="M25.2,0.3c-6.6,0-12.9,2.6-17.6,7.3l0,0l0,0l0,0l0,0c-4.8,4.8-7.4,11-7.4,17.6c0,6,2.2,11.8,6.1,16.4
		c0.2,0.3,0.7,0.3,1,0.1l5.4-4.5c0.1-0.1,0.2-0.3,0.2-0.5s0-0.4-0.2-0.5c-2.6-3.1-4.1-7-4.1-11c0-9.1,7.4-16.5,16.6-16.5
		c3.8,0,7.5,1.3,10.5,3.7c0.2,0.2,0.4,0.2,0.6,0.1c0.2-0.1,0.5-0.3,0.5-0.6c0-0.2-0.1-0.4-0.3-0.6c-2.8-2.3-6.4-3.7-10-4h-0.6V1.7
		h0.7c12.5,0.8,22.2,11.1,22.2,23.5c0,5.2-1.7,10.3-4.9,14.4l-0.4,0.6l-4.3-3.7l0.4-0.5c2.3-3.1,3.6-6.9,3.6-10.8
		c0-1.7-0.2-3.5-0.7-5.1c-0.2-0.6-0.7-0.5-0.8-0.5s-0.7,0.2-0.5,0.8c0.5,1.5,0.7,3.1,0.7,4.7c0,4-1.5,7.9-4.1,10.9
		c-0.1,0.1-0.2,0.3-0.2,0.5s0.1,0.4,0.2,0.5l5.4,4.5c0.3,0.2,0.7,0.2,1-0.1c3.8-4.4,6-10.2,6-16.2C50.2,11.5,39,0.3,25.2,0.3z
		 M10.9,36l0.4,0.5l-4.4,3.7l-0.4-0.6c-2.9-3.7-4.6-8.2-4.9-13v-0.7h5.6v0.6C7.5,30,8.8,33.2,10.9,36L10.9,36z M11.6,13.5
		c-2.5,2.9-4,6.5-4.3,10.4v0.6H1.6v-0.7C1.9,18.5,4,13.6,7.5,9.6L8,9.1l4,4L11.6,13.5z M24.5,7.3h-0.6c-3.9,0.3-7.5,1.8-10.4,4.3
		L13,12L9,8l0.5-0.5c4-3.5,8.9-5.6,14.2-5.9h0.7L24.5,7.3L24.5,7.3z"/>
	<path class="st4" d="M40.5,13.8c-0.1,0-0.2,0-0.4,0.1c-7.6,5-16.9,11.3-17.8,12.3c-0.7,0.7-1.2,1.7-1.2,2.8c0,1,0.4,2,1.1,2.8
		c1.5,1.5,4,1.5,5.6,0C29,30.6,39,17.6,41,15c0.3-0.4,0-0.8-0.1-0.9C40.8,13.9,40.6,13.8,40.5,13.8L40.5,13.8z M34.8,20.7
		c-2.7,3.4-7.2,9.3-8,10.1c-0.5,0.5-1.1,0.8-1.8,0.8c-0.2,0-0.4,0-0.6-0.1c-0.9-0.2-1.7-1-1.9-1.9c-0.2-0.9,0-1.7,0.7-2.4
		c0.6-0.6,4.1-3.1,10.7-7.4l3.5-2.4L34.8,20.7L34.8,20.7z"/>
	<path class="st4" d="M20.5,38.9H30c0.6,0,0.7-0.6,0.7-0.7c0-0.1,0-0.7-0.7-0.7h-9.5c-0.6,0-0.7,0.6-0.7,0.7
		C19.8,38.3,19.8,38.9,20.5,38.9z"/>
	<path class="st4" d="M36.8,42.7H13.6c-0.6,0-0.7,0.6-0.7,0.7c0,0.1,0,0.7,0.7,0.7h23.2c0.6,0,0.7-0.6,0.7-0.7S37.4,42.7,36.8,42.7z
		"/>
</g>
<g class="st3">
	<path class="st4" d="M25.2-2.8c-13.8,0-25,11.2-25,25s11.2,25,25,25s25-11.2,25-25S39-2.8,25.2-2.8z M25.2,45.6
		c-12.9,0-23.4-10.5-23.4-23.4S12.3-1.2,25.2-1.2S48.6,9.3,48.6,22.2S38.1,45.6,25.2,45.6L25.2,45.6z"/>
	<path class="st4" d="M21.2,40c-0.3,0-0.5-0.1-0.7-0.2c-0.7-0.4-1.1-1.2-0.8-1.9l3.4-12h-7.9c-0.6,0-1.2-0.4-1.5-0.9
		c-0.3-0.6-0.2-1.3,0.2-1.8L27.9,5c0.5-0.6,1.4-0.8,2.1-0.5c0.7,0.4,1.1,1.2,0.8,1.9l-3.4,12h7.9c0.6,0,1.2,0.4,1.5,0.9
		c0.3,0.6,0.2,1.3-0.2,1.8L22.5,39.4C22.2,39.8,21.7,40,21.2,40z M29.2,5.7c-0.1,0-0.2,0-0.3,0.1L14.8,24c-0.1,0.1-0.1,0.3,0,0.4
		s0.2,0.2,0.3,0.2h9.6l-3.9,13.6c0,0.2,0,0.3,0.2,0.4c0.2,0.1,0.3,0,0.4-0.1l14.1-18.2c0.1-0.1,0.1-0.3,0-0.4s-0.2-0.2-0.3-0.2h-9.6
		L29.5,6c0-0.2,0-0.3-0.2-0.4C29.3,5.7,29.3,5.7,29.2,5.7L29.2,5.7z"/>
</g>
<g class="st3">
	<g class="st5">
		<defs>
			<rect id="SVGID_1_" x="0.2" y="-2.2" width="50" height="48.9"/>
		</defs>
		<clipPath id="SVGID_00000084502028533108957750000007040184922015300010_">
			<use xlink:href="#SVGID_1_"  style="overflow:visible;"/>
		</clipPath>
		<g style="clip-path:url(#SVGID_00000084502028533108957750000007040184922015300010_);">
			<path class="st2" d="M45,0.6c-2.5-1.9-5.5-2.9-8.5-2.9s-5.9,0.9-8.3,2.7c-3.8,2.8-5.8,7.3-5.4,11.9c0.3,3.1-0.9,6.2-3.2,8.5
				L3.3,36.7c-0.2,0.2-0.2,0.6,0,0.8l6.2,6.1c0.2,0.2,0.6,0.2,0.8,0l16.2-15.9c2.3-2.3,5.5-3.4,8.6-3.1c4.1,0.4,8.1-1,11-3.9
				c2.8-2.7,4.2-6.5,4-10.3C50,6.6,48.1,3,45,0.6L45,0.6z M45.3,19.9c-2.6,2.6-6.3,3.9-10,3.5c-3.5-0.3-7,0.9-9.6,3.5L9.9,42.4
				l-5.4-5.2l15.8-15.4c2.6-2.5,3.9-5.9,3.5-9.4c-0.4-4.2,1.5-8.3,4.9-10.9c4.5-3.4,11-3.3,15.4,0.2c2.9,2.2,4.6,5.4,4.8,9
				C49.2,14,47.9,17.4,45.3,19.9L45.3,19.9z"/>
			<path class="st2" d="M11.1,43.6L3.3,36c-0.1-0.1-0.3-0.2-0.4-0.2c-0.2,0-0.3,0.1-0.4,0.2L2,36.5c-1.2,1.1-1.8,2.6-1.8,4.2
				s0.6,3.1,1.8,4.2c1.1,1.1,2.7,1.7,4.3,1.7s3.2-0.6,4.3-1.7l0.5-0.5C11.4,44.2,11.4,43.8,11.1,43.6L11.1,43.6z M9.7,44.1
				c-0.9,0.9-2.2,1.3-3.4,1.3S3.8,44.9,2.8,44c-0.9-0.9-1.4-2.1-1.4-3.4c0-1.3,0.5-2.4,1.4-3.3l0.1-0.1l7,6.8L9.7,44.1L9.7,44.1z"/>
			<path class="st2" d="M44.8,10.8l-2.2-2.1v-3c0-0.3-0.3-0.6-0.6-0.6h-3L36.8,3c-0.2-0.2-0.6-0.2-0.8,0l-2.1,2.2h-3
				c-0.4,0-0.7,0.2-0.7,0.5v3L28,10.8c-0.1,0.1-0.2,0.3-0.2,0.4c0,0.2,0.1,0.3,0.2,0.4l2.2,2.1v3c0,0.3,0.3,0.6,0.6,0.6h3l2.1,2.1
				c0.2,0.2,0.6,0.2,0.8,0l2.1-2.1h3c0.3,0,0.6-0.3,0.6-0.6v-3l2.2-2.1c0.1-0.1,0.2-0.3,0.2-0.4C44.9,11.1,44.9,10.9,44.8,10.8
				L44.8,10.8z M41.6,13.1c-0.1,0.1-0.2,0.3-0.2,0.4v2.6h-2.7c-0.2,0-0.3,0.1-0.4,0.2l-1.9,1.9l-1.9-1.9c-0.1-0.1-0.3-0.2-0.4-0.2
				h-2.7v-2.6c0-0.2-0.1-0.3-0.2-0.4l-1.9-1.9l1.9-1.9c0.1-0.1,0.2-0.3,0.2-0.4V6.3h2.7c0.2,0,0.3-0.1,0.4-0.2l1.9-1.9l1.9,1.9
				c0.1,0.1,0.3,0.2,0.4,0.2h2.7v2.6c0,0.2,0.1,0.3,0.2,0.4l1.9,1.9L41.6,13.1z"/>
			<path class="st2" d="M28.2,19.2c-0.3-0.3-0.8-0.5-1.3-0.5s-1,0.2-1.3,0.5L8.2,36.3c-0.3,0.3-0.5,0.8-0.5,1.3s0.2,0.9,0.5,1.3
				c0.7,0.7,1.9,0.7,2.6,0l17.4-17.1C28.9,21.1,28.9,19.9,28.2,19.2z M27.4,20.9L9.9,38c-0.1,0.1-0.2,0.2-0.4,0.2S9.2,38.1,9.1,38
				c-0.2-0.2-0.2-0.3-0.2-0.4c0-0.2,0.1-0.3,0.2-0.4l17.4-17.1c0.2-0.2,0.4-0.2,0.4-0.2c0.1,0,0.3,0,0.4,0.2
				C27.6,20.3,27.6,20.7,27.4,20.9L27.4,20.9z"/>
		</g>
	</g>
</g>
</svg>
