<?xml version="1.0" encoding="utf-8"?>
<!-- Generator: Adobe Illustrator 26.0.0, SVG Export Plug-In . SVG Version: 6.00 Build 0)  -->
<svg version="1.1" id="Capa_1" xmlns="http://www.w3.org/2000/svg" xmlns:xlink="http://www.w3.org/1999/xlink" x="0px" y="0px"
	 viewBox="0 0 182.8 182.8" style="enable-background:new 0 0 182.8 182.8;" xml:space="preserve">
<path d="M91.4,182.8C40.9,182.8,0,141.9,0,91.4S40.9,0,91.4,0c50.5,0,91.4,40.9,91.4,91.4S141.9,182.8,91.4,182.8z M82.3,118.8v18.3
	h18.3v-18.3H82.3z M100.6,103.8c7.3-2.2,13.7-7,17.8-13.5c4.1-6.5,5.8-14.2,4.7-21.8c-1.1-7.6-4.9-14.5-10.7-19.6
	c-5.8-5-13.2-7.8-20.9-7.8c-7.4,0-14.6,2.6-20.3,7.2c-5.7,4.7-9.6,11.2-11.1,18.5L78,70.4c0.5-2.5,1.7-4.9,3.5-6.8
	c1.8-1.9,4.1-3.2,6.6-3.8c2.5-0.6,5.2-0.5,7.6,0.3c2.5,0.8,4.6,2.3,6.3,4.3c1.6,2,2.7,4.4,3,7c0.3,2.6-0.1,5.2-1.2,7.5
	c-1.1,2.3-2.9,4.3-5.1,5.7c-2.2,1.4-4.7,2.1-7.3,2.1c-2.4,0-4.7,1-6.5,2.7c-1.7,1.7-2.7,4-2.7,6.5v13.7h18.3V103.8z"/>
</svg>
