<?xml version="1.0" encoding="utf-8"?>
<!-- Generator: Adobe Illustrator 27.6.1, SVG Export Plug-In . SVG Version: 6.00 Build 0)  -->
<svg version="1.1" id="Capa_1" xmlns="http://www.w3.org/2000/svg" xmlns:xlink="http://www.w3.org/1999/xlink" x="0px" y="0px"
	 viewBox="0 0 25 25" style="enable-background:new 0 0 25 25;" xml:space="preserve">
<style type="text/css">
	.st0{fill:#FFFFFF;}
</style>
<path class="st0" d="M18.9,3.9C18,2.8,17.4,1.4,17.4,0h-4.3v17.2c0,0.9-0.4,1.8-1.1,2.5c-0.7,0.6-1.6,1-2.5,1c-2,0-3.6-1.6-3.6-3.6
	c0-2.4,2.3-4.2,4.7-3.4V9.3c-4.8-0.6-9,3.1-9,7.8c0,4.6,3.8,7.9,7.9,7.9c4.4,0,7.9-3.5,7.9-7.9V8.3c1.7,1.2,3.8,1.9,6,1.9V6
	C23.4,6,20.8,6.1,18.9,3.9z"/>
</svg>
