<?xml version="1.0" encoding="utf-8"?>
<!-- Generator: Adobe Illustrator 27.6.1, SVG Export Plug-In . SVG Version: 6.00 Build 0)  -->
<svg version="1.1" id="Capa_1" xmlns="http://www.w3.org/2000/svg" xmlns:xlink="http://www.w3.org/1999/xlink" x="0px" y="0px"
	 viewBox="0 0 50 50" style="enable-background:new 0 0 50 50;" xml:space="preserve">
<style type="text/css">
	.st0{display:none;fill:#E10203;}
	.st1{display:none;fill:#ED1D24;}
	.st2{display:none;}
	.st3{display:inline;fill:#ED1D24;}
	.st4{display:inline;fill-rule:evenodd;clip-rule:evenodd;fill:#ED1D24;}
	.st5{display:inline;fill:#FFFFFF;}
	.st6{display:inline;fill:#E4F1FD;}
	.st7{display:inline;fill:none;stroke:#FFFFFF;stroke-width:1.7008;stroke-miterlimit:10;}
	.st8{display:inline;fill:none;stroke:#FFFFFF;stroke-width:1.7008;stroke-linecap:round;stroke-linejoin:round;}
	.st9{fill-rule:evenodd;clip-rule:evenodd;fill:#ED1D24;}
	.st10{fill:#FFFFFF;}
	.st11{fill:#FFFFFF;filter:url(#Adobe_OpacityMaskFilter);}
	.st12{mask:url(#path-2-inside-1_0_1_00000021813630819371035880000006743308420118736027_);fill:#FFFFFF;}
	.st13{fill-rule:evenodd;clip-rule:evenodd;fill:#FFFFFF;}
</style>
<path class="st0" d="M-13.3,50c-0.2,0.6-0.2,1.2,0,1.8c0.2,0.6,0.7,1,1.2,1.3l3.2,1.6c0.5,0.2,1.1,0.3,1.6,0.2
	c0.5-0.1,1-0.4,1.4-0.8l8.5,3.4c0.5,0.2,1,0.3,1.5,0.2c0.5,0,1-0.1,1.4-0.3c0.5-0.2,0.9-0.5,1.2-0.9c0.3-0.4,0.6-0.8,0.8-1.3
	l5.9-16.4l1.6-3.8c0.2-0.5,0.3-1.1,0.1-1.7l-1.2-4.2c0-0.2,0-0.3,0-0.5c0.1-0.2,0.2-0.3,0.3-0.4l1.2-0.9c0.5-0.4,0.8-0.9,0.9-1.4
	c0.1-0.6,0.1-1.2-0.2-1.7l9.6-6.6c0.2-0.1,0.4-0.3,0.7-0.4l8.5-3.3c0.3-0.1,0.6-0.3,0.8-0.5c0.2-0.2,0.4-0.5,0.6-0.8
	c0.1-0.3,0.2-0.6,0.2-1c0-0.3,0-0.7-0.2-1l-0.6-1.6C35.5,8.8,35,8.3,34.4,8c-0.6-0.3-1.3-0.3-1.9-0.1l-9.3,3.6
	c-0.2,0.1-0.5,0.2-0.7,0.4l-10.2,7c-0.4-0.4-0.9-0.7-1.4-0.8c-0.5-0.1-1.1,0-1.6,0.2l-3.2,1.6C6.1,20,5.9,20.1,5.7,20l-3.4-0.6
	c-0.5-0.1-0.9,0-1.4,0.2c-0.4,0.2-0.8,0.5-1.1,0.9l-4.7,6.8c-0.1,0.1-0.2,0.2-0.3,0.3c-0.1,0.1-0.3,0.1-0.4,0.1h-1.4
	c-0.5,0-1,0.1-1.4,0.4c-0.4,0.3-0.7,0.7-0.9,1.1l-1.4,3.4c-0.3,0.6-0.3,1.2,0,1.8c0.2,0.6,0.7,1.1,1.2,1.4l0.6,0.3
	c0.2,0.1,0.3,0.2,0.4,0.4c0.1,0.2,0.1,0.4,0,0.6L-13.3,50z M5.1,47.3l-0.2-2.9c0-0.1,0-0.2,0.1-0.3C5,44.1,5.1,44,5.3,44l1-0.1
	L5.1,47.3z M6.9,42.1L5,42.3c-0.5,0.1-1,0.3-1.4,0.8c-0.3,0.4-0.5,0.9-0.5,1.5l0.5,6.7l-0.4,1.1L2,51.9l-0.5-7.2
	c-0.1-1,0.2-1.9,0.9-2.7c0.6-0.7,1.5-1.2,2.5-1.3l2.7-0.4L6.9,42.1z M4.6,39C3.2,39.2,2,39.9,1.1,41c-0.9,1.1-1.3,2.4-1.2,3.8
	l0.4,6.4l-4.2-1.7l4.7-12.1c0.1-0.2,0.2-0.4,0.4-0.5c0.2-0.1,0.4-0.1,0.6,0l4.4,1.8L4.6,39z M5.9,54.7c-0.2,0.5-0.6,0.9-1.1,1.2
	c-0.5,0.2-1.1,0.3-1.6,0.1l-8.4-3.4l0.6-1.5l7.1,2.9c0.4,0.2,0.9,0.1,1.3,0c0.4-0.2,0.7-0.5,0.9-0.9L9.4,40l0.7,0.3
	c0.3,0.1,0.6,0.2,0.9,0.2L5.9,54.7z M23.7,17.2l-1.8,1.2L20,15.7l2.3-1.6L23.7,17.2z M20.5,19.4l-2.1,1.4L16.6,18l2.1-1.4L20.5,19.4
	z M17.1,21.7L15.2,23l-1.8-2.8l1.9-1.3L17.1,21.7z M28.7,14.8l-1.2-3.1l2.5-1l1.2,3.1L28.7,14.8z M33.1,9.5c0.2-0.1,0.4-0.1,0.6,0
	c0.2,0.1,0.4,0.3,0.4,0.5l0.6,1.6c0,0.1,0.1,0.2,0.1,0.3c0,0.1,0,0.2-0.1,0.3c0,0.1-0.1,0.2-0.2,0.3c-0.1,0.1-0.2,0.1-0.3,0.2
	l-1.6,0.6l-1.2-3.1L33.1,9.5z M25.9,12.3l1.2,3.1l-1.3,0.5c-0.2,0.1-0.5,0.2-0.7,0.3l-1.4-3.1c0,0,0.1-0.1,0.1-0.1L25.9,12.3z
	 M-8.2,34.5l-0.6-0.3C-9,34.1-9.1,34-9.2,33.8c-0.1-0.2-0.1-0.4,0-0.6l1.4-3.4c0.1-0.2,0.2-0.3,0.3-0.4c0.1-0.1,0.3-0.1,0.5-0.1h1.4
	c0.4,0,0.8-0.1,1.2-0.3c0.4-0.2,0.7-0.5,0.9-0.8l4.7-6.8c0.1-0.1,0.2-0.2,0.4-0.3c0.1-0.1,0.3-0.1,0.5-0.1l3.4,0.6
	c0.5,0.1,1.1,0,1.5-0.2l3.2-1.6c0.2-0.1,0.4-0.1,0.6-0.1c0.2,0.1,0.4,0.2,0.5,0.3l3.3,5c0.1,0.2,0.2,0.4,0.1,0.6
	c0,0.2-0.2,0.4-0.3,0.5l-1.2,0.9c-0.4,0.3-0.7,0.7-0.9,1.2c-0.2,0.5-0.2,1,0,1.5l1.2,4.2c0.1,0.2,0,0.4,0,0.6l-1.6,3.8
	c-0.1,0.2-0.2,0.4-0.4,0.4s-0.4,0.1-0.6,0l-8.3-3.3c-0.6-0.2-1.3-0.2-1.9,0c-0.6,0.3-1.1,0.8-1.3,1.4l-6.2,15.9
	c0,0.1-0.1,0.2-0.2,0.3c-0.1,0.1-0.2,0.1-0.3,0.2c-0.1,0-0.2,0.1-0.3,0c-0.1,0-0.2,0-0.3-0.1l-3.2-1.6c-0.2-0.1-0.3-0.2-0.4-0.4
	c-0.1-0.2-0.1-0.4,0-0.6l4.8-13c0.2-0.6,0.2-1.2,0-1.8C-7.2,35.3-7.6,34.8-8.2,34.5z"/>
<path class="st1" d="M35.2,25.1h-1.7c-0.7,0-1.3,0.6-1.3,1.3v4.2c0,0.2-0.2,0.3-0.3,0.3h-1.7c-0.2,0-0.3-0.2-0.3-0.3v-4.2
	c0-1.2-1-2.2-2.2-2.2H14.1c-0.2,0-0.3-0.2-0.3-0.3v-1.7c0-0.2,0.2-0.3,0.3-0.3h4.2c0.7,0,1.3-0.6,1.3-1.3v-0.8
	c0-2.1-1.7-3.9-3.9-3.9H7.3c-2.1,0-3.9,1.7-3.9,3.9v0.8c0,0.7,0.6,1.3,1.3,1.3H9c0.2,0,0.3,0.2,0.3,0.3v1.7c0,0.2-0.2,0.3-0.3,0.3
	H8.1c-0.6,0-1.2,0.2-1.7,0.5L0.1,29c-0.3,0.2-0.7,0.3-1.1,0.3h-2.6c-1.2,0-2.2,1-2.2,2.2v5.9c0,0.2-0.2,0.3-0.3,0.3h-2.5
	c-0.2,0-0.3-0.2-0.3-0.3v-4.2c0-0.7-0.6-1.3-1.3-1.3h-1.7c-0.7,0-1.3,0.6-1.3,1.3v13.5c0,0.7,0.6,1.3,1.3,1.3h1.7
	c0.7,0,1.3-0.6,1.3-1.3v-4.2c0-0.2,0.2-0.3,0.3-0.3h2.5c0.2,0,0.3,0.2,0.3,0.3v5.1c0,1.2,1,2.2,2.2,2.2h17.7c0.7,0,1.3-0.2,1.8-0.6
	l8.8-6.6c0.4-0.3,0.8-0.4,1.2-0.4h1.7c1.2,0,2.2-1,2.2-2.2v-4.2c0-0.2,0.2-0.3,0.3-0.3h1.7c0.2,0,0.3,0.2,0.3,0.3V40
	c0,0.7,0.6,1.3,1.3,1.3h1.7c0.7,0,1.3-0.6,1.3-1.3V26.4C36.5,25.7,35.9,25.1,35.2,25.1L35.2,25.1z M-10.1,46.7
	c0,0.2-0.2,0.3-0.3,0.3h-1.7c-0.2,0-0.3-0.2-0.3-0.3V33.2c0-0.2,0.2-0.3,0.3-0.3h1.7c0.2,0,0.3,0.2,0.3,0.3V46.7z M-5.9,40.8
	c0,0.2-0.2,0.3-0.3,0.3h-2.5c-0.2,0-0.3-0.2-0.3-0.3v-1.7c0-0.2,0.2-0.3,0.3-0.3h2.5c0.2,0,0.3,0.2,0.3,0.3V40.8z M4.8,20.9
	c-0.2,0-0.3-0.2-0.3-0.3v-0.8c0-1.6,1.3-2.9,2.9-2.9h8.4c1.6,0,2.9,1.3,2.9,2.9v0.8c0,0.2-0.2,0.3-0.3,0.3H4.8z M12.7,22.2v1.7
	c0,0.2-0.2,0.3-0.3,0.3h-1.7c-0.2,0-0.3-0.2-0.3-0.3v-1.7c0-0.2,0.2-0.3,0.3-0.3h1.7C12.6,21.9,12.7,22,12.7,22.2z M28.8,40
	c0,0.7-0.5,1.2-1.2,1.2h-1.7c-0.7,0-1.3,0.2-1.8,0.6l-8.8,6.6c-0.3,0.3-0.8,0.4-1.2,0.4H-3.7c-0.7,0-1.2-0.5-1.2-1.2V31.5
	c0-0.7,0.5-1.2,1.2-1.2h2.6c0.6,0,1.2-0.2,1.7-0.5l6.3-4.2c0.3-0.2,0.7-0.3,1.1-0.3h19.5c0.7,0,1.2,0.5,1.2,1.2V40z M32.2,34
	c0,0.2-0.2,0.3-0.3,0.3h-1.7c-0.2,0-0.3-0.2-0.3-0.3v-1.7c0-0.2,0.2-0.3,0.3-0.3h1.7c0.2,0,0.3,0.2,0.3,0.3V34z M35.5,40
	c0,0.2-0.2,0.3-0.3,0.3h-1.7c-0.2,0-0.3-0.2-0.3-0.3V26.4c0-0.2,0.2-0.3,0.3-0.3h1.7c0.2,0,0.3,0.2,0.3,0.3V40z"/>
<g class="st2">
	<path class="st3" d="M11.5,10.9c-6.6,0-12.9,2.6-17.6,7.3l0,0c0,0,0,0,0,0c0,0,0,0,0,0l0,0c-4.7,4.7-7.3,10.9-7.3,17.6
		c0,6,2.2,11.8,6.1,16.4c0.2,0.3,0.7,0.3,1,0.1l5.4-4.5c0.1-0.1,0.2-0.3,0.2-0.5c0-0.2,0-0.4-0.2-0.5c-2.7-3-4.1-6.9-4.1-10.9
		c0-9.1,7.4-16.5,16.6-16.5c3.8,0,7.5,1.3,10.5,3.7c0.2,0.2,0.4,0.2,0.6,0.1c0.2-0.1,0.5-0.3,0.5-0.6c0-0.2-0.1-0.4-0.3-0.6
		c-2.8-2.3-6.4-3.7-10-4l-0.6,0v-5.6l0.7,0C25.4,13,35.2,23.4,35.2,35.8c0,5.2-1.7,10.3-4.9,14.4l-0.4,0.6l-4.3-3.6l0.4-0.5
		c2.3-3.1,3.6-6.9,3.6-10.8c0-1.7-0.2-3.5-0.7-5.1c-0.2-0.6-0.7-0.5-0.8-0.5c-0.1,0-0.7,0.2-0.5,0.8c0.5,1.5,0.7,3.1,0.7,4.7
		c0,4-1.5,7.9-4.1,10.9c-0.1,0.1-0.2,0.3-0.2,0.5c0,0.2,0.1,0.4,0.2,0.5l5.4,4.5c0.3,0.2,0.7,0.2,1-0.1c4-4.5,6.1-10.3,6.1-16.3
		C36.5,22,25.3,10.9,11.5,10.9z M-2.8,46.6l0.4,0.5l-4.3,3.6l-0.4-0.6c-2.9-3.7-4.6-8.2-4.9-13l0-0.7h5.7l0,0.6
		C-6.1,40.5-4.9,43.8-2.8,46.6L-2.8,46.6z M-2.1,24.1c-2.5,2.9-4,6.5-4.3,10.4l0,0.6h-5.7l0-0.7c0.3-5.3,2.4-10.2,5.9-14.2l0.5-0.5
		l4,4L-2.1,24.1z M10.8,17.9l-0.6,0c-3.9,0.3-7.5,1.8-10.4,4.3l-0.5,0.4l-4-4l0.5-0.5c4-3.5,8.9-5.6,14.2-5.9l0.7,0L10.8,17.9
		L10.8,17.9z"/>
	<path class="st3" d="M26.8,24.3c-0.1,0-0.2,0-0.4,0.1c-7.6,5-16.8,11.3-17.8,12.3c-0.7,0.7-1.2,1.7-1.2,2.8c0,1,0.4,2,1.1,2.8
		c1.5,1.5,4,1.5,5.6,0c1.2-1.2,11.2-14.2,13.2-16.8c0.3-0.4,0-0.8-0.1-0.9C27.1,24.4,27,24.3,26.8,24.3L26.8,24.3z M21.2,31.2
		c-2.7,3.4-7.2,9.3-8,10.1c-0.5,0.5-1.1,0.8-1.8,0.8c-0.2,0-0.4,0-0.6-0.1c-0.9-0.2-1.7-1-1.9-1.9c-0.2-0.9,0-1.7,0.7-2.4
		c0.6-0.6,4.1-3.1,10.7-7.4l3.5-2.4L21.2,31.2L21.2,31.2z"/>
	<path class="st3" d="M6.8,49.5h9.5c0.6,0,0.7-0.6,0.7-0.7c0-0.1,0-0.7-0.7-0.7H6.8c-0.6,0-0.7,0.6-0.7,0.7
		C6.1,48.9,6.2,49.5,6.8,49.5z"/>
	<path class="st3" d="M23.1,53.3H-0.1c-0.6,0-0.7,0.6-0.7,0.7c0,0.1,0,0.7,0.7,0.7h23.2c0.6,0,0.7-0.6,0.7-0.7
		C23.8,53.9,23.8,53.3,23.1,53.3z"/>
</g>
<g class="st2">
	<path class="st3" d="M11.5,10.9c-6.6,0-12.9,2.6-17.6,7.3l0,0c0,0,0,0,0,0c0,0,0,0,0,0l0,0c-4.7,4.7-7.3,10.9-7.3,17.6
		c0,6,2.2,11.8,6.1,16.4c0.2,0.3,0.7,0.3,1,0.1l5.4-4.5c0.1-0.1,0.2-0.3,0.2-0.5c0-0.2,0-0.4-0.2-0.5c-2.7-3-4.1-6.9-4.1-10.9
		c0-9.1,7.4-16.5,16.6-16.5c3.8,0,7.5,1.3,10.5,3.7c0.2,0.2,0.4,0.2,0.6,0.1c0.2-0.1,0.5-0.3,0.5-0.6c0-0.2-0.1-0.4-0.3-0.6
		c-2.8-2.3-6.4-3.7-10-4l-0.6,0v-5.6l0.7,0C25.4,13,35.2,23.4,35.2,35.8c0,5.2-1.7,10.3-4.9,14.4l-0.4,0.6l-4.3-3.6l0.4-0.5
		c2.3-3.1,3.6-6.9,3.6-10.8c0-1.7-0.2-3.5-0.7-5.1c-0.2-0.6-0.7-0.5-0.8-0.5c-0.1,0-0.7,0.2-0.5,0.8c0.5,1.5,0.7,3.1,0.7,4.7
		c0,4-1.5,7.9-4.1,10.9c-0.1,0.1-0.2,0.3-0.2,0.5c0,0.2,0.1,0.4,0.2,0.5l5.4,4.5c0.3,0.2,0.7,0.2,1-0.1c4-4.5,6.1-10.3,6.1-16.3
		C36.5,22,25.3,10.9,11.5,10.9z M-2.8,46.6l0.4,0.5l-4.3,3.6l-0.4-0.6c-2.9-3.7-4.6-8.2-4.9-13l0-0.7h5.7l0,0.6
		C-6.1,40.5-4.9,43.8-2.8,46.6L-2.8,46.6z M-2.1,24.1c-2.5,2.9-4,6.5-4.3,10.4l0,0.6h-5.7l0-0.7c0.3-5.3,2.4-10.2,5.9-14.2l0.5-0.5
		l4,4L-2.1,24.1z M10.8,17.9l-0.6,0c-3.9,0.3-7.5,1.8-10.4,4.3l-0.5,0.4l-4-4l0.5-0.5c4-3.5,8.9-5.6,14.2-5.9l0.7,0L10.8,17.9
		L10.8,17.9z"/>
	<path class="st3" d="M26.8,24.3c-0.1,0-0.2,0-0.4,0.1c-7.6,5-16.8,11.3-17.8,12.3c-0.7,0.7-1.2,1.7-1.2,2.8c0,1,0.4,2,1.1,2.8
		c1.5,1.5,4,1.5,5.6,0c1.2-1.2,11.2-14.2,13.2-16.8c0.3-0.4,0-0.8-0.1-0.9C27.1,24.4,27,24.3,26.8,24.3L26.8,24.3z M21.2,31.2
		c-2.7,3.4-7.2,9.3-8,10.1c-0.5,0.5-1.1,0.8-1.8,0.8c-0.2,0-0.4,0-0.6-0.1c-0.9-0.2-1.7-1-1.9-1.9c-0.2-0.9,0-1.7,0.7-2.4
		c0.6-0.6,4.1-3.1,10.7-7.4l3.5-2.4L21.2,31.2L21.2,31.2z"/>
	<path class="st3" d="M6.8,49.5h9.5c0.6,0,0.7-0.6,0.7-0.7c0-0.1,0-0.7-0.7-0.7H6.8c-0.6,0-0.7,0.6-0.7,0.7
		C6.1,48.9,6.2,49.5,6.8,49.5z"/>
	<path class="st3" d="M23.1,53.3H-0.1c-0.6,0-0.7,0.6-0.7,0.7c0,0.1,0,0.7,0.7,0.7h23.2c0.6,0,0.7-0.6,0.7-0.7
		C23.8,53.9,23.8,53.3,23.1,53.3z"/>
</g>
<g class="st2">
	<path class="st3" d="M11.5,7.8c-13.8,0-25,11.2-25,25s11.2,25,25,25s25-11.2,25-25S25.3,7.8,11.5,7.8z M11.5,56.2
		c-12.9,0-23.4-10.5-23.4-23.4c0-12.9,10.5-23.4,23.4-23.4s23.4,10.5,23.4,23.4S24.4,56.2,11.5,56.2L11.5,56.2z"/>
	<path class="st3" d="M7.5,50.6c-0.3,0-0.5-0.1-0.7-0.2C6,50,5.7,49.2,5.9,48.5l3.4-12H1.4c-0.6,0-1.2-0.4-1.5-0.9
		c-0.3-0.6-0.2-1.3,0.2-1.8l14.1-18.2c0.5-0.6,1.4-0.8,2.1-0.5c0.7,0.4,1.1,1.2,0.8,1.9l-3.4,12h7.9c0.6,0,1.2,0.4,1.5,0.9
		c0.3,0.6,0.2,1.3-0.2,1.8L8.8,49.9C8.5,50.3,8,50.6,7.5,50.6z M15.6,16.3c-0.1,0-0.2,0-0.3,0.1L1.2,34.6c-0.1,0.1-0.1,0.3,0,0.4
		c0.1,0.1,0.2,0.2,0.3,0.2h9.6L7.2,48.8c0,0.2,0,0.3,0.2,0.4c0.2,0.1,0.3,0,0.4-0.1L21.9,31c0.1-0.1,0.1-0.3,0-0.4
		c-0.1-0.1-0.2-0.2-0.3-0.2H12l3.9-13.7c0-0.2,0-0.3-0.2-0.4C15.7,16.3,15.6,16.3,15.6,16.3L15.6,16.3z"/>
</g>
<g class="st2">
	<path class="st4" d="M25,49c13.3,0,24-10.7,24-24S38.3,1,25,1S1,11.7,1,25S11.7,49,25,49z"/>
	<path class="st5" d="M14.6,25H25v1.7H14.6V25z M12.9,20.7h8.7v1.7h-8.7V20.7z"/>
	<path class="st5" d="M37.1,25.5l-2.6-6.1c-0.1-0.2-0.2-0.3-0.3-0.4c-0.1-0.1-0.3-0.1-0.5-0.1h-2.6v-1.7c0-0.2-0.1-0.5-0.3-0.6
		c-0.2-0.2-0.4-0.3-0.6-0.3H16.3v1.7h13v10.9c-0.4,0.2-0.7,0.5-1,0.9c-0.3,0.4-0.5,0.8-0.6,1.2h-5.4c-0.2-0.8-0.7-1.5-1.4-2
		c-0.7-0.5-1.5-0.7-2.4-0.6c-0.8,0.1-1.6,0.5-2.2,1.1c-0.6,0.6-0.9,1.4-0.9,2.3s0.3,1.7,0.9,2.3c0.6,0.6,1.3,1,2.2,1.1
		c0.8,0.1,1.7-0.1,2.4-0.6c0.7-0.5,1.2-1.2,1.4-2h5.4c0.2,0.7,0.6,1.4,1.2,1.9c0.6,0.5,1.4,0.7,2.1,0.7c0.8,0,1.5-0.3,2.1-0.7
		c0.6-0.5,1-1.1,1.2-1.9h1.9c0.2,0,0.5-0.1,0.6-0.3c0.2-0.2,0.3-0.4,0.3-0.6v-6.1C37.1,25.7,37.1,25.6,37.1,25.5z M18.9,33.7
		c-0.3,0-0.7-0.1-1-0.3c-0.3-0.2-0.5-0.5-0.6-0.8c-0.1-0.3-0.2-0.7-0.1-1c0.1-0.3,0.2-0.6,0.5-0.9c0.2-0.2,0.6-0.4,0.9-0.5
		c0.3-0.1,0.7,0,1,0.1c0.3,0.1,0.6,0.4,0.8,0.6c0.2,0.3,0.3,0.6,0.3,1c0,0.5-0.2,0.9-0.5,1.2C19.8,33.5,19.4,33.7,18.9,33.7z
		 M31.1,20.7h2L35,25h-3.9V20.7z M31.1,33.7c-0.3,0-0.7-0.1-1-0.3c-0.3-0.2-0.5-0.5-0.6-0.8c-0.1-0.3-0.2-0.7-0.1-1
		c0.1-0.3,0.2-0.6,0.5-0.9c0.2-0.2,0.6-0.4,0.9-0.5c0.3-0.1,0.7,0,1,0.1c0.3,0.1,0.6,0.4,0.8,0.6s0.3,0.6,0.3,1
		c0,0.5-0.2,0.9-0.5,1.2C32,33.5,31.5,33.7,31.1,33.7z M35.4,31.1h-1c-0.2-0.7-0.6-1.4-1.2-1.9c-0.6-0.5-1.3-0.7-2.1-0.7v-1.7h4.3
		V31.1z"/>
</g>
<g class="st2">
	<path class="st4" d="M25,49c13.3,0,24-10.7,24-24S38.3,1,25,1S1,11.7,1,25S11.7,49,25,49z"/>
	<path class="st6" d="M24.7,13.3c-6.3,0-11.5,5.1-11.5,11.5v4.8c0,1.2,1,2.1,2.3,2.1h1.1c0.3,0,0.6-0.1,0.8-0.3
		c0.2-0.2,0.3-0.5,0.3-0.8v-5.9c0-0.3-0.1-0.6-0.3-0.8c-0.2-0.2-0.5-0.3-0.8-0.3h-1c0.6-4.4,4.5-7.9,9.1-7.9s8.4,3.4,9.1,7.9h-1
		c-0.3,0-0.6,0.1-0.8,0.3c-0.2,0.2-0.3,0.5-0.3,0.8v7c0,1.3-1,2.3-2.3,2.3H27v-1.1h-4.6v3.4h6.9c2.5,0,4.6-2.1,4.6-4.6
		c1.3,0,2.3-1,2.3-2.1v-4.8C36.2,18.4,31.1,13.3,24.7,13.3z"/>
</g>
<g class="st2">
	<path class="st4" d="M25,49c13.3,0,24-10.7,24-24S38.3,1,25,1S1,11.7,1,25S11.7,49,25,49z"/>
	<path class="st7" d="M33.6,25.9v-3.4c0-0.5-0.2-0.9-0.5-1.2c-0.3-0.3-0.8-0.5-1.2-0.5H15.5c-0.5,0-0.9,0.2-1.2,0.5
		c-0.3,0.3-0.5,0.8-0.5,1.2v12.1c0,0.5,0.2,0.9,0.5,1.2c0.3,0.3,0.8,0.5,1.2,0.5h16.4c0.5,0,0.9-0.2,1.2-0.5
		c0.3-0.3,0.5-0.8,0.5-1.2v-4.3 M19.6,16.4l9.8-2.6c0.1,0,0.2,0,0.3,0c0.1,0,0.2,0.1,0.3,0.1c0.1,0.1,0.2,0.1,0.3,0.2
		c0.1,0.1,0.1,0.2,0.1,0.3l0.5,1.9"/>
	<path class="st8" d="M35.3,25.9H31c-0.5,0-0.9,0.4-0.9,0.9v2.6c0,0.5,0.4,0.9,0.9,0.9h4.3c0.5,0,0.9-0.4,0.9-0.9v-2.6
		C36.2,26.2,35.8,25.9,35.3,25.9z"/>
</g>
<g>
	<path class="st9" d="M25,49c13.3,0,24-10.7,24-24S38.3,1,25,1S1,11.7,1,25S11.7,49,25,49z"/>
	<path class="st10" d="M25.3,13.3c0.4,0,0.9,0,1.3,0.1c0.4,0.1,0.8,0.1,1.2,0.3c0.4,0.1,0.8,0.3,1.1,0.4c0.4,0.2,0.7,0.4,1.1,0.6
		c0.6,0.4,1.2,0.7,1.9,1c1.2,0.5,2.6,0.8,3.9,0.9c0.7,0,1.4,0.1,2.1,0.1v6.7c0,1.3-0.2,2.5-0.5,3.6C37,28,36.6,29.1,36,30.2
		c-0.6,1-1.2,2-2,2.9c-0.8,0.9-1.6,1.8-2.5,2.6c-0.9,0.8-1.9,1.5-2.8,2.2c-1,0.7-2,1.3-3,1.9L25.3,40l-0.4-0.2c-1-0.6-2-1.2-3-1.9
		c-1-0.7-1.9-1.4-2.8-2.2c-0.9-0.8-1.7-1.6-2.5-2.6c-0.8-0.9-1.4-1.9-2-2.9c-0.6-1-1-2.1-1.3-3.2c-0.3-1.2-0.5-2.4-0.5-3.6v-6.7
		c0.7,0,1.4,0,2.1-0.1c0.7,0,1.3-0.1,2-0.3c0.6-0.1,1.3-0.3,1.9-0.6c0.7-0.3,1.3-0.6,1.9-1c0.7-0.5,1.5-0.8,2.2-1.1
		C23.6,13.4,24.4,13.3,25.3,13.3z M36.1,18.3c-1.3-0.1-2.5-0.3-3.7-0.6C31.2,17.3,30,16.7,29,16c-0.5-0.4-1.1-0.6-1.8-0.8
		c-0.6-0.2-1.3-0.3-1.9-0.3c-0.7,0-1.3,0.1-1.9,0.3c-0.6,0.2-1.2,0.5-1.8,0.8c-1.1,0.7-2.2,1.2-3.4,1.6c-1.2,0.3-2.4,0.6-3.7,0.6v5
		c0,1.1,0.1,2.2,0.4,3.2c0.3,1,0.7,2,1.2,2.9c0.5,0.9,1.1,1.8,1.8,2.6c0.7,0.8,1.4,1.6,2.2,2.3c0.8,0.7,1.6,1.4,2.5,2
		c0.9,0.6,1.8,1.2,2.7,1.7c0.9-0.5,1.8-1.1,2.7-1.7c0.9-0.6,1.7-1.3,2.5-2c0.8-0.7,1.5-1.5,2.2-2.3c0.7-0.8,1.3-1.7,1.8-2.6
		c0.5-0.9,0.9-1.9,1.2-2.9c0.3-1,0.4-2.1,0.4-3.2V18.3z"/>
	<defs>
		<filter id="Adobe_OpacityMaskFilter" filterUnits="userSpaceOnUse" x="10.9" y="11.4" width="28.8" height="30.7">
			<feColorMatrix  type="matrix" values="1 0 0 0 0  0 1 0 0 0  0 0 1 0 0  0 0 0 1 0"/>
		</filter>
	</defs>
	
		<mask maskUnits="userSpaceOnUse" x="10.9" y="11.4" width="28.8" height="30.7" id="path-2-inside-1_0_1_00000021813630819371035880000006743308420118736027_">
		<path class="st11" d="M25.3,13.3c0.4,0,0.9,0,1.3,0.1c0.4,0.1,0.8,0.1,1.2,0.3c0.4,0.1,0.8,0.3,1.1,0.4c0.4,0.2,0.7,0.4,1.1,0.6
			c0.6,0.4,1.2,0.7,1.9,1c1.2,0.5,2.6,0.8,3.9,0.9c0.7,0,1.4,0.1,2.1,0.1v6.7c0,1.3-0.2,2.5-0.5,3.6C37,28,36.6,29.1,36,30.2
			c-0.6,1-1.2,2-2,2.9c-0.8,0.9-1.6,1.8-2.5,2.6c-0.9,0.8-1.9,1.5-2.8,2.2c-1,0.7-2,1.3-3,1.9L25.3,40l-0.4-0.2c-1-0.6-2-1.2-3-1.9
			c-1-0.7-1.9-1.4-2.8-2.2c-0.9-0.8-1.7-1.6-2.5-2.6c-0.8-0.9-1.4-1.9-2-2.9c-0.6-1-1-2.1-1.3-3.2c-0.3-1.2-0.5-2.4-0.5-3.6v-6.7
			c0.7,0,1.4,0,2.1-0.1c0.7,0,1.3-0.1,2-0.3c0.6-0.1,1.3-0.3,1.9-0.6c0.7-0.3,1.3-0.6,1.9-1c0.7-0.5,1.5-0.8,2.2-1.1
			C23.6,13.4,24.4,13.3,25.3,13.3z M36.1,18.3c-1.3-0.1-2.5-0.3-3.7-0.6C31.2,17.3,30,16.7,29,16c-0.5-0.4-1.1-0.6-1.8-0.8
			c-0.6-0.2-1.3-0.3-1.9-0.3c-0.7,0-1.3,0.1-1.9,0.3c-0.6,0.2-1.2,0.5-1.8,0.8c-1.1,0.7-2.2,1.2-3.4,1.6c-1.2,0.3-2.4,0.6-3.7,0.6v5
			c0,1.1,0.1,2.2,0.4,3.2c0.3,1,0.7,2,1.2,2.9c0.5,0.9,1.1,1.8,1.8,2.6c0.7,0.8,1.4,1.6,2.2,2.3c0.8,0.7,1.6,1.4,2.5,2
			c0.9,0.6,1.8,1.2,2.7,1.7c0.9-0.5,1.8-1.1,2.7-1.7c0.9-0.6,1.7-1.3,2.5-2c0.8-0.7,1.5-1.5,2.2-2.3c0.7-0.8,1.3-1.7,1.8-2.6
			c0.5-0.9,0.9-1.9,1.2-2.9c0.3-1,0.4-2.1,0.4-3.2V18.3z"/>
	</mask>
	<path class="st12" d="M25.3,13.3l0,1.9l0,0h0V13.3z M26.5,13.4l-0.3,1.8l0,0l0,0L26.5,13.4z M27.7,13.6l-0.6,1.8l0,0l0,0L27.7,13.6
		z M28.8,14.1L28,15.7l0,0l0,0L28.8,14.1z M29.9,14.7l1-1.6l0,0l0,0L29.9,14.7z M31.8,15.7l-0.7,1.7l0,0l0,0L31.8,15.7z M35.7,16.5
		l0.1-1.9l0,0l0,0L35.7,16.5z M37.8,16.6h1.9v-1.9h-1.9V16.6z M37.3,26.9l-1.8-0.5l0,0l0,0L37.3,26.9z M36,30.2l-1.6-0.9l0,0
		L36,30.2z M34,33l-1.4-1.2l0,0L34,33z M31.5,35.6l1.2,1.4l0,0l0,0L31.5,35.6z M28.7,37.8l-1.1-1.5l0,0l0,0L28.7,37.8z M25.7,39.7
		l-0.9-1.6l0,0l0,0L25.7,39.7z M25.3,40l-1,1.6l1,0.6l1-0.6L25.3,40z M24.9,39.7l1-1.6l0,0l0,0L24.9,39.7z M21.9,37.8l1.1-1.5l0,0
		l0,0L21.9,37.8z M19,35.6l1.2-1.4l0,0L19,35.6z M16.5,33l1.4-1.2l0,0L16.5,33z M14.5,30.2L12.9,31l0,0l0,0L14.5,30.2z M13.2,26.9
		l-1.8,0.5l0,0l0,0L13.2,26.9z M12.7,23.3l1.9,0l0,0v0H12.7z M12.7,16.6v-1.9h-1.9v1.9H12.7z M14.8,16.5l-0.1-1.9l0,0L14.8,16.5z
		 M16.8,16.2l0.4,1.8l0,0l0,0L16.8,16.2z M18.7,15.7L18,13.9l0,0l0,0L18.7,15.7z M20.6,14.7l1,1.6l0,0L20.6,14.7z M22.8,13.6
		l-0.5-1.8l0,0l0,0L22.8,13.6z M36.1,18.3H38v-1.8l-1.8-0.1L36.1,18.3z M32.4,17.6l-0.5,1.8l0,0L32.4,17.6z M29,16l-1,1.6l0,0l0,0
		L29,16z M27.2,15.2l0.6-1.8l0,0l0,0L27.2,15.2z M25.3,14.9l0,1.9l0,0l0,0L25.3,14.9z M23.3,15.2l-0.5-1.8l0,0l0,0L23.3,15.2z
		 M21.6,16l1,1.6l0,0l0,0L21.6,16z M18.1,17.6l0.5,1.8l0,0l0,0L18.1,17.6z M14.4,18.3l-0.1-1.9l-1.8,0.1v1.8H14.4z M14.8,26.5L13,27
		l0,0l0,0L14.8,26.5z M16,29.4l-1.6,0.9l0,0L16,29.4z M17.8,32l-1.4,1.2l0,0L17.8,32z M20.1,34.3l1.3-1.4l0,0L20.1,34.3z M22.6,36.3
		l-1.1,1.5l0,0L22.6,36.3z M25.3,38l-0.9,1.6l0.9,0.5l0.9-0.5L25.3,38z M27.9,36.3l-1.1-1.5l0,0L27.9,36.3z M30.5,34.3l-1.3-1.4l0,0
		L30.5,34.3z M32.7,32l1.4,1.2l0,0L32.7,32z M34.5,29.4l1.6,0.9l0,0L34.5,29.4z M35.7,26.5L33.9,26l0,0l0,0L35.7,26.5z M36.1,23.3
		h-1.9v0v0L36.1,23.3z M25.3,15.1c0.4,0,0.7,0,1,0.1l0.6-3.7c-0.5-0.1-1.1-0.1-1.6-0.1V15.1z M26.3,15.2c0.3,0,0.6,0.1,0.8,0.2
		l1.1-3.6c-0.5-0.2-1-0.3-1.5-0.3L26.3,15.2z M27.2,15.4c0.3,0.1,0.6,0.2,0.9,0.3l1.6-3.4c-0.5-0.2-0.9-0.4-1.4-0.5L27.2,15.4z
		 M28,15.7c0.3,0.1,0.6,0.3,0.9,0.5l2-3.2c-0.4-0.2-0.8-0.5-1.3-0.7L28,15.7z M28.9,16.2c0.7,0.5,1.4,0.8,2.2,1.1l1.4-3.5
		c-0.5-0.2-1-0.5-1.6-0.8L28.9,16.2z M31.1,17.4c1.4,0.6,2.9,0.9,4.5,1l0.2-3.7c-1.1-0.1-2.3-0.3-3.3-0.7L31.1,17.4z M35.6,18.4
		c0.7,0.1,1.5,0.1,2.2,0.1v-3.7c-0.7,0-1.3,0-2-0.1L35.6,18.4z M35.9,16.6v6.7h3.7v-6.7H35.9z M35.9,23.3c0,1.1-0.1,2.1-0.4,3.1
		l3.6,1c0.4-1.3,0.6-2.7,0.6-4.1H35.9z M35.5,26.4c-0.3,1-0.7,1.9-1.2,2.8l3.3,1.8c0.6-1.2,1.1-2.4,1.5-3.6L35.5,26.4z M34.4,29.3
		c-0.5,0.9-1.1,1.8-1.8,2.6l2.8,2.4c0.8-1,1.6-2.1,2.2-3.2L34.4,29.3z M32.6,31.8c-0.7,0.8-1.5,1.6-2.3,2.4l2.5,2.8
		c1-0.9,1.9-1.8,2.7-2.7L32.6,31.8z M30.3,34.2c-0.8,0.7-1.7,1.4-2.7,2.1l2.1,3.1c1.1-0.7,2.1-1.5,3-2.4L30.3,34.2z M27.6,36.3
		c-1,0.7-1.9,1.3-2.9,1.8l1.9,3.2c1-0.6,2.1-1.3,3.1-2L27.6,36.3z M24.7,38.1l-0.4,0.2l1.9,3.2l0.4-0.2L24.7,38.1z M26.2,38.4
		l-0.4-0.2l-1.9,3.2l0.4,0.2L26.2,38.4z M25.8,38.1c-1-0.6-2-1.2-2.9-1.8l-2.1,3.1c1,0.7,2.1,1.4,3.1,2L25.8,38.1z M22.9,36.3
		c-0.9-0.6-1.8-1.3-2.6-2.1L17.8,37c1,0.9,2,1.7,3,2.4L22.9,36.3z M20.3,34.2c-0.8-0.7-1.6-1.5-2.3-2.4l-2.9,2.4
		c0.8,1,1.7,1.9,2.7,2.7L20.3,34.2z M17.9,31.8c-0.7-0.8-1.3-1.7-1.8-2.6l-3.3,1.8c0.6,1.1,1.4,2.2,2.2,3.2L17.9,31.8z M16.2,29.3
		c-0.5-0.9-0.9-1.9-1.2-2.9l-3.6,1c0.4,1.3,0.9,2.5,1.5,3.6L16.2,29.3z M15,26.4c-0.3-1-0.4-2.1-0.4-3.1l-3.7,0
		c0,1.4,0.2,2.8,0.5,4.1L15,26.4z M14.6,23.3v-6.7h-3.7v6.7H14.6z M12.7,18.5c0.8,0,1.5,0,2.2-0.1l-0.3-3.7c-0.6,0-1.3,0.1-2,0.1
		V18.5z M15,18.4c0.8-0.1,1.5-0.2,2.3-0.3l-0.8-3.6c-0.6,0.1-1.1,0.2-1.7,0.2L15,18.4z M17.2,18.1c0.7-0.2,1.5-0.4,2.2-0.7L18,13.9
		c-0.5,0.2-1.1,0.4-1.6,0.5L17.2,18.1z M19.4,17.4c0.8-0.3,1.5-0.7,2.2-1.1l-2-3.1c-0.5,0.3-1,0.6-1.6,0.8L19.4,17.4z M21.6,16.2
		c0.6-0.4,1.2-0.7,1.8-0.8l-1.1-3.6c-0.9,0.3-1.8,0.7-2.7,1.3L21.6,16.2z M23.4,15.4c0.6-0.2,1.2-0.3,1.9-0.3l0-3.7
		c-1,0-2,0.1-3,0.4L23.4,15.4z M36.2,16.4c-1.1-0.1-2.2-0.2-3.3-0.6l-1.1,3.6c1.4,0.4,2.8,0.6,4.2,0.7L36.2,16.4z M32.9,15.8
		c-1-0.3-2-0.8-2.9-1.4l-2,3.1c1.2,0.8,2.5,1.4,3.9,1.8L32.9,15.8z M30,14.5c-0.7-0.5-1.4-0.8-2.2-1.1L26.6,17
		c0.5,0.1,0.9,0.4,1.3,0.6L30,14.5z M27.7,13.4c-0.8-0.2-1.6-0.4-2.5-0.4l0,3.7c0.5,0,0.9,0.1,1.4,0.2L27.7,13.4z M25.3,13.1
		c-0.8,0-1.7,0.1-2.5,0.4l1.1,3.6c0.5-0.1,0.9-0.2,1.4-0.2L25.3,13.1z M22.8,13.4c-0.8,0.2-1.6,0.6-2.3,1.1l2.1,3.1
		c0.4-0.3,0.8-0.5,1.3-0.6L22.8,13.4z M20.5,14.5c-0.9,0.6-1.9,1-2.9,1.4l1.1,3.6c1.4-0.4,2.7-1,3.9-1.8L20.5,14.5z M17.6,15.8
		c-1,0.3-2.1,0.5-3.3,0.6l0.2,3.7c1.4-0.1,2.8-0.3,4.1-0.7L17.6,15.8z M12.5,18.3v5h3.7v-5H12.5z M12.5,23.3c0,1.3,0.2,2.5,0.5,3.7
		l3.6-1c-0.2-0.8-0.4-1.7-0.4-2.7H12.5z M13,27c0.3,1.1,0.8,2.2,1.4,3.3l3.3-1.8c-0.4-0.8-0.8-1.7-1-2.5L13,27z M14.4,30.3
		c0.6,1,1.2,2,2,2.9l2.9-2.4c-0.6-0.7-1.1-1.5-1.6-2.3L14.4,30.3z M16.4,33.2c0.8,0.9,1.6,1.7,2.4,2.5l2.5-2.8
		c-0.7-0.7-1.4-1.4-2.1-2.1L16.4,33.2z M18.8,35.7c0.9,0.8,1.8,1.5,2.7,2.2l2.2-3.1c-0.8-0.6-1.6-1.2-2.3-1.9L18.8,35.7z M21.5,37.9
		c0.9,0.7,1.9,1.2,2.8,1.8l1.9-3.2c-0.8-0.5-1.7-1-2.5-1.6L21.5,37.9z M26.2,39.7c1-0.6,1.9-1.2,2.8-1.8l-2.1-3.1
		c-0.8,0.6-1.7,1.1-2.5,1.6L26.2,39.7z M29,37.9c0.9-0.7,1.9-1.4,2.7-2.2l-2.5-2.8c-0.7,0.7-1.5,1.3-2.3,1.9L29,37.9z M31.7,35.7
		c0.9-0.8,1.7-1.6,2.4-2.5l-2.8-2.4c-0.6,0.8-1.3,1.5-2.1,2.1L31.7,35.7z M34.1,33.2c0.8-0.9,1.4-1.9,2-2.9l-3.3-1.8
		c-0.5,0.8-1,1.6-1.6,2.3L34.1,33.2z M36.1,30.3c0.6-1,1-2.2,1.3-3.3l-3.6-1c-0.2,0.9-0.6,1.7-1,2.5L36.1,30.3z M37.5,27
		c0.3-1.2,0.5-2.5,0.5-3.7l-3.7,0c0,0.9-0.1,1.8-0.4,2.7L37.5,27z M38,23.3v-5h-3.7v5H38z"/>
	<path class="st13" d="M29.8,22.8l-0.5-0.4l-0.5,0l-5.2,5.8l-1.8-2.4l-0.5-0.1l-0.5,0.4l-0.1,0.5l2.3,3.1l0.3,0.1l0.5,0l0.3-0.1
		l5.7-6.5L29.8,22.8z"/>
</g>
</svg>
