<?xml version="1.0" encoding="utf-8"?>
<!-- Generator: Adobe Illustrator 27.6.1, SVG Export Plug-In . SVG Version: 6.00 Build 0)  -->
<svg version="1.1" id="Capa_1" xmlns="http://www.w3.org/2000/svg" xmlns:xlink="http://www.w3.org/1999/xlink" x="0px" y="0px"
	 viewBox="0 0 25 25" style="enable-background:new 0 0 25 25;" xml:space="preserve">
<style type="text/css">
	.st0{fill-rule:evenodd;clip-rule:evenodd;fill:#393E46;}
</style>
<path class="st0" d="M25,23.6c0,0.8-0.6,1.4-1.4,1.4h-6.4v-9.7h3.2l0.5-3.8h-3.7V9.1c0-1.1,0.3-1.8,1.9-1.8h2V3.9
	c-0.3,0-1.5-0.1-2.9-0.1c-2.9,0-4.9,1.8-4.9,5v2.8H10v3.8h3.3V25h-12C0.6,25,0,24.4,0,23.6V1.4C0,0.6,0.6,0,1.4,0h22.2
	C24.4,0,25,0.6,25,1.4V23.6z"/>
</svg>
