<?xml version="1.0" encoding="utf-8"?>
<!-- Generator: Adobe Illustrator 26.0.0, SVG Export Plug-In . SVG Version: 6.00 Build 0)  -->
<svg version="1.1" id="Capa_1" xmlns="http://www.w3.org/2000/svg" xmlns:xlink="http://www.w3.org/1999/xlink" x="0px" y="0px"
	 viewBox="0 0 345 345" style="enable-background:new 0 0 345 345;" xml:space="preserve">
<style type="text/css">
	.st0{fill:#FFFFFF;}
	.st1{fill-rule:evenodd;clip-rule:evenodd;fill:#FFFFFF;}
</style>
<path class="st0" d="M198.8,295.3c6,0,11.8,2.4,16.1,6.8c4.3,4.3,6.7,10.2,6.7,16.3c0,6.1-2.4,12-6.7,16.3
	c-4.3,4.3-10.1,6.8-16.1,6.8s-11.8-2.4-16.1-6.8c-4.3-4.3-6.7-10.2-6.7-16.3C176.1,305.6,186.2,295.3,198.8,295.3z M16.9,110.3H54
	l10.7,23.1h168.2c3,0,5.9,1.2,8,3.4c2.1,2.2,3.3,5.1,3.3,8.2c0,2-0.6,3.9-1.4,5.8l-40.7,74.8c-3.9,7.1-11.4,11.9-19.9,11.9H97.6
	l-10.2,18.8l-0.3,1.4c0,0.8,0.3,1.5,0.8,2c0.5,0.5,1.3,0.8,2,0.8h131.7v23.1H85.1c-6,0-11.8-2.4-16.1-6.8
	c-4.3-4.3-6.7-10.2-6.7-16.3c0-4,1-7.9,2.7-11.1l15.5-28.3l-40.9-87.7H16.9V110.3z M85.1,295.3c6,0,11.8,2.4,16.1,6.8
	c4.3,4.3,6.7,10.2,6.7,16.3c0,6.1-2.4,12-6.7,16.3c-4.3,4.3-10,6.8-16.1,6.8c-6,0-11.8-2.4-16.1-6.8c-4.3-4.3-6.7-10.2-6.7-16.3
	C62.3,305.6,72.5,295.3,85.1,295.3z M187.4,214.4l31.6-57.8H75.3l26.8,57.8H187.4z"/>
<path class="st1" d="M251.8,3.4c42.2,0,76.3,34.2,76.3,76.3s-34.2,76.3-76.3,76.3s-76.3-34.2-76.3-76.3S209.6,3.4,251.8,3.4z
	 M262.7,68.9V43.4h-21.8v25.4h-25.5v21.8h25.5v25.4h21.8V90.7h25.4V68.9H262.7z"/>
</svg>
