<?xml version="1.0" encoding="utf-8"?>
<!-- Generator: Adobe Illustrator 26.0.0, SVG Export Plug-In . SVG Version: 6.00 Build 0)  -->
<svg version="1.1" id="Capa_1" xmlns="http://www.w3.org/2000/svg" xmlns:xlink="http://www.w3.org/1999/xlink" x="0px" y="0px"
	 viewBox="0 0 117.1 117.1" style="enable-background:new 0 0 117.1 117.1;" xml:space="preserve">
<path d="M58.5,0C26.2,0,0,26.2,0,58.5c0,32.3,26.2,58.5,58.5,58.5c32.3,0,58.5-26.3,58.5-58.5C117.1,26.2,90.8,0,58.5,0z M69.1,72.6
	L86.5,90c-7.1,6.3-16,10-25.5,10.6V76C63.9,75.6,66.7,74.4,69.1,72.6z M61,41.1V16.5c9.5,0.5,18.4,4.2,25.5,10.6L69.1,44.5
	C66.7,42.7,63.9,41.5,61,41.1z M72.6,69.1c1.8-2.4,3-5.2,3.4-8.1h24.6c-0.6,9.5-4.2,18.4-10.6,25.5L72.6,69.1z M75.9,56.1
	c-0.4-3-1.6-5.8-3.4-8.2l17.4-17.4c6.3,7.1,10,16,10.6,25.6H75.9z M41.1,61c0.4,3,1.6,5.7,3.4,8.1L27.1,86.5
	c-6.3-7.1-10-16-10.6-25.5H41.1z M16.5,56.1c0.5-9.5,4.2-18.4,10.6-25.6l17.4,17.4c-1.8,2.4-3,5.2-3.4,8.2H16.5z M47.9,72.6
	c2.4,1.8,5.2,3,8.2,3.4v24.6C46.6,100,37.7,96.3,30.6,90L47.9,72.6z M47.9,44.5L30.5,27.1c7.1-6.3,16-10,25.6-10.6v24.6
	C53.1,41.5,50.3,42.7,47.9,44.5z"/>
</svg>
