<?xml version="1.0" encoding="utf-8"?>
<!-- Generator: Adobe Illustrator 27.6.1, SVG Export Plug-In . SVG Version: 6.00 Build 0)  -->
<svg version="1.1" id="Capa_1" xmlns="http://www.w3.org/2000/svg" xmlns:xlink="http://www.w3.org/1999/xlink" x="0px" y="0px"
	 viewBox="0 0 50 50" style="enable-background:new 0 0 50 50;" xml:space="preserve">
<style type="text/css">
	.st0{fill:#222831;}
</style>
<path class="st0" d="M25,23.7c-2.3,0-4.5-0.7-6.5-1.9c-1.9-1.2-3.4-3-4.3-5.1c-0.9-2.1-1.1-4.4-0.7-6.6s1.6-4.2,3.2-5.8
	c1.6-1.6,3.7-2.7,5.9-3.1s4.6-0.2,6.7,0.6c2.1,0.9,3.9,2.3,5.2,4.2c1.3,1.9,2,4.1,2,6.3c0,3-1.2,5.9-3.4,8
	C31,22.5,28.1,23.7,25,23.7z M25,5.5c-1.4,0-2.7,0.4-3.9,1.1c-1.1,0.7-2,1.8-2.6,3.1c-0.5,1.2-0.7,2.6-0.4,3.9s0.9,2.5,1.9,3.5
	c1,1,2.2,1.6,3.6,1.9c1.4,0.3,2.8,0.1,4-0.4c1.3-0.5,2.4-1.4,3.1-2.5c0.8-1.1,1.2-2.4,1.2-3.8c0-1.8-0.7-3.5-2-4.8S26.8,5.5,25,5.5z
	 M46.7,49c-0.6,0-1.2-0.3-1.6-0.9c-0.4-0.6-0.7-1.4-0.7-2.2c0-8-3.3-13.4-19.4-13.4S5.6,37.9,5.6,45.9c0,0.8-0.2,1.6-0.7,2.2
	c-0.4,0.6-1,0.9-1.6,0.9c-0.6,0-1.2-0.3-1.6-0.9S1,46.7,1,45.9c0-19.5,16.8-19.5,24-19.5s24,0,24,19.5c0,0.8-0.3,1.6-0.7,2.2
	C47.9,48.7,47.3,49,46.7,49z"/>
</svg>
