<?xml version="1.0" encoding="utf-8"?>
<!-- Generator: Adobe Illustrator 27.6.1, SVG Export Plug-In . SVG Version: 6.00 Build 0)  -->
<svg version="1.1" id="Capa_1" xmlns="http://www.w3.org/2000/svg" xmlns:xlink="http://www.w3.org/1999/xlink" x="0px" y="0px"
	 viewBox="0 0 48.8 33.3" style="enable-background:new 0 0 48.8 33.3;" xml:space="preserve">
<style type="text/css">
	.st0{display:none;fill:#E10203;}
	.st1{display:none;}
	.st2{display:inline;fill:#ED1D24;}
	.st3{display:inline;}
	.st4{clip-path:url(#SVGID_00000124128902221373100060000016969952709202695103_);}
	.st5{fill:#ED1D24;}
	.st6{clip-path:url(#SVGID_00000175322481583967941670000000062798000106730144_);}
</style>
<path class="st0" d="M-0.4,33.9c-0.2,0.6-0.2,1.2,0,1.8s0.7,1,1.2,1.3L4,38.6c0.5,0.2,1.1,0.3,1.6,0.2s1-0.4,1.4-0.8l8.5,3.4
	c0.5,0.2,1,0.3,1.5,0.2c0.5,0,1-0.1,1.4-0.3c0.5-0.2,0.9-0.5,1.2-0.9c0.3-0.4,0.6-0.8,0.8-1.3l5.9-16.4l1.6-3.8
	c0.2-0.5,0.3-1.1,0.1-1.7L26.8,13c0-0.2,0-0.3,0-0.5c0.1-0.2,0.2-0.3,0.3-0.4l1.2-0.9c0.5-0.4,0.8-0.9,0.9-1.4
	c0.1-0.6,0.1-1.2-0.2-1.7l9.6-6.6c0.2-0.1,0.4-0.3,0.7-0.4l8.5-3.3c0.3-0.1,0.6-0.3,0.8-0.5s0.4-0.5,0.6-0.8c0.1-0.3,0.2-0.6,0.2-1
	c0-0.3,0-0.7-0.2-1l-0.6-1.6c-0.2-0.3-0.7-0.8-1.3-1.1c-0.6-0.3-1.3-0.3-1.9-0.1l-9.3,3.6c-0.2,0.1-0.5,0.2-0.7,0.4l-10.2,7
	c-0.4-0.4-0.9-0.7-1.4-0.8c-0.5-0.1-1.1,0-1.6,0.2L19,3.7c-0.2,0.1-0.3,0.1-0.5,0.1l-3.4-0.6c-0.5-0.1-0.9,0-1.4,0.2
	c-0.4,0.2-0.8,0.5-1.1,0.9l-4.7,6.8c-0.1,0.1-0.2,0.2-0.3,0.3c-0.1,0.1-0.3,0.1-0.4,0.1H5.9c-0.5,0-1,0.1-1.4,0.4S3.8,12.6,3.6,13
	l-1.4,3.4c-0.3,0.6-0.3,1.2,0,1.8c0.1,0.6,0.6,1.1,1.2,1.4L4,19.9c0.2,0.1,0.3,0.2,0.4,0.4c0,0.2,0,0.4,0,0.6L-0.4,33.9z M17.9,31.1
	l-0.2-2.9c0-0.1,0-0.2,0.1-0.3s0.2-0.1,0.3-0.2l1-0.1L17.9,31.1z M19.8,25.9l-1.9,0.2c-0.5,0.1-1,0.3-1.4,0.8
	c-0.3,0.4-0.5,0.9-0.5,1.5l0.5,6.7l-0.4,1.1l-1.2-0.5l-0.5-7.2c-0.1-1,0.2-1.9,0.9-2.7c0.6-0.7,1.5-1.2,2.5-1.3l2.7-0.4L19.8,25.9z
	 M17.5,22.8c-1.4,0.2-2.6,0.9-3.5,1.9c-0.9,1.1-1.3,2.4-1.2,3.8l0.4,6.4L9,33.2l4.7-12.1c0.1-0.2,0.2-0.4,0.4-0.5s0.4-0.1,0.6,0
	l4.4,1.8L17.5,22.8z M18.8,38.6c-0.2,0.5-0.6,0.9-1.1,1.2c-0.5,0.2-1.1,0.3-1.6,0.1l-8.4-3.4l0.7-1.6l7.1,2.9c0.4,0.2,0.9,0.1,1.3,0
	c0.4-0.2,0.7-0.5,0.9-0.9L22.3,24l0.7,0.3c0.3,0.1,0.6,0.2,0.9,0.2L18.8,38.6z M36.5,1l-1.8,1.2l-1.8-2.8l2.3-1.6L36.5,1z M33.4,3.2
	l-2.1,1.4l-1.8-2.8l2.1-1.4L33.4,3.2z M29.9,5.6L28,6.9l-1.8-2.8l1.9-1.3L29.9,5.6z M41.5-1.4l-1.2-3.1l2.5-1l1.3,3.1L41.5-1.4z
	 M46-6.7c0.2-0.1,0.4-0.1,0.6,0C46.8-6.6,47-6.4,47-6.2l0.6,1.6c0,0.1,0.1,0.2,0.1,0.3c0,0.1,0,0.2-0.1,0.3c0,0.1-0.1,0.2-0.2,0.3
	c-0.1,0.1-0.2,0.1-0.3,0.2l-1.6,0.6l-1.1-3.2L46-6.7z M38.8-3.9L40-0.8l-1.3,0.5C38.5-0.2,38.2-0.1,38,0l-1.4-3.1l0.1-0.1L38.8-3.9z
	 M4.7,18.4l-0.6-0.3c-0.2-0.1-0.3-0.3-0.4-0.5s-0.1-0.4,0-0.6l1.5-3.4c0.1-0.2,0.2-0.3,0.3-0.4c0.1-0.1,0.3-0.1,0.5-0.1h1.4
	c0.4,0,0.8-0.1,1.2-0.3C9,12.6,9.3,12.3,9.5,12l4.7-6.8c0.1-0.1,0.2-0.2,0.4-0.3c0.1-0.1,0.3-0.1,0.5-0.1l3.4,0.6
	c0.5,0.1,1.1,0,1.5-0.2l3.2-1.6c0.2-0.1,0.4-0.1,0.6-0.1c0.2,0.1,0.4,0.2,0.5,0.3l3.3,5c0.1,0.2,0.2,0.4,0.1,0.6
	c0,0.2-0.2,0.4-0.3,0.5l-1.2,0.9c-0.4,0.3-0.7,0.7-0.9,1.2c-0.2,0.5-0.2,1,0,1.5l1.2,4.2c0.1,0.2,0,0.4,0,0.6l-1.6,3.8
	c-0.1,0.2-0.2,0.4-0.4,0.4c-0.2,0.1-0.4,0.1-0.6,0l-8.5-3.2c-0.6-0.2-1.3-0.2-1.9,0c-0.6,0.3-1.1,0.8-1.3,1.4L5.9,36.6
	c0,0.1-0.1,0.2-0.2,0.3S5.5,37,5.4,37.1c-0.1,0-0.2,0.1-0.3,0c-0.1,0-0.2,0-0.3-0.1l-3.2-1.6c-0.2-0.1-0.3-0.2-0.4-0.4
	s-0.1-0.4,0-0.6l4.8-13c0.2-0.6,0.2-1.2,0-1.8C5.7,19.1,5.2,18.6,4.7,18.4z"/>
<g class="st1">
	<path class="st2" d="M24.4-5.3C17.8-5.3,11.5-2.7,6.8,2l0,0l0,0l0,0l0,0C2,6.8-0.6,13-0.6,19.6c0,6,2.2,11.8,6.1,16.4
		c0.2,0.3,0.7,0.3,1,0.1l5.4-4.5c0.1-0.1,0.2-0.3,0.2-0.5s0-0.4-0.2-0.5c-2.6-3.1-4.1-7-4.1-11c0-9.1,7.4-16.5,16.6-16.5
		c3.8,0,7.5,1.3,10.5,3.7C35.1,7,35.3,7,35.5,6.9S36,6.6,36,6.3c0-0.2-0.1-0.4-0.3-0.6c-2.8-2.3-6.4-3.7-10-4h-0.6v-5.6h0.7
		C38.3-3.1,48,7.2,48,19.6c0,5.2-1.7,10.3-4.9,14.4l-0.4,0.6l-4.3-3.7l0.4-0.5c2.3-3.1,3.6-6.9,3.6-10.8c0-1.7-0.2-3.5-0.7-5.1
		C41.5,13.9,41,14,40.9,14s-0.7,0.2-0.5,0.8c0.5,1.5,0.7,3.1,0.7,4.7c0,4-1.5,7.9-4.1,10.9c-0.1,0.1-0.2,0.3-0.2,0.5
		s0.1,0.4,0.2,0.5l5.4,4.5c0.3,0.2,0.7,0.2,1-0.1c3.8-4.4,6-10.2,6-16.2C49.4,5.9,38.2-5.3,24.4-5.3z M10.1,30.4l0.4,0.5l-4.4,3.7
		L5.7,34c-2.9-3.7-4.6-8.2-4.9-13v-0.7h5.6v0.6C6.7,24.4,8,27.6,10.1,30.4L10.1,30.4z M10.8,7.9c-2.5,2.9-4,6.5-4.3,10.4v0.6H0.8
		v-0.7C1.1,12.9,3.2,8,6.7,4l0.5-0.5l4,4L10.8,7.9z M23.7,1.7h-0.6C19.2,2,15.6,3.5,12.7,6l-0.5,0.4l-4-4l0.5-0.5
		c4-3.5,8.9-5.6,14.2-5.9h0.7L23.7,1.7L23.7,1.7z"/>
	<path class="st2" d="M39.7,8.2c-0.1,0-0.2,0-0.4,0.1c-7.6,5-16.9,11.3-17.8,12.3c-0.7,0.7-1.2,1.7-1.2,2.8c0,1,0.4,2,1.1,2.8
		c1.5,1.5,4,1.5,5.6,0C28.2,25,38.2,12,40.2,9.4c0.3-0.4,0-0.8-0.1-0.9C40,8.3,39.8,8.2,39.7,8.2L39.7,8.2z M34,15.1
		c-2.7,3.4-7.2,9.3-8,10.1c-0.5,0.5-1.1,0.8-1.8,0.8c-0.2,0-0.4,0-0.6-0.1c-0.9-0.2-1.7-1-1.9-1.9c-0.2-0.9,0-1.7,0.7-2.4
		c0.6-0.6,4.1-3.1,10.7-7.4l3.5-2.4L34,15.1L34,15.1z"/>
	<path class="st2" d="M19.7,33.3h9.5c0.6,0,0.7-0.6,0.7-0.7c0-0.1,0-0.7-0.7-0.7h-9.5c-0.6,0-0.7,0.6-0.7,0.7S19,33.3,19.7,33.3z"/>
	<path class="st2" d="M36,37.1H12.8c-0.6,0-0.7,0.6-0.7,0.7c0,0.1,0,0.7,0.7,0.7H36c0.6,0,0.7-0.6,0.7-0.7S36.6,37.1,36,37.1z"/>
</g>
<g class="st1">
	<path class="st2" d="M24.4-5.3C17.8-5.3,11.5-2.7,6.8,2l0,0l0,0l0,0l0,0C2,6.8-0.6,13-0.6,19.6c0,6,2.2,11.8,6.1,16.4
		c0.2,0.3,0.7,0.3,1,0.1l5.4-4.5c0.1-0.1,0.2-0.3,0.2-0.5s0-0.4-0.2-0.5c-2.6-3.1-4.1-7-4.1-11c0-9.1,7.4-16.5,16.6-16.5
		c3.8,0,7.5,1.3,10.5,3.7C35.1,7,35.3,7,35.5,6.9S36,6.6,36,6.3c0-0.2-0.1-0.4-0.3-0.6c-2.8-2.3-6.4-3.7-10-4h-0.6v-5.6h0.7
		C38.3-3.1,48,7.2,48,19.6c0,5.2-1.7,10.3-4.9,14.4l-0.4,0.6l-4.3-3.7l0.4-0.5c2.3-3.1,3.6-6.9,3.6-10.8c0-1.7-0.2-3.5-0.7-5.1
		C41.5,13.9,41,14,40.9,14s-0.7,0.2-0.5,0.8c0.5,1.5,0.7,3.1,0.7,4.7c0,4-1.5,7.9-4.1,10.9c-0.1,0.1-0.2,0.3-0.2,0.5
		s0.1,0.4,0.2,0.5l5.4,4.5c0.3,0.2,0.7,0.2,1-0.1c3.8-4.4,6-10.2,6-16.2C49.4,5.9,38.2-5.3,24.4-5.3z M10.1,30.4l0.4,0.5l-4.4,3.7
		L5.7,34c-2.9-3.7-4.6-8.2-4.9-13v-0.7h5.6v0.6C6.7,24.4,8,27.6,10.1,30.4L10.1,30.4z M10.8,7.9c-2.5,2.9-4,6.5-4.3,10.4v0.6H0.8
		v-0.7C1.1,12.9,3.2,8,6.7,4l0.5-0.5l4,4L10.8,7.9z M23.7,1.7h-0.6C19.2,2,15.6,3.5,12.7,6l-0.5,0.4l-4-4l0.5-0.5
		c4-3.5,8.9-5.6,14.2-5.9h0.7L23.7,1.7L23.7,1.7z"/>
	<path class="st2" d="M39.7,8.2c-0.1,0-0.2,0-0.4,0.1c-7.6,5-16.9,11.3-17.8,12.3c-0.7,0.7-1.2,1.7-1.2,2.8c0,1,0.4,2,1.1,2.8
		c1.5,1.5,4,1.5,5.6,0C28.2,25,38.2,12,40.2,9.4c0.3-0.4,0-0.8-0.1-0.9C40,8.3,39.8,8.2,39.7,8.2L39.7,8.2z M34,15.1
		c-2.7,3.4-7.2,9.3-8,10.1c-0.5,0.5-1.1,0.8-1.8,0.8c-0.2,0-0.4,0-0.6-0.1c-0.9-0.2-1.7-1-1.9-1.9c-0.2-0.9,0-1.7,0.7-2.4
		c0.6-0.6,4.1-3.1,10.7-7.4l3.5-2.4L34,15.1L34,15.1z"/>
	<path class="st2" d="M19.7,33.3h9.5c0.6,0,0.7-0.6,0.7-0.7c0-0.1,0-0.7-0.7-0.7h-9.5c-0.6,0-0.7,0.6-0.7,0.7S19,33.3,19.7,33.3z"/>
	<path class="st2" d="M36,37.1H12.8c-0.6,0-0.7,0.6-0.7,0.7c0,0.1,0,0.7,0.7,0.7H36c0.6,0,0.7-0.6,0.7-0.7S36.6,37.1,36,37.1z"/>
</g>
<g class="st1">
	<path class="st2" d="M24.4-8.4c-13.8,0-25,11.2-25,25s11.2,25,25,25s25-11.2,25-25S38.2-8.4,24.4-8.4z M24.4,40
		C11.5,40,1,29.5,1,16.6S11.5-6.8,24.4-6.8S47.8,3.7,47.8,16.6S37.3,40,24.4,40L24.4,40z"/>
	<path class="st2" d="M20.4,34.4c-0.3,0-0.5-0.1-0.7-0.2c-0.7-0.4-1.1-1.2-0.8-1.9l3.4-12h-7.9c-0.6,0-1.2-0.4-1.5-0.9
		c-0.3-0.6-0.2-1.3,0.2-1.8l14-18.2c0.5-0.6,1.4-0.8,2.1-0.5c0.7,0.4,1.1,1.2,0.8,1.9l-3.4,12h7.9c0.6,0,1.2,0.4,1.5,0.9
		c0.3,0.6,0.2,1.3-0.2,1.8L21.7,33.8C21.4,34.2,20.9,34.4,20.4,34.4z M28.4,0.1c-0.1,0-0.2,0-0.3,0.1L14,18.4
		c-0.1,0.1-0.1,0.3,0,0.4s0.2,0.2,0.3,0.2h9.6L20,32.6c0,0.2,0,0.3,0.2,0.4c0.2,0.1,0.3,0,0.4-0.1l14.1-18.2c0.1-0.1,0.1-0.3,0-0.4
		s-0.2-0.2-0.3-0.2h-9.6l3.9-13.7c0-0.2,0-0.3-0.2-0.4C28.5,0.1,28.5,0.1,28.4,0.1L28.4,0.1z"/>
</g>
<g class="st1">
	<g class="st3">
		<g>
			<defs>
				<rect id="SVGID_1_" x="-0.6" y="-7.8" width="50" height="48.9"/>
			</defs>
			<clipPath id="SVGID_00000130627405147828817760000015275484326346622131_">
				<use xlink:href="#SVGID_1_"  style="overflow:visible;"/>
			</clipPath>
			<g style="clip-path:url(#SVGID_00000130627405147828817760000015275484326346622131_);">
				<path class="st5" d="M44.2-5c-2.5-1.9-5.5-2.9-8.5-2.9S29.8-7,27.4-5.2C23.6-2.4,21.6,2.1,22,6.7c0.3,3.1-0.9,6.2-3.2,8.5
					L2.5,31.1c-0.2,0.2-0.2,0.6,0,0.8L8.7,38c0.2,0.2,0.6,0.2,0.8,0l16.2-15.9c2.3-2.3,5.5-3.4,8.6-3.1c4.1,0.4,8.1-1,11-3.9
					c2.8-2.7,4.2-6.5,4-10.3C49.2,1,47.3-2.6,44.2-5L44.2-5z M44.5,14.3c-2.6,2.6-6.3,3.9-10,3.5c-3.5-0.3-7,0.9-9.6,3.5L9.1,36.8
					l-5.4-5.2l15.8-15.4c2.6-2.5,3.9-5.9,3.5-9.4c-0.4-4.2,1.5-8.3,4.9-10.9c4.5-3.4,11-3.3,15.4,0.2c2.9,2.2,4.6,5.4,4.8,9
					C48.4,8.4,47.1,11.8,44.5,14.3L44.5,14.3z"/>
				<path class="st5" d="M10.3,38l-7.8-7.6c-0.1-0.1-0.3-0.2-0.4-0.2c-0.2,0-0.3,0.1-0.4,0.2l-0.5,0.5C0,32-0.6,33.5-0.6,35.1
					s0.6,3.1,1.8,4.2C2.3,40.4,3.9,41,5.5,41s3.2-0.6,4.3-1.7l0.5-0.5C10.6,38.6,10.6,38.2,10.3,38L10.3,38z M8.9,38.5
					c-0.9,0.9-2.2,1.3-3.4,1.3S3,39.3,2,38.4c-0.9-0.9-1.4-2.1-1.4-3.4c0-1.3,0.5-2.4,1.4-3.3l0.1-0.1l7,6.8L8.9,38.5L8.9,38.5z"/>
				<path class="st5" d="M44,5.2l-2.2-2.1v-3c0-0.3-0.3-0.6-0.6-0.6h-3L36-2.6c-0.2-0.2-0.6-0.2-0.8,0l-2.1,2.2h-3
					c-0.4,0-0.7,0.2-0.7,0.5v3l-2.2,2.1C27.1,5.3,27,5.5,27,5.6c0,0.2,0.1,0.3,0.2,0.4l2.2,2.1v3c0,0.3,0.3,0.6,0.6,0.6h3l2.1,2.1
					c0.2,0.2,0.6,0.2,0.8,0l2.1-2.1h3c0.3,0,0.6-0.3,0.6-0.6v-3L43.8,6C43.9,5.9,44,5.7,44,5.6C44.1,5.5,44.1,5.3,44,5.2L44,5.2z
					 M40.8,7.5c-0.1,0.1-0.2,0.3-0.2,0.4v2.6h-2.7c-0.2,0-0.3,0.1-0.4,0.2l-1.9,1.9l-1.9-1.9c-0.1-0.1-0.3-0.2-0.4-0.2h-2.7V7.9
					c0-0.2-0.1-0.3-0.2-0.4l-1.9-1.9l1.9-1.9c0.1-0.1,0.2-0.3,0.2-0.4V0.7h2.7c0.2,0,0.3-0.1,0.4-0.2l1.9-1.9l1.9,1.9
					c0.1,0.1,0.3,0.2,0.4,0.2h2.7v2.6c0,0.2,0.1,0.3,0.2,0.4l1.9,1.9L40.8,7.5z"/>
				<path class="st5" d="M27.4,13.6c-0.3-0.3-0.8-0.5-1.3-0.5s-1,0.2-1.3,0.5L7.4,30.7C7.1,31,6.9,31.5,6.9,32s0.2,0.9,0.5,1.3
					c0.7,0.7,1.9,0.7,2.6,0l17.4-17.1C28.1,15.5,28.1,14.3,27.4,13.6z M26.6,15.3L9.1,32.4c-0.1,0.1-0.2,0.2-0.4,0.2
					s-0.3-0.1-0.4-0.2c-0.2-0.2-0.2-0.3-0.2-0.4c0-0.2,0.1-0.3,0.2-0.4l17.4-17.1c0.2-0.2,0.4-0.2,0.4-0.2c0.1,0,0.3,0,0.4,0.2
					C26.8,14.7,26.8,15.1,26.6,15.3L26.6,15.3z"/>
			</g>
		</g>
	</g>
</g>
<g>
	<defs>
		<rect id="SVGID_00000151511404139206107220000017491469875781219237_" x="0.5" y="0.5" width="47.7" height="32.4"/>
	</defs>
	<clipPath id="SVGID_00000139985467110934791280000007018563005065331121_">
		<use xlink:href="#SVGID_00000151511404139206107220000017491469875781219237_"  style="overflow:visible;"/>
	</clipPath>
	<g style="clip-path:url(#SVGID_00000139985467110934791280000007018563005065331121_);">
		<path class="st5" d="M28.4,19.1h-2.1c-0.1,0-0.2,0-0.3-0.1c-0.1-0.1-0.1-0.2-0.1-0.3l1.1-3.6c0.1-0.4,0-0.8-0.2-1.1
			c-0.2-0.3-0.6-0.5-1-0.5h-3.2c-0.6,0-1.1,0.4-1.2,0.9l-1.9,6.5c-0.1,0.4,0,0.8,0.2,1.1c0.2,0.3,0.6,0.5,1,0.5h2.6
			c0.1,0,0.2,0.1,0.3,0.1c0.1,0.1,0.1,0.2,0,0.3l-2.1,6.2c-0.1,0.2,0,0.5,0.2,0.6c0.2,0.1,0.5,0.1,0.6-0.1l7-8.4
			c0.3-0.4,0.4-0.9,0.2-1.4C29.3,19.4,28.9,19.1,28.4,19.1L28.4,19.1z M28.6,20.6l-4.2,5.1c-0.1,0.1-0.2,0.1-0.3,0.1
			c-0.1,0-0.1,0-0.2,0c-0.1-0.1-0.2-0.2-0.2-0.4l1.1-3.2c0-0.1,0-0.3-0.1-0.4c-0.1-0.1-0.2-0.2-0.4-0.2h-3.8c-0.1,0-0.2,0-0.3-0.1
			c-0.1-0.1-0.1-0.2-0.1-0.3l1.9-6.5c0-0.1,0.2-0.2,0.3-0.2h3.2c0.1,0,0.2,0,0.3,0.1c0.1,0.1,0.1,0.2,0.1,0.3L25,18.4
			c-0.1,0.4,0,0.8,0.2,1.1c0.2,0.3,0.6,0.5,1,0.5h2.1c0.1,0,0.2,0.1,0.3,0.2C28.7,20.3,28.7,20.5,28.6,20.6L28.6,20.6z"/>
		<path class="st5" d="M46.9,9.4h-1.6c-0.7,0-1.3,0.6-1.3,1.3v4c0,0.2-0.1,0.3-0.3,0.3h-1.6c-0.2,0-0.3-0.1-0.3-0.3v-4
			c0-1.2-0.9-2.1-2.1-2.1H26.8c-0.2,0-0.3-0.1-0.3-0.3V6.6c0-0.2,0.1-0.3,0.3-0.3h4c0.7,0,1.3-0.6,1.3-1.3V4.2c0-2-1.7-3.7-3.7-3.7
			h-8.1c-2,0-3.7,1.7-3.7,3.7V5c0,0.7,0.6,1.3,1.3,1.3h4c0.2,0,0.3,0.1,0.3,0.3v1.6c0,0.2-0.1,0.3-0.3,0.3h-0.9
			c-0.6,0-1.1,0.2-1.6,0.5l-6,4c-0.3,0.2-0.7,0.3-1.1,0.3H9.8c-1.2,0-2.1,0.9-2.1,2.1v5.6c0,0.2-0.1,0.3-0.3,0.3H5
			c-0.2,0-0.3-0.1-0.3-0.3v-4c0-0.7-0.6-1.3-1.3-1.3H1.8c-0.7,0-1.3,0.6-1.3,1.3V30c0,0.7,0.6,1.3,1.3,1.3h1.6
			c0.7,0,1.3-0.6,1.3-1.3v-4c0-0.2,0.1-0.3,0.3-0.3h2.4c0.2,0,0.3,0.1,0.3,0.3v4.8c0,1.2,0.9,2.1,2.1,2.1h16.9
			c0.6,0,1.2-0.2,1.7-0.6l8.4-6.3c0.3-0.3,0.7-0.4,1.2-0.4h1.6c1.2,0,2.1-0.9,2.1-2.1v-4c0-0.2,0.1-0.3,0.3-0.3h1.6
			c0.2,0,0.3,0.1,0.3,0.3v4c0,0.7,0.6,1.3,1.3,1.3h1.6c0.7,0,1.3-0.6,1.3-1.3V10.7C48.2,10,47.6,9.4,46.9,9.4L46.9,9.4z M3.7,30
			c0,0.2-0.1,0.3-0.3,0.3H1.8c-0.2,0-0.3-0.1-0.3-0.3V17.1c0-0.2,0.1-0.3,0.3-0.3h1.6c0.2,0,0.3,0.1,0.3,0.3V30z M7.8,24.4
			c0,0.2-0.1,0.3-0.3,0.3H5c-0.2,0-0.3-0.1-0.3-0.3v-1.6c0-0.2,0.1-0.3,0.3-0.3h2.4c0.2,0,0.3,0.1,0.3,0.3V24.4z M17.9,5.4
			c-0.2,0-0.3-0.1-0.3-0.3V4.2c0-1.5,1.2-2.8,2.7-2.8h8.1c1.5,0,2.7,1.2,2.7,2.8V5c0,0.2-0.1,0.3-0.3,0.3H17.9z M25.5,6.6v1.6
			c0,0.2-0.1,0.3-0.3,0.3h-1.6c-0.2,0-0.3-0.1-0.3-0.3V6.6c0-0.2,0.1-0.3,0.3-0.3h1.6C25.3,6.3,25.5,6.5,25.5,6.6z M40.8,23.6
			c0,0.6-0.5,1.1-1.1,1.1h-1.6c-0.6,0-1.2,0.2-1.7,0.6l-8.4,6.3c-0.3,0.2-0.7,0.4-1.2,0.4H9.8c-0.6,0-1.1-0.5-1.1-1.1V15.5
			c0-0.6,0.5-1.1,1.1-1.1h2.5c0.6,0,1.1-0.2,1.6-0.5l6-4c0.3-0.2,0.7-0.3,1.1-0.3h18.6c0.6,0,1.1,0.5,1.1,1.1V23.6z M44,17.9
			c0,0.2-0.1,0.3-0.3,0.3h-1.6c-0.2,0-0.3-0.1-0.3-0.3v-1.6c0-0.2,0.1-0.3,0.3-0.3h1.6c0.2,0,0.3,0.1,0.3,0.3V17.9z M47.3,23.6
			c0,0.2-0.1,0.3-0.3,0.3h-1.6c-0.2,0-0.3-0.1-0.3-0.3V10.7c0-0.2,0.1-0.3,0.3-0.3h1.6c0.2,0,0.3,0.1,0.3,0.3V23.6z"/>
		<path class="st5" d="M11.9,17.7c-0.1-0.1-0.3-0.2-0.5-0.2s-0.3,0.1-0.5,0.2c0,0.1-0.1,0.1-0.1,0.2c0,0.1-0.1,0.2-0.1,0.2
			c0,0.3,0.2,0.5,0.4,0.6c0.2,0.1,0.5,0,0.7-0.1c0.2-0.2,0.2-0.5,0.1-0.7C12,17.8,12,17.7,11.9,17.7L11.9,17.7z"/>
		<path class="st5" d="M11.5,19.9c-0.3,0-0.5,0.2-0.5,0.5v7.3c0,0.3,0.2,0.5,0.5,0.5c0.3,0,0.5-0.2,0.5-0.5v-7.3
			C11.9,20.1,11.7,19.9,11.5,19.9z"/>
	</g>
</g>
</svg>
