<?xml version="1.0" encoding="utf-8"?>
<!-- Generator: Adobe Illustrator 27.6.1, SVG Export Plug-In . SVG Version: 6.00 Build 0)  -->
<svg version="1.1" id="Capa_1" xmlns="http://www.w3.org/2000/svg" xmlns:xlink="http://www.w3.org/1999/xlink" x="0px" y="0px"
	 viewBox="0 0 50 50" style="enable-background:new 0 0 50 50;" xml:space="preserve">
<style type="text/css">
	.st0{display:none;fill:#E10203;}
	.st1{display:none;fill:#ED1D24;}
	.st2{display:none;}
	.st3{display:inline;fill:#ED1D24;}
	.st4{fill-rule:evenodd;clip-rule:evenodd;fill:#ED1D24;}
	.st5{fill:#FFFFFF;}
</style>
<path class="st0" d="M-13.3,50c-0.2,0.6-0.2,1.2,0,1.8c0.2,0.6,0.7,1,1.2,1.3l3.2,1.6c0.5,0.2,1.1,0.3,1.6,0.2
	c0.5-0.1,1-0.4,1.4-0.8l8.5,3.4c0.5,0.2,1,0.3,1.5,0.2c0.5,0,1-0.1,1.4-0.3c0.5-0.2,0.9-0.5,1.2-0.9c0.3-0.4,0.6-0.8,0.8-1.3
	l5.9-16.4l1.6-3.8c0.2-0.5,0.3-1.1,0.1-1.7l-1.2-4.2c0-0.2,0-0.3,0-0.5c0.1-0.2,0.2-0.3,0.3-0.4l1.2-0.9c0.5-0.4,0.8-0.9,0.9-1.4
	c0.1-0.6,0.1-1.2-0.2-1.7l9.6-6.6c0.2-0.1,0.4-0.3,0.7-0.4l8.5-3.3c0.3-0.1,0.6-0.3,0.8-0.5c0.2-0.2,0.4-0.5,0.6-0.8
	c0.1-0.3,0.2-0.6,0.2-1c0-0.3,0-0.7-0.2-1l-0.6-1.6C35.5,8.8,35,8.3,34.4,8c-0.6-0.3-1.3-0.3-1.9-0.1l-9.3,3.6
	c-0.2,0.1-0.5,0.2-0.7,0.4l-10.2,7c-0.4-0.4-0.9-0.7-1.4-0.8c-0.5-0.1-1.1,0-1.6,0.2l-3.2,1.6C6.1,20,5.9,20.1,5.7,20l-3.4-0.6
	c-0.5-0.1-0.9,0-1.4,0.2c-0.4,0.2-0.8,0.5-1.1,0.9l-4.7,6.8c-0.1,0.1-0.2,0.2-0.3,0.3c-0.1,0.1-0.3,0.1-0.4,0.1h-1.4
	c-0.5,0-1,0.1-1.4,0.4c-0.4,0.3-0.7,0.7-0.9,1.1l-1.4,3.4c-0.3,0.6-0.3,1.2,0,1.8c0.2,0.6,0.7,1.1,1.2,1.4l0.6,0.3
	c0.2,0.1,0.3,0.2,0.4,0.4c0.1,0.2,0.1,0.4,0,0.6L-13.3,50z M5.1,47.3l-0.2-2.9c0-0.1,0-0.2,0.1-0.3C5,44.1,5.1,44,5.3,44l1-0.1
	L5.1,47.3z M6.9,42.1L5,42.3c-0.5,0.1-1,0.3-1.4,0.8c-0.3,0.4-0.5,0.9-0.5,1.5l0.5,6.7l-0.4,1.1L2,51.9l-0.5-7.2
	c-0.1-1,0.2-1.9,0.9-2.7c0.6-0.7,1.5-1.2,2.5-1.3l2.7-0.4L6.9,42.1z M4.6,39C3.2,39.2,2,39.9,1.1,41c-0.9,1.1-1.3,2.4-1.2,3.8
	l0.4,6.4l-4.2-1.7l4.7-12.1c0.1-0.2,0.2-0.4,0.4-0.5c0.2-0.1,0.4-0.1,0.6,0l4.4,1.8L4.6,39z M5.9,54.7c-0.2,0.5-0.6,0.9-1.1,1.2
	c-0.5,0.2-1.1,0.3-1.6,0.1l-8.4-3.4l0.6-1.5l7.1,2.9c0.4,0.2,0.9,0.1,1.3,0c0.4-0.2,0.7-0.5,0.9-0.9L9.4,40l0.7,0.3
	c0.3,0.1,0.6,0.2,0.9,0.2L5.9,54.7z M23.7,17.2l-1.8,1.2L20,15.7l2.3-1.6L23.7,17.2z M20.5,19.4l-2.1,1.4L16.6,18l2.1-1.4L20.5,19.4
	z M17.1,21.7L15.2,23l-1.8-2.8l1.9-1.3L17.1,21.7z M28.7,14.8l-1.2-3.1l2.5-1l1.2,3.1L28.7,14.8z M33.1,9.5c0.2-0.1,0.4-0.1,0.6,0
	c0.2,0.1,0.4,0.3,0.4,0.5l0.6,1.6c0,0.1,0.1,0.2,0.1,0.3c0,0.1,0,0.2-0.1,0.3c0,0.1-0.1,0.2-0.2,0.3c-0.1,0.1-0.2,0.1-0.3,0.2
	l-1.6,0.6l-1.2-3.1L33.1,9.5z M25.9,12.3l1.2,3.1l-1.3,0.5c-0.2,0.1-0.5,0.2-0.7,0.3l-1.4-3.1c0,0,0.1-0.1,0.1-0.1L25.9,12.3z
	 M-8.2,34.5l-0.6-0.3C-9,34.1-9.1,34-9.2,33.8c-0.1-0.2-0.1-0.4,0-0.6l1.4-3.4c0.1-0.2,0.2-0.3,0.3-0.4c0.1-0.1,0.3-0.1,0.5-0.1h1.4
	c0.4,0,0.8-0.1,1.2-0.3c0.4-0.2,0.7-0.5,0.9-0.8l4.7-6.8c0.1-0.1,0.2-0.2,0.4-0.3c0.1-0.1,0.3-0.1,0.5-0.1l3.4,0.6
	c0.5,0.1,1.1,0,1.5-0.2l3.2-1.6c0.2-0.1,0.4-0.1,0.6-0.1c0.2,0.1,0.4,0.2,0.5,0.3l3.3,5c0.1,0.2,0.2,0.4,0.1,0.6
	c0,0.2-0.2,0.4-0.3,0.5l-1.2,0.9c-0.4,0.3-0.7,0.7-0.9,1.2c-0.2,0.5-0.2,1,0,1.5l1.2,4.2c0.1,0.2,0,0.4,0,0.6l-1.6,3.8
	c-0.1,0.2-0.2,0.4-0.4,0.4s-0.4,0.1-0.6,0l-8.3-3.3c-0.6-0.2-1.3-0.2-1.9,0c-0.6,0.3-1.1,0.8-1.3,1.4l-6.2,15.9
	c0,0.1-0.1,0.2-0.2,0.3c-0.1,0.1-0.2,0.1-0.3,0.2c-0.1,0-0.2,0.1-0.3,0c-0.1,0-0.2,0-0.3-0.1l-3.2-1.6c-0.2-0.1-0.3-0.2-0.4-0.4
	c-0.1-0.2-0.1-0.4,0-0.6l4.8-13c0.2-0.6,0.2-1.2,0-1.8C-7.2,35.3-7.6,34.8-8.2,34.5z"/>
<path class="st1" d="M35.2,25.1h-1.7c-0.7,0-1.3,0.6-1.3,1.3v4.2c0,0.2-0.2,0.3-0.3,0.3h-1.7c-0.2,0-0.3-0.2-0.3-0.3v-4.2
	c0-1.2-1-2.2-2.2-2.2H14.1c-0.2,0-0.3-0.2-0.3-0.3v-1.7c0-0.2,0.2-0.3,0.3-0.3h4.2c0.7,0,1.3-0.6,1.3-1.3v-0.8
	c0-2.1-1.7-3.9-3.9-3.9H7.3c-2.1,0-3.9,1.7-3.9,3.9v0.8c0,0.7,0.6,1.3,1.3,1.3H9c0.2,0,0.3,0.2,0.3,0.3v1.7c0,0.2-0.2,0.3-0.3,0.3
	H8.1c-0.6,0-1.2,0.2-1.7,0.5L0.1,29c-0.3,0.2-0.7,0.3-1.1,0.3h-2.6c-1.2,0-2.2,1-2.2,2.2v5.9c0,0.2-0.2,0.3-0.3,0.3h-2.5
	c-0.2,0-0.3-0.2-0.3-0.3v-4.2c0-0.7-0.6-1.3-1.3-1.3h-1.7c-0.7,0-1.3,0.6-1.3,1.3v13.5c0,0.7,0.6,1.3,1.3,1.3h1.7
	c0.7,0,1.3-0.6,1.3-1.3v-4.2c0-0.2,0.2-0.3,0.3-0.3h2.5c0.2,0,0.3,0.2,0.3,0.3v5.1c0,1.2,1,2.2,2.2,2.2h17.7c0.7,0,1.3-0.2,1.8-0.6
	l8.8-6.6c0.4-0.3,0.8-0.4,1.2-0.4h1.7c1.2,0,2.2-1,2.2-2.2v-4.2c0-0.2,0.2-0.3,0.3-0.3h1.7c0.2,0,0.3,0.2,0.3,0.3V40
	c0,0.7,0.6,1.3,1.3,1.3h1.7c0.7,0,1.3-0.6,1.3-1.3V26.4C36.5,25.7,35.9,25.1,35.2,25.1L35.2,25.1z M-10.1,46.7
	c0,0.2-0.2,0.3-0.3,0.3h-1.7c-0.2,0-0.3-0.2-0.3-0.3V33.2c0-0.2,0.2-0.3,0.3-0.3h1.7c0.2,0,0.3,0.2,0.3,0.3V46.7z M-5.9,40.8
	c0,0.2-0.2,0.3-0.3,0.3h-2.5c-0.2,0-0.3-0.2-0.3-0.3v-1.7c0-0.2,0.2-0.3,0.3-0.3h2.5c0.2,0,0.3,0.2,0.3,0.3V40.8z M4.8,20.9
	c-0.2,0-0.3-0.2-0.3-0.3v-0.8c0-1.6,1.3-2.9,2.9-2.9h8.4c1.6,0,2.9,1.3,2.9,2.9v0.8c0,0.2-0.2,0.3-0.3,0.3H4.8z M12.7,22.2v1.7
	c0,0.2-0.2,0.3-0.3,0.3h-1.7c-0.2,0-0.3-0.2-0.3-0.3v-1.7c0-0.2,0.2-0.3,0.3-0.3h1.7C12.6,21.9,12.7,22,12.7,22.2z M28.8,40
	c0,0.7-0.5,1.2-1.2,1.2h-1.7c-0.7,0-1.3,0.2-1.8,0.6l-8.8,6.6c-0.3,0.3-0.8,0.4-1.2,0.4H-3.7c-0.7,0-1.2-0.5-1.2-1.2V31.5
	c0-0.7,0.5-1.2,1.2-1.2h2.6c0.6,0,1.2-0.2,1.7-0.5l6.3-4.2c0.3-0.2,0.7-0.3,1.1-0.3h19.5c0.7,0,1.2,0.5,1.2,1.2V40z M32.2,34
	c0,0.2-0.2,0.3-0.3,0.3h-1.7c-0.2,0-0.3-0.2-0.3-0.3v-1.7c0-0.2,0.2-0.3,0.3-0.3h1.7c0.2,0,0.3,0.2,0.3,0.3V34z M35.5,40
	c0,0.2-0.2,0.3-0.3,0.3h-1.7c-0.2,0-0.3-0.2-0.3-0.3V26.4c0-0.2,0.2-0.3,0.3-0.3h1.7c0.2,0,0.3,0.2,0.3,0.3V40z"/>
<g class="st2">
	<path class="st3" d="M11.5,10.9c-6.6,0-12.9,2.6-17.6,7.3l0,0c0,0,0,0,0,0c0,0,0,0,0,0l0,0c-4.7,4.7-7.3,10.9-7.3,17.6
		c0,6,2.2,11.8,6.1,16.4c0.2,0.3,0.7,0.3,1,0.1l5.4-4.5c0.1-0.1,0.2-0.3,0.2-0.5c0-0.2,0-0.4-0.2-0.5c-2.7-3-4.1-6.9-4.1-10.9
		c0-9.1,7.4-16.5,16.6-16.5c3.8,0,7.5,1.3,10.5,3.7c0.2,0.2,0.4,0.2,0.6,0.1c0.2-0.1,0.5-0.3,0.5-0.6c0-0.2-0.1-0.4-0.3-0.6
		c-2.8-2.3-6.4-3.7-10-4l-0.6,0v-5.6l0.7,0C25.4,13,35.2,23.4,35.2,35.8c0,5.2-1.7,10.3-4.9,14.4l-0.4,0.6l-4.3-3.6l0.4-0.5
		c2.3-3.1,3.6-6.9,3.6-10.8c0-1.7-0.2-3.5-0.7-5.1c-0.2-0.6-0.7-0.5-0.8-0.5c-0.1,0-0.7,0.2-0.5,0.8c0.5,1.5,0.7,3.1,0.7,4.7
		c0,4-1.5,7.9-4.1,10.9c-0.1,0.1-0.2,0.3-0.2,0.5c0,0.2,0.1,0.4,0.2,0.5l5.4,4.5c0.3,0.2,0.7,0.2,1-0.1c4-4.5,6.1-10.3,6.1-16.3
		C36.5,22,25.3,10.9,11.5,10.9z M-2.8,46.6l0.4,0.5l-4.3,3.6l-0.4-0.6c-2.9-3.7-4.6-8.2-4.9-13l0-0.7h5.7l0,0.6
		C-6.1,40.5-4.9,43.8-2.8,46.6L-2.8,46.6z M-2.1,24.1c-2.5,2.9-4,6.5-4.3,10.4l0,0.6h-5.7l0-0.7c0.3-5.3,2.4-10.2,5.9-14.2l0.5-0.5
		l4,4L-2.1,24.1z M10.8,17.9l-0.6,0c-3.9,0.3-7.5,1.8-10.4,4.3l-0.5,0.4l-4-4l0.5-0.5c4-3.5,8.9-5.6,14.2-5.9l0.7,0L10.8,17.9
		L10.8,17.9z"/>
	<path class="st3" d="M26.8,24.3c-0.1,0-0.2,0-0.4,0.1c-7.6,5-16.8,11.3-17.8,12.3c-0.7,0.7-1.2,1.7-1.2,2.8c0,1,0.4,2,1.1,2.8
		c1.5,1.5,4,1.5,5.6,0c1.2-1.2,11.2-14.2,13.2-16.8c0.3-0.4,0-0.8-0.1-0.9C27.1,24.4,27,24.3,26.8,24.3L26.8,24.3z M21.2,31.2
		c-2.7,3.4-7.2,9.3-8,10.1c-0.5,0.5-1.1,0.8-1.8,0.8c-0.2,0-0.4,0-0.6-0.1c-0.9-0.2-1.7-1-1.9-1.9c-0.2-0.9,0-1.7,0.7-2.4
		c0.6-0.6,4.1-3.1,10.7-7.4l3.5-2.4L21.2,31.2L21.2,31.2z"/>
	<path class="st3" d="M6.8,49.5h9.5c0.6,0,0.7-0.6,0.7-0.7c0-0.1,0-0.7-0.7-0.7H6.8c-0.6,0-0.7,0.6-0.7,0.7
		C6.1,48.9,6.2,49.5,6.8,49.5z"/>
	<path class="st3" d="M23.1,53.3H-0.1c-0.6,0-0.7,0.6-0.7,0.7c0,0.1,0,0.7,0.7,0.7h23.2c0.6,0,0.7-0.6,0.7-0.7
		C23.8,53.9,23.8,53.3,23.1,53.3z"/>
</g>
<g class="st2">
	<path class="st3" d="M11.5,10.9c-6.6,0-12.9,2.6-17.6,7.3l0,0c0,0,0,0,0,0c0,0,0,0,0,0l0,0c-4.7,4.7-7.3,10.9-7.3,17.6
		c0,6,2.2,11.8,6.1,16.4c0.2,0.3,0.7,0.3,1,0.1l5.4-4.5c0.1-0.1,0.2-0.3,0.2-0.5c0-0.2,0-0.4-0.2-0.5c-2.7-3-4.1-6.9-4.1-10.9
		c0-9.1,7.4-16.5,16.6-16.5c3.8,0,7.5,1.3,10.5,3.7c0.2,0.2,0.4,0.2,0.6,0.1c0.2-0.1,0.5-0.3,0.5-0.6c0-0.2-0.1-0.4-0.3-0.6
		c-2.8-2.3-6.4-3.7-10-4l-0.6,0v-5.6l0.7,0C25.4,13,35.2,23.4,35.2,35.8c0,5.2-1.7,10.3-4.9,14.4l-0.4,0.6l-4.3-3.6l0.4-0.5
		c2.3-3.1,3.6-6.9,3.6-10.8c0-1.7-0.2-3.5-0.7-5.1c-0.2-0.6-0.7-0.5-0.8-0.5c-0.1,0-0.7,0.2-0.5,0.8c0.5,1.5,0.7,3.1,0.7,4.7
		c0,4-1.5,7.9-4.1,10.9c-0.1,0.1-0.2,0.3-0.2,0.5c0,0.2,0.1,0.4,0.2,0.5l5.4,4.5c0.3,0.2,0.7,0.2,1-0.1c4-4.5,6.1-10.3,6.1-16.3
		C36.5,22,25.3,10.9,11.5,10.9z M-2.8,46.6l0.4,0.5l-4.3,3.6l-0.4-0.6c-2.9-3.7-4.6-8.2-4.9-13l0-0.7h5.7l0,0.6
		C-6.1,40.5-4.9,43.8-2.8,46.6L-2.8,46.6z M-2.1,24.1c-2.5,2.9-4,6.5-4.3,10.4l0,0.6h-5.7l0-0.7c0.3-5.3,2.4-10.2,5.9-14.2l0.5-0.5
		l4,4L-2.1,24.1z M10.8,17.9l-0.6,0c-3.9,0.3-7.5,1.8-10.4,4.3l-0.5,0.4l-4-4l0.5-0.5c4-3.5,8.9-5.6,14.2-5.9l0.7,0L10.8,17.9
		L10.8,17.9z"/>
	<path class="st3" d="M26.8,24.3c-0.1,0-0.2,0-0.4,0.1c-7.6,5-16.8,11.3-17.8,12.3c-0.7,0.7-1.2,1.7-1.2,2.8c0,1,0.4,2,1.1,2.8
		c1.5,1.5,4,1.5,5.6,0c1.2-1.2,11.2-14.2,13.2-16.8c0.3-0.4,0-0.8-0.1-0.9C27.1,24.4,27,24.3,26.8,24.3L26.8,24.3z M21.2,31.2
		c-2.7,3.4-7.2,9.3-8,10.1c-0.5,0.5-1.1,0.8-1.8,0.8c-0.2,0-0.4,0-0.6-0.1c-0.9-0.2-1.7-1-1.9-1.9c-0.2-0.9,0-1.7,0.7-2.4
		c0.6-0.6,4.1-3.1,10.7-7.4l3.5-2.4L21.2,31.2L21.2,31.2z"/>
	<path class="st3" d="M6.8,49.5h9.5c0.6,0,0.7-0.6,0.7-0.7c0-0.1,0-0.7-0.7-0.7H6.8c-0.6,0-0.7,0.6-0.7,0.7
		C6.1,48.9,6.2,49.5,6.8,49.5z"/>
	<path class="st3" d="M23.1,53.3H-0.1c-0.6,0-0.7,0.6-0.7,0.7c0,0.1,0,0.7,0.7,0.7h23.2c0.6,0,0.7-0.6,0.7-0.7
		C23.8,53.9,23.8,53.3,23.1,53.3z"/>
</g>
<g class="st2">
	<path class="st3" d="M11.5,7.8c-13.8,0-25,11.2-25,25s11.2,25,25,25s25-11.2,25-25S25.3,7.8,11.5,7.8z M11.5,56.2
		c-12.9,0-23.4-10.5-23.4-23.4c0-12.9,10.5-23.4,23.4-23.4s23.4,10.5,23.4,23.4S24.4,56.2,11.5,56.2L11.5,56.2z"/>
	<path class="st3" d="M7.5,50.6c-0.3,0-0.5-0.1-0.7-0.2C6,50,5.7,49.2,5.9,48.5l3.4-12H1.4c-0.6,0-1.2-0.4-1.5-0.9
		c-0.3-0.6-0.2-1.3,0.2-1.8l14.1-18.2c0.5-0.6,1.4-0.8,2.1-0.5c0.7,0.4,1.1,1.2,0.8,1.9l-3.4,12h7.9c0.6,0,1.2,0.4,1.5,0.9
		c0.3,0.6,0.2,1.3-0.2,1.8L8.8,49.9C8.5,50.3,8,50.6,7.5,50.6z M15.6,16.3c-0.1,0-0.2,0-0.3,0.1L1.2,34.6c-0.1,0.1-0.1,0.3,0,0.4
		c0.1,0.1,0.2,0.2,0.3,0.2h9.6L7.2,48.8c0,0.2,0,0.3,0.2,0.4c0.2,0.1,0.3,0,0.4-0.1L21.9,31c0.1-0.1,0.1-0.3,0-0.4
		c-0.1-0.1-0.2-0.2-0.3-0.2H12l3.9-13.7c0-0.2,0-0.3-0.2-0.4C15.7,16.3,15.6,16.3,15.6,16.3L15.6,16.3z"/>
</g>
<g>
	<path class="st4" d="M25,49c13.3,0,24-10.7,24-24S38.3,1,25,1S1,11.7,1,25S11.7,49,25,49z"/>
	<path class="st5" d="M14.6,25H25v1.7H14.6V25z M12.9,20.7h8.7v1.7h-8.7V20.7z"/>
	<path class="st5" d="M37.1,25.5l-2.6-6.1c-0.1-0.2-0.2-0.3-0.3-0.4c-0.1-0.1-0.3-0.1-0.5-0.1h-2.6v-1.7c0-0.2-0.1-0.5-0.3-0.6
		c-0.2-0.2-0.4-0.3-0.6-0.3H16.3v1.7h13v10.9c-0.4,0.2-0.7,0.5-1,0.9c-0.3,0.4-0.5,0.8-0.6,1.2h-5.4c-0.2-0.8-0.7-1.5-1.4-2
		c-0.7-0.5-1.5-0.7-2.4-0.6c-0.8,0.1-1.6,0.5-2.2,1.1c-0.6,0.6-0.9,1.4-0.9,2.3s0.3,1.7,0.9,2.3c0.6,0.6,1.3,1,2.2,1.1
		c0.8,0.1,1.7-0.1,2.4-0.6c0.7-0.5,1.2-1.2,1.4-2h5.4c0.2,0.7,0.6,1.4,1.2,1.9c0.6,0.5,1.4,0.7,2.1,0.7c0.8,0,1.5-0.3,2.1-0.7
		c0.6-0.5,1-1.1,1.2-1.9h1.9c0.2,0,0.5-0.1,0.6-0.3c0.2-0.2,0.3-0.4,0.3-0.6v-6.1C37.1,25.7,37.1,25.6,37.1,25.5z M18.9,33.7
		c-0.3,0-0.7-0.1-1-0.3c-0.3-0.2-0.5-0.5-0.6-0.8c-0.1-0.3-0.2-0.7-0.1-1c0.1-0.3,0.2-0.6,0.5-0.9c0.2-0.2,0.6-0.4,0.9-0.5
		c0.3-0.1,0.7,0,1,0.1c0.3,0.1,0.6,0.4,0.8,0.6c0.2,0.3,0.3,0.6,0.3,1c0,0.5-0.2,0.9-0.5,1.2C19.8,33.5,19.4,33.7,18.9,33.7z
		 M31.1,20.7h2L35,25h-3.9V20.7z M31.1,33.7c-0.3,0-0.7-0.1-1-0.3c-0.3-0.2-0.5-0.5-0.6-0.8c-0.1-0.3-0.2-0.7-0.1-1
		c0.1-0.3,0.2-0.6,0.5-0.9c0.2-0.2,0.6-0.4,0.9-0.5c0.3-0.1,0.7,0,1,0.1c0.3,0.1,0.6,0.4,0.8,0.6s0.3,0.6,0.3,1
		c0,0.5-0.2,0.9-0.5,1.2C32,33.5,31.5,33.7,31.1,33.7z M35.4,31.1h-1c-0.2-0.7-0.6-1.4-1.2-1.9c-0.6-0.5-1.3-0.7-2.1-0.7v-1.7h4.3
		V31.1z"/>
</g>
</svg>
