<?xml version="1.0" encoding="utf-8"?>
<!-- Generator: Adobe Illustrator 27.6.1, SVG Export Plug-In . SVG Version: 6.00 Build 0)  -->
<svg version="1.1" id="Capa_1" xmlns="http://www.w3.org/2000/svg" xmlns:xlink="http://www.w3.org/1999/xlink" x="0px" y="0px"
	 viewBox="0 0 50 49.1" style="enable-background:new 0 0 50 49.1;" xml:space="preserve">
<style type="text/css">
	.st0{display:none;fill:#E10203;}
	.st1{display:none;fill:#ED1D24;}
	.st2{display:none;}
	.st3{display:inline;fill:#ED1D24;}
	.st4{clip-path:url(#SVGID_00000001663726160416577900000017722660215228396708_);}
	.st5{fill:#ED1D24;}
</style>
<path class="st0" d="M0.2,41.9c-0.2,0.6-0.2,1.2,0,1.8s0.7,1,1.2,1.3l3.2,1.6c0.5,0.2,1.1,0.3,1.6,0.2s1-0.4,1.4-0.8l8.5,3.4
	c0.5,0.2,1,0.3,1.5,0.2c0.5,0,1-0.1,1.4-0.3c0.5-0.2,0.9-0.5,1.2-0.9c0.3-0.4,0.6-0.8,0.8-1.3l5.9-16.4l1.6-3.8
	c0.2-0.5,0.3-1.1,0.1-1.7L27.4,21c0-0.2,0-0.3,0-0.5c0.1-0.2,0.2-0.3,0.3-0.4l1.2-0.9c0.5-0.4,0.8-0.9,0.9-1.4
	c0.1-0.6,0.1-1.2-0.2-1.7l9.6-6.6c0.2-0.1,0.4-0.3,0.7-0.4l8.5-3.3c0.3-0.1,0.6-0.3,0.8-0.5s0.4-0.5,0.6-0.8c0.1-0.3,0.2-0.6,0.2-1
	c0-0.3,0-0.7-0.2-1l-0.6-1.6c-0.2-0.3-0.7-0.8-1.3-1.1S46.6-0.5,46-0.3l-9.3,3.6c-0.2,0.1-0.5,0.2-0.7,0.4l-10.2,7
	c-0.4-0.4-0.9-0.7-1.4-0.8s-1.1,0-1.6,0.2l-3.2,1.6c-0.2,0.1-0.3,0.1-0.5,0.1l-3.4-0.6c-0.5-0.1-0.9,0-1.4,0.2
	c-0.4,0.2-0.8,0.5-1.1,0.9l-4.7,6.8c-0.1,0.1-0.2,0.2-0.3,0.3c-0.1,0.1-0.3,0.1-0.4,0.1H6.5c-0.5,0-1,0.1-1.4,0.4S4.4,20.6,4.2,21
	l-1.4,3.4c-0.3,0.6-0.3,1.2,0,1.8c0.1,0.6,0.6,1.1,1.2,1.4l0.6,0.3C4.8,28,4.9,28.1,5,28.3c0,0.2,0,0.4,0,0.6L0.2,41.9z M18.5,39.1
	l-0.2-2.9c0-0.1,0-0.2,0.1-0.3s0.2-0.1,0.3-0.2l1-0.1L18.5,39.1z M20.4,33.9l-1.9,0.2c-0.5,0.1-1,0.3-1.4,0.8
	c-0.3,0.4-0.5,0.9-0.5,1.5l0.5,6.7l-0.4,1.1l-1.2-0.5L15,36.5c-0.1-1,0.2-1.9,0.9-2.7c0.6-0.7,1.5-1.2,2.5-1.3l2.7-0.4L20.4,33.9z
	 M18.1,30.8c-1.4,0.2-2.6,0.9-3.5,1.9c-0.9,1.1-1.3,2.4-1.2,3.8l0.4,6.4l-4.2-1.7l4.7-12.1c0.1-0.2,0.2-0.4,0.4-0.5s0.4-0.1,0.6,0
	l4.4,1.8L18.1,30.8z M19.4,46.6c-0.2,0.5-0.6,0.9-1.1,1.2c-0.5,0.2-1.1,0.3-1.6,0.1l-8.4-3.4L9,42.9l7.1,2.9c0.4,0.2,0.9,0.1,1.3,0
	c0.4-0.2,0.7-0.5,0.9-0.9L22.9,32l0.7,0.3c0.3,0.1,0.6,0.2,0.9,0.2L19.4,46.6z M37.1,9l-1.8,1.2l-1.8-2.8l2.3-1.6L37.1,9z M34,11.2
	l-2.1,1.4l-1.8-2.8l2.1-1.4L34,11.2z M30.5,13.6l-1.9,1.3l-1.8-2.8l1.9-1.3L30.5,13.6z M42.1,6.6l-1.2-3.1l2.5-1l1.3,3.1L42.1,6.6z
	 M46.6,1.3c0.2-0.1,0.4-0.1,0.6,0c0.2,0.1,0.4,0.3,0.4,0.5l0.6,1.6c0,0.1,0.1,0.2,0.1,0.3c0,0.1,0,0.2-0.1,0.3
	c0,0.1-0.1,0.2-0.2,0.3c-0.1,0.1-0.2,0.1-0.3,0.2l-1.6,0.6L45,1.9L46.6,1.3z M39.4,4.1l1.2,3.1l-1.3,0.5c-0.2,0.1-0.5,0.2-0.7,0.3
	l-1.4-3.1l0.1-0.1L39.4,4.1z M5.3,26.4l-0.6-0.3c-0.2-0.1-0.3-0.3-0.4-0.5s-0.1-0.4,0-0.6l1.5-3.4c0.1-0.2,0.2-0.3,0.3-0.4
	c0.1-0.1,0.3-0.1,0.5-0.1H8c0.4,0,0.8-0.1,1.2-0.3c0.4-0.2,0.7-0.5,0.9-0.8l4.7-6.8c0.1-0.1,0.2-0.2,0.4-0.3
	c0.1-0.1,0.3-0.1,0.5-0.1l3.4,0.6c0.5,0.1,1.1,0,1.5-0.2l3.2-1.6c0.2-0.1,0.4-0.1,0.6-0.1c0.2,0.1,0.4,0.2,0.5,0.3l3.3,5
	c0.1,0.2,0.2,0.4,0.1,0.6c0,0.2-0.2,0.4-0.3,0.5l-1.2,0.9c-0.4,0.3-0.7,0.7-0.9,1.2c-0.2,0.5-0.2,1,0,1.5l1.2,4.2
	c0.1,0.2,0,0.4,0,0.6l-1.6,3.8c-0.1,0.2-0.2,0.4-0.4,0.4c-0.2,0.1-0.4,0.1-0.6,0L16,27.3c-0.6-0.2-1.3-0.2-1.9,0
	c-0.6,0.3-1.1,0.8-1.3,1.4L6.5,44.6c0,0.1-0.1,0.2-0.2,0.3S6.1,45,6,45.1c-0.1,0-0.2,0.1-0.3,0c-0.1,0-0.2,0-0.3-0.1l-3.2-1.6
	C2,43.3,1.9,43.2,1.8,43s-0.1-0.4,0-0.6l4.8-13c0.2-0.6,0.2-1.2,0-1.8C6.3,27.1,5.8,26.6,5.3,26.4z"/>
<path class="st1" d="M48.7,16.9H47c-0.7,0-1.3,0.6-1.3,1.3v4.2c0,0.2-0.2,0.3-0.3,0.3h-1.7c-0.2,0-0.3-0.2-0.3-0.3v-4.2
	c0-1.2-1-2.2-2.2-2.2H27.5c-0.2,0-0.3-0.2-0.3-0.3V14c0-0.2,0.2-0.3,0.3-0.3h4.2c0.7,0,1.3-0.6,1.3-1.3v-0.8c0-2.1-1.7-3.9-3.9-3.9
	h-8.4c-2.1,0-3.9,1.7-3.9,3.9v0.8c0,0.7,0.6,1.3,1.3,1.3h4.2c0.2,0,0.3,0.2,0.3,0.3v1.7c0,0.2-0.2,0.3-0.3,0.3h-0.9
	c-0.6,0-1.2,0.2-1.7,0.5l-6.3,4.2c-0.3,0.2-0.7,0.3-1.1,0.3H9.8c-1.2,0-2.2,1-2.2,2.2v5.9c0,0.2-0.2,0.3-0.3,0.3H4.7
	c-0.2,0-0.3-0.2-0.3-0.3v-4.2c0-0.7-0.6-1.3-1.3-1.3H1.3c-0.7,0-1.3,0.6-1.3,1.3v13.7c0,0.7,0.6,1.3,1.3,1.3H3
	c0.7,0,1.3-0.6,1.3-1.3v-4.2c0-0.2,0.2-0.3,0.3-0.3h2.5c0.2,0,0.3,0.2,0.3,0.3v5.1c0,1.2,1,2.2,2.2,2.2h17.7c0.7,0,1.3-0.2,1.8-0.6
	l8.8-6.6c0.4-0.3,0.8-0.4,1.2-0.4h1.7c1.2,0,2.2-1,2.2-2.2v-4.3c0-0.2,0.2-0.3,0.3-0.3H45c0.2,0,0.3,0.2,0.3,0.3v4.2
	c0,0.7,0.6,1.3,1.3,1.3h1.7c0.7,0,1.3-0.6,1.3-1.3V18.3C50,17.5,49.4,16.9,48.7,16.9L48.7,16.9z M3.4,38.6c0,0.2-0.2,0.3-0.3,0.3
	H1.3c-0.1,0-0.3-0.2-0.3-0.3V25c0-0.2,0.2-0.3,0.3-0.3H3c0.2,0,0.3,0.2,0.3,0.3v13.6H3.4z M7.6,32.6c0,0.2-0.2,0.3-0.3,0.3H4.7
	c-0.2,0-0.3-0.2-0.3-0.3v-1.7c0-0.2,0.2-0.3,0.3-0.3h2.5c0.2,0,0.3,0.2,0.3,0.3L7.6,32.6L7.6,32.6z M18.2,12.7
	c-0.2,0-0.3-0.2-0.3-0.3v-0.8c0-1.6,1.3-2.9,2.9-2.9h8.4c1.6,0,2.9,1.3,2.9,2.9v0.8c0,0.2-0.2,0.3-0.3,0.3H18.2z M26.2,14v1.7
	c0,0.2-0.2,0.3-0.3,0.3h-1.7c-0.2,0-0.3-0.2-0.3-0.3V14c0-0.2,0.2-0.3,0.3-0.3h1.7C26,13.7,26.2,13.8,26.2,14z M42.2,31.8
	c0,0.7-0.5,1.2-1.2,1.2h-1.7c-0.7,0-1.3,0.2-1.8,0.6l-8.8,6.6c-0.3,0.2-0.7,0.4-1.2,0.4H9.8c-0.7,0-1.2-0.5-1.2-1.2V23.3
	c0-0.7,0.5-1.2,1.2-1.2h2.6c0.6,0,1.2-0.2,1.7-0.5l6.3-4.2c0.3-0.2,0.7-0.3,1.1-0.3H41c0.7,0,1.2,0.5,1.2,1.2V31.8z M45.6,25.9
	c0,0.2-0.2,0.3-0.3,0.3h-1.7c-0.2,0-0.3-0.2-0.3-0.3v-1.7c0-0.2,0.2-0.3,0.3-0.3h1.7c0.2,0,0.3,0.2,0.3,0.3V25.9z M49,31.8
	c0,0.2-0.2,0.3-0.3,0.3H47c-0.2,0-0.3-0.2-0.3-0.3V18.3c0-0.2,0.2-0.3,0.3-0.3h1.7c0.2,0,0.3,0.2,0.3,0.3V31.8z"/>
<g class="st2">
	<path class="st3" d="M25,2.7c-6.6,0-12.9,2.6-17.6,7.3l0,0l0,0l0,0l0,0C2.6,14.8,0,21,0,27.6c0,6,2.2,11.8,6.1,16.4
		c0.2,0.3,0.7,0.3,1,0.1l5.4-4.5c0.1-0.1,0.2-0.3,0.2-0.5s0-0.4-0.2-0.5c-2.6-3.1-4.1-7-4.1-11c0-9.1,7.4-16.5,16.6-16.5
		c3.8,0,7.5,1.3,10.5,3.7c0.2,0.2,0.4,0.2,0.6,0.1c0.2-0.1,0.5-0.3,0.5-0.6c0-0.2-0.1-0.4-0.3-0.6c-2.8-2.3-6.4-3.7-10-4h-0.6V4.1
		h0.7c12.5,0.8,22.2,11.1,22.2,23.5c0,5.2-1.7,10.3-4.9,14.4l-0.4,0.6L39,38.9l0.4-0.5c2.3-3.1,3.6-6.9,3.6-10.8
		c0-1.7-0.2-3.5-0.7-5.1c-0.2-0.6-0.7-0.5-0.8-0.5s-0.7,0.2-0.5,0.8c0.5,1.5,0.7,3.1,0.7,4.7c0,4-1.5,7.9-4.1,10.9
		c-0.1,0.1-0.2,0.3-0.2,0.5s0.1,0.4,0.2,0.5l5.4,4.5c0.3,0.2,0.7,0.2,1-0.1c3.8-4.4,6-10.2,6-16.2C50,13.9,38.8,2.7,25,2.7z
		 M10.7,38.4l0.4,0.5l-4.4,3.7L6.3,42c-2.9-3.7-4.6-8.2-4.9-13v-0.7H7v0.6C7.3,32.4,8.6,35.6,10.7,38.4L10.7,38.4z M11.4,15.9
		c-2.5,2.9-4,6.5-4.3,10.4v0.6H1.4v-0.7C1.7,20.9,3.8,16,7.3,12l0.5-0.5l4,4L11.4,15.9z M24.3,9.7h-0.6c-3.9,0.3-7.5,1.8-10.4,4.3
		l-0.5,0.4l-4-4l0.5-0.5c4-3.5,8.9-5.6,14.2-5.9h0.7L24.3,9.7L24.3,9.7z"/>
	<path class="st3" d="M40.3,16.2c-0.1,0-0.2,0-0.4,0.1c-7.6,5-16.9,11.3-17.8,12.3c-0.7,0.7-1.2,1.7-1.2,2.8c0,1,0.4,2,1.1,2.8
		c1.5,1.5,4,1.5,5.6,0C28.8,33,38.8,20,40.8,17.4c0.3-0.4,0-0.8-0.1-0.9C40.6,16.3,40.4,16.2,40.3,16.2L40.3,16.2z M34.6,23.1
		c-2.7,3.4-7.2,9.3-8,10.1c-0.5,0.5-1.1,0.8-1.8,0.8c-0.2,0-0.4,0-0.6-0.1c-0.9-0.2-1.7-1-1.9-1.9c-0.2-0.9,0-1.7,0.7-2.4
		c0.6-0.6,4.1-3.1,10.7-7.4l3.5-2.4L34.6,23.1L34.6,23.1z"/>
	<path class="st3" d="M20.3,41.3h9.5c0.6,0,0.7-0.6,0.7-0.7c0-0.1,0-0.7-0.7-0.7h-9.5c-0.6,0-0.7,0.6-0.7,0.7
		C19.6,40.7,19.6,41.3,20.3,41.3z"/>
	<path class="st3" d="M36.6,45.1H13.4c-0.6,0-0.7,0.6-0.7,0.7c0,0.1,0,0.7,0.7,0.7h23.2c0.6,0,0.7-0.6,0.7-0.7S37.2,45.1,36.6,45.1z
		"/>
</g>
<g class="st2">
	<path class="st3" d="M25,2.7c-6.6,0-12.9,2.6-17.6,7.3l0,0l0,0l0,0l0,0C2.6,14.8,0,21,0,27.6c0,6,2.2,11.8,6.1,16.4
		c0.2,0.3,0.7,0.3,1,0.1l5.4-4.5c0.1-0.1,0.2-0.3,0.2-0.5s0-0.4-0.2-0.5c-2.6-3.1-4.1-7-4.1-11c0-9.1,7.4-16.5,16.6-16.5
		c3.8,0,7.5,1.3,10.5,3.7c0.2,0.2,0.4,0.2,0.6,0.1c0.2-0.1,0.5-0.3,0.5-0.6c0-0.2-0.1-0.4-0.3-0.6c-2.8-2.3-6.4-3.7-10-4h-0.6V4.1
		h0.7c12.5,0.8,22.2,11.1,22.2,23.5c0,5.2-1.7,10.3-4.9,14.4l-0.4,0.6L39,38.9l0.4-0.5c2.3-3.1,3.6-6.9,3.6-10.8
		c0-1.7-0.2-3.5-0.7-5.1c-0.2-0.6-0.7-0.5-0.8-0.5s-0.7,0.2-0.5,0.8c0.5,1.5,0.7,3.1,0.7,4.7c0,4-1.5,7.9-4.1,10.9
		c-0.1,0.1-0.2,0.3-0.2,0.5s0.1,0.4,0.2,0.5l5.4,4.5c0.3,0.2,0.7,0.2,1-0.1c3.8-4.4,6-10.2,6-16.2C50,13.9,38.8,2.7,25,2.7z
		 M10.7,38.4l0.4,0.5l-4.4,3.7L6.3,42c-2.9-3.7-4.6-8.2-4.9-13v-0.7H7v0.6C7.3,32.4,8.6,35.6,10.7,38.4L10.7,38.4z M11.4,15.9
		c-2.5,2.9-4,6.5-4.3,10.4v0.6H1.4v-0.7C1.7,20.9,3.8,16,7.3,12l0.5-0.5l4,4L11.4,15.9z M24.3,9.7h-0.6c-3.9,0.3-7.5,1.8-10.4,4.3
		l-0.5,0.4l-4-4l0.5-0.5c4-3.5,8.9-5.6,14.2-5.9h0.7L24.3,9.7L24.3,9.7z"/>
	<path class="st3" d="M40.3,16.2c-0.1,0-0.2,0-0.4,0.1c-7.6,5-16.9,11.3-17.8,12.3c-0.7,0.7-1.2,1.7-1.2,2.8c0,1,0.4,2,1.1,2.8
		c1.5,1.5,4,1.5,5.6,0C28.8,33,38.8,20,40.8,17.4c0.3-0.4,0-0.8-0.1-0.9C40.6,16.3,40.4,16.2,40.3,16.2L40.3,16.2z M34.6,23.1
		c-2.7,3.4-7.2,9.3-8,10.1c-0.5,0.5-1.1,0.8-1.8,0.8c-0.2,0-0.4,0-0.6-0.1c-0.9-0.2-1.7-1-1.9-1.9c-0.2-0.9,0-1.7,0.7-2.4
		c0.6-0.6,4.1-3.1,10.7-7.4l3.5-2.4L34.6,23.1L34.6,23.1z"/>
	<path class="st3" d="M20.3,41.3h9.5c0.6,0,0.7-0.6,0.7-0.7c0-0.1,0-0.7-0.7-0.7h-9.5c-0.6,0-0.7,0.6-0.7,0.7
		C19.6,40.7,19.6,41.3,20.3,41.3z"/>
	<path class="st3" d="M36.6,45.1H13.4c-0.6,0-0.7,0.6-0.7,0.7c0,0.1,0,0.7,0.7,0.7h23.2c0.6,0,0.7-0.6,0.7-0.7S37.2,45.1,36.6,45.1z
		"/>
</g>
<g class="st2">
	<path class="st3" d="M25-0.4c-13.8,0-25,11.2-25,25s11.2,25,25,25s25-11.2,25-25S38.8-0.4,25-0.4z M25,48
		C12.1,48,1.6,37.5,1.6,24.6S12.1,1.2,25,1.2s23.4,10.5,23.4,23.4S37.9,48,25,48L25,48z"/>
	<path class="st3" d="M21,42.4c-0.3,0-0.5-0.1-0.7-0.2c-0.7-0.4-1.1-1.2-0.8-1.9l3.4-12H15c-0.6,0-1.2-0.4-1.5-0.9
		c-0.3-0.6-0.2-1.3,0.2-1.8l14-18.2c0.5-0.6,1.4-0.8,2.1-0.5c0.7,0.4,1.1,1.2,0.8,1.9l-3.4,12h7.9c0.6,0,1.2,0.4,1.5,0.9
		c0.3,0.6,0.2,1.3-0.2,1.8L22.3,41.8C22,42.2,21.5,42.4,21,42.4z M29,8.1c-0.1,0-0.2,0-0.3,0.1L14.6,26.4c-0.1,0.1-0.1,0.3,0,0.4
		s0.2,0.2,0.3,0.2h9.6l-3.9,13.6c0,0.2,0,0.3,0.2,0.4c0.2,0.1,0.3,0,0.4-0.1l14.1-18.2c0.1-0.1,0.1-0.3,0-0.4s-0.2-0.2-0.3-0.2h-9.6
		l3.9-13.7c0-0.2,0-0.3-0.2-0.4C29.1,8.1,29.1,8.1,29,8.1L29,8.1z"/>
</g>
<g>
	<g>
		<defs>
			<rect id="SVGID_1_" x="0.6" y="0.7" width="48.8" height="47.7"/>
		</defs>
		<clipPath id="SVGID_00000047744979638602310900000015773146776998971285_">
			<use xlink:href="#SVGID_1_"  style="overflow:visible;"/>
		</clipPath>
		<g style="clip-path:url(#SVGID_00000047744979638602310900000015773146776998971285_);">
			<path class="st5" d="M44.3,3.5C41.9,1.6,39,0.6,36,0.6c-2.9,0-5.8,0.9-8.1,2.6c-3.7,2.7-5.7,7.1-5.3,11.6c0.3,3-0.9,6.1-3.1,8.3
				L3.6,38.7c-0.2,0.2-0.2,0.6,0,0.8l6.1,6c0.2,0.2,0.6,0.2,0.8,0l15.8-15.5c2.2-2.2,5.4-3.3,8.4-3c4,0.4,7.9-1,10.7-3.8
				c2.7-2.6,4.1-6.3,3.9-10.1C49.2,9.3,47.4,5.8,44.3,3.5L44.3,3.5z M44.6,22.3c-2.5,2.5-6.2,3.8-9.8,3.4c-3.4-0.3-6.8,0.9-9.4,3.4
				L10.1,44.3l-5.3-5.1l15.4-15c2.5-2.4,3.8-5.8,3.4-9.2c-0.4-4.1,1.5-8.1,4.8-10.6c4.4-3.3,10.7-3.2,15,0.2
				c2.8,2.1,4.5,5.3,4.7,8.8C48.4,16.6,47.2,19.9,44.6,22.3L44.6,22.3z"/>
			<path class="st5" d="M11.2,45.5L3.6,38c-0.1-0.1-0.3-0.2-0.4-0.2c-0.2,0-0.3,0.1-0.4,0.2l-0.5,0.5c-1.2,1.1-1.8,2.5-1.8,4.1
				s0.6,3,1.8,4.1c1.1,1.1,2.6,1.7,4.2,1.7s3.1-0.6,4.2-1.7l0.5-0.5C11.5,46,11.5,45.7,11.2,45.5L11.2,45.5z M9.9,45.9
				c-0.9,0.9-2.1,1.3-3.3,1.3s-2.4-0.5-3.4-1.4c-0.9-0.9-1.4-2.1-1.4-3.3s0.5-2.3,1.4-3.2l0.1-0.1l6.8,6.6L9.9,45.9L9.9,45.9z"/>
			<path class="st5" d="M44.1,13.4L42,11.4V8.4c0-0.3-0.3-0.6-0.6-0.6h-2.9l-2.1-2.1c-0.2-0.2-0.6-0.2-0.8,0L33.5,8h-2.9
				c-0.4,0-0.7,0.2-0.7,0.5v2.9l-2.1,2.1c-0.1,0.1-0.2,0.3-0.2,0.4c0,0.2,0.1,0.3,0.2,0.4l2.1,2.1v2.9c0,0.3,0.3,0.6,0.6,0.6h2.9
				l2.1,2.1c0.2,0.2,0.6,0.2,0.8,0l2.1-2.1h2.9c0.3,0,0.6-0.3,0.6-0.6v-2.9l2.1-2.1c0.1-0.1,0.2-0.3,0.2-0.4
				C44.2,13.7,44.2,13.5,44.1,13.4L44.1,13.4z M41,15.7c-0.1,0.1-0.2,0.3-0.2,0.4v2.5h-2.6c-0.2,0-0.3,0.1-0.4,0.2l-1.9,1.9
				l-1.9-1.9c-0.1-0.1-0.3-0.2-0.4-0.2h-2.6v-2.5c0-0.2-0.1-0.3-0.2-0.4L29,13.8l1.9-1.9c0.1-0.1,0.2-0.3,0.2-0.4V9h2.6
				c0.2,0,0.3-0.1,0.4-0.2L35.9,7l1.9,1.9C37.9,8.9,38.1,9,38.2,9h2.6v2.5c0,0.2,0.1,0.3,0.2,0.4l1.9,1.9L41,15.7z"/>
			<path class="st5" d="M27.9,21.6c-0.3-0.3-0.8-0.5-1.3-0.5c-0.5,0-1,0.2-1.3,0.5l-17,16.7c-0.3,0.3-0.5,0.8-0.5,1.3
				s0.2,0.9,0.5,1.3c0.7,0.7,1.9,0.7,2.5,0l17-16.7C28.6,23.5,28.6,22.3,27.9,21.6z M27.1,23.3L10.1,40c-0.1,0.1-0.2,0.2-0.4,0.2
				c-0.2,0-0.3-0.1-0.4-0.2c-0.2-0.2-0.2-0.3-0.2-0.4c0-0.2,0.1-0.3,0.2-0.4l17-16.7c0.2-0.2,0.4-0.2,0.4-0.2c0.1,0,0.3,0,0.4,0.2
				C27.3,22.7,27.3,23.1,27.1,23.3L27.1,23.3z"/>
		</g>
	</g>
</g>
</svg>
