<svg width="14" height="14" viewBox="0 0 14 14" fill="none" xmlns="http://www.w3.org/2000/svg">
<path id="Vector" d="M10.8375 7.5823C10.7691 7.51384 10.688 7.45952 10.5986 7.42246C10.5092 7.3854 10.4134 7.36632 10.3167 7.36632C10.2199 7.36632 10.1242 7.3854 10.0348 7.42246C9.94542 7.45952 9.86424 7.51384 9.79589 7.5823L8.6217 8.75649C8.07733 8.59443 7.06151 8.22612 6.4177 7.5823C5.77388 6.93849 5.40557 5.92267 5.24351 5.3783L6.4177 4.20411C6.48617 4.13576 6.54048 4.05458 6.57754 3.96521C6.6146 3.87585 6.63368 3.78005 6.63368 3.68331C6.63368 3.58656 6.6146 3.49077 6.57754 3.4014C6.54048 3.31204 6.48617 3.23086 6.4177 3.16251L3.47117 0.215981C3.40282 0.147515 3.32164 0.0931969 3.23228 0.0561364C3.14291 0.0190759 3.04712 0 2.95037 0C2.85363 0 2.75783 0.0190759 2.66847 0.0561364C2.5791 0.0931969 2.49792 0.147515 2.42957 0.215981L0.431826 2.21373C0.151906 2.49365 -0.00573354 2.87817 0.000159514 3.27079C0.0171021 4.31976 0.294813 7.96314 3.1662 10.8345C6.0376 13.7059 9.68098 13.9829 10.7307 14.0006H10.7513C11.1402 14.0006 11.5078 13.8474 11.7863 13.5689L13.784 11.5712C13.8525 11.5028 13.9068 11.4216 13.9439 11.3323C13.9809 11.2429 14 11.1471 14 11.0504C14 10.9536 13.9809 10.8578 13.9439 10.7685C13.9068 10.6791 13.8525 10.5979 13.784 10.5296L10.8375 7.5823ZM10.7439 12.5266C9.82462 12.5111 6.6792 12.2643 4.2078 9.7922C1.7283 7.3127 1.48816 4.15623 1.47342 3.25533L2.95037 1.77838L4.8553 3.68331L3.90284 4.63577C3.81625 4.72229 3.75259 4.82902 3.71761 4.94631C3.68263 5.06361 3.67743 5.18777 3.70247 5.30758C3.72015 5.3923 4.15255 7.40109 5.37536 8.6239C6.59817 9.84671 8.60697 10.2791 8.69168 10.2968C8.81142 10.3225 8.93571 10.3178 9.05311 10.2829C9.17051 10.248 9.27725 10.1841 9.36349 10.0972L10.3167 9.1447L12.2216 11.0496L10.7439 12.5266Z" fill="#BABABA"/>
</svg>
