<?xml version="1.0" encoding="utf-8"?>
<!-- Generator: Adobe Illustrator 27.6.1, SVG Export Plug-In . SVG Version: 6.00 Build 0)  -->
<svg version="1.1" id="Capa_1" xmlns="http://www.w3.org/2000/svg" xmlns:xlink="http://www.w3.org/1999/xlink" x="0px" y="0px"
	 viewBox="0 0 88.5 88.5" style="enable-background:new 0 0 88.5 88.5;" xml:space="preserve">
<style type="text/css">
	.st0{fill:#E52628;}
	.st1{fill:url(#SVGID_1_);}
	.st2{fill:#FFFFFF;}
	.st3{fill:url(#SVGID_00000128474248921052171520000012204741824582839993_);}
	.st4{fill:url(#SVGID_00000134238531640586029480000017555076983950514346_);}
	.st5{fill:url(#SVGID_00000168093292393819609560000007615876266777587647_);}
	.st6{fill:url(#SVGID_00000008836382768666237970000003413054182390830747_);}
	.st7{fill:url(#SVGID_00000099626032610129054880000009971673408398459043_);}
	.st8{fill:url(#SVGID_00000070811478686759873480000010416403563322830502_);}
	.st9{fill:url(#SVGID_00000181782670689656653840000003013796061596404110_);}
	.st10{fill:url(#SVGID_00000153667613320560397830000003517069887937914789_);}
</style>
<g>
	<path class="st0" d="M44,13.1l0.6,2.3l2.4-0.1l-2,1.3l0.9,2.2L44,17.4l-1.9,1.5l0.9-2.2l-2-1.3l2.4,0.1L44,13.1z"/>
	<path class="st0" d="M35.1,15.5l1.3,1.3l1.5-1l-0.9,1.6l1.4,1.2l-1.8-0.3L36,20l-0.2-1.8l-1.8-0.2l1.6-0.8L35.1,15.5z"/>
	<path class="st0" d="M29.1,19.2l1.1,1.1l1.3-0.9l-0.7,1.4l1.3,1l-1.6-0.2L30,23l-0.3-1.6l-1.6,0l1.4-0.7L29.1,19.2z"/>
	<path class="st0" d="M52.9,15.7l-1.3,1.4l-1.5-1l0.9,1.6l-1.4,1.2l1.8-0.3l0.7,1.7l0.2-1.8l1.8-0.1l-1.6-0.8L52.9,15.7z"/>
	<path class="st0" d="M59.4,19.3l-1.2,1.1L57,19.5l0.7,1.4l-1.2,1l1.5-0.2l0.5,1.5l0.3-1.6l1.6,0l-1.4-0.7L59.4,19.3z"/>
	
		<linearGradient id="SVGID_1_" gradientUnits="userSpaceOnUse" x1="256" y1="-299.8073" x2="344.4977" y2="-299.8073" gradientTransform="matrix(1 0 0 -1 -256 -255.5573)">
		<stop  offset="0" style="stop-color:#BC222F"/>
		<stop  offset="0.1833" style="stop-color:#C1232E"/>
		<stop  offset="0.4234" style="stop-color:#D0252D"/>
		<stop  offset="0.673" style="stop-color:#E6282B"/>
		<stop  offset="0.8055" style="stop-color:#D7262C"/>
		<stop  offset="1" style="stop-color:#BC222F"/>
	</linearGradient>
	<path class="st1" d="M88.5,44.3c0-5.5-1-10.7-2.8-15.6h-7.4c-5.9-13-18.9-22-34-22s-28.1,9-34,22H2.8C1,33.5,0,38.8,0,44.2
		C0,49.7,1,55,2.8,59.8h7.4c5.9,13,18.9,22,34,22c15.1,0,28.1-9,34-22h7.4C87.5,55,88.5,49.7,88.5,44.3z M44.2,10.8
		C57,10.8,68,18,73.6,28.7H14.9C20.5,18,31.5,10.8,44.2,10.8z M44.2,77.7c-12.7,0-23.8-7.2-29.4-17.8h58.7
		C68,70.5,57,77.7,44.2,77.7z"/>
	<path class="st2" d="M20.3,36.7v15.1h-4.2V41.2l-1.9,1.3l-1.8-2.7l4.6-3.1H20.3z"/>
	<path class="st2" d="M41.2,51.6c0,0.1-0.1,0.2-0.3,0.3C40.7,52,40,52,38.9,52c-1,0-1.6,0-2-0.1c-0.2-0.1-0.4-0.2-0.5-0.5
		c-0.2-1-0.4-1.6-0.5-1.6c-0.1-0.1-1.1-0.1-2.8-0.1c-1.2,0-1.8,0-1.9,0.1C31.1,50,31,50.3,30.8,51c-0.1,0.6-0.3,0.9-0.5,1
		c-0.2,0.1-1,0.1-2.4,0.1c-1.1,0-1.6-0.1-1.6-0.3c0-0.2,0.8-2.5,2.4-6.8c1.7-4.7,2.7-7.3,2.8-7.7c0.1-0.3,0.2-0.4,0.3-0.4
		c0.2,0,0.5,0,0.9,0.1c0.4,0,0.7,0.1,0.9,0.1c0.2,0,0.5,0,0.8,0c0.4,0,0.6,0,0.8,0c0.1,0,0.2,0.1,0.4,0.3c0.3,0.7,1.3,3.3,3,7.7
		C40.3,49.2,41.2,51.5,41.2,51.6z M33.7,42c-0.2,0.3-0.4,1-0.8,2c-0.4,1.1-0.6,1.8-0.6,1.9c0,0.1,0.2,0.2,0.6,0.2c0.2,0,0.6,0,1.1,0
		c0.5,0,0.7-0.1,0.8-0.2c0,0,0-0.1,0-0.2c0-0.2-0.2-0.9-0.5-1.9C34,42.9,33.8,42.2,33.7,42z"/>
	<path class="st2" d="M57.9,37.3c0,0.8,0,2-0.1,3.6c-0.1,1.6-0.1,2.8-0.1,3.7v7c0,0.2-0.1,0.3-0.3,0.3c-0.2,0-0.4,0-0.8,0
		c-0.3,0-0.6,0-0.8,0c-0.2,0-0.5,0-0.8,0c-0.4,0-0.6,0-0.8,0c-0.1,0-0.3-0.1-0.5-0.3c-0.5-0.7-1.6-2.2-3.4-4.6
		c-0.5-0.6-1.2-1.6-2.2-2.9c0,0-0.1-0.1-0.2-0.1c-0.1,0.1-0.1,0.1-0.1,0.2c0,0.8,0,2.1,0.1,3.7c0,1.6,0.1,2.9,0.1,3.7
		c0,0.2-0.1,0.4-0.3,0.4h-3.7c-0.2,0-0.3-0.1-0.3-0.3c0-0.8,0-1.9,0.1-3.5c0.1-1.6,0.1-2.7,0.1-3.5c0-0.8,0-2-0.1-3.7
		c-0.1-1.6-0.1-2.8-0.1-3.6c0-0.2,0.1-0.2,0.4-0.2c0.4,0,0.9,0,1.5-0.1c0.2,0,0.4-0.1,0.8-0.1c0.4-0.1,0.6-0.1,0.8-0.1
		c0.1,0,0.2,0.1,0.4,0.4l3.9,5.4c0.4,0.5,0.9,1.2,1.6,2.2c0.2,0.2,0.3,0.3,0.5,0.3c0.1,0,0.1-0.3,0.1-0.8c0-0.7,0-1.9-0.1-3.4
		c-0.1-1.5-0.1-2.6-0.1-3.4c0-0.3,0.1-0.4,0.2-0.4c0.4,0,1.1,0,1.9-0.1c0.9,0,1.5-0.1,1.9-0.1C57.9,37,57.9,37.1,57.9,37.3z
		 M54.9,35.1c-0.9,1-1.8,1.5-2.8,1.5c-0.3,0-0.6-0.2-1-0.4c-0.4-0.3-0.8-0.4-1-0.4c-0.2,0-0.5,0.1-0.8,0.4c-0.3,0.2-0.5,0.4-0.5,0.4
		c-0.2-0.1-0.5-0.3-0.9-0.7c-0.4-0.4-0.6-0.7-0.6-0.9c0.1-0.3,0.4-0.6,1.1-1c0.6-0.4,1.1-0.6,1.5-0.6c0.3,0,0.7,0.1,1.2,0.4
		c0.5,0.3,0.9,0.4,1.2,0.4c0.2,0,0.5-0.1,0.9-0.4c0.3-0.2,0.5-0.4,0.6-0.4c0.1,0,0.4,0.2,0.7,0.8C54.8,34.6,54.9,34.9,54.9,35.1
		L54.9,35.1z"/>
	<path class="st2" d="M76.2,44.5c0,2.2-0.7,4.1-2.1,5.6c-1.4,1.5-3.2,2.3-5.4,2.3c-2.2,0-4-0.8-5.4-2.3c-1.4-1.5-2.1-3.4-2.1-5.5
		c0-2.2,0.7-4.1,2.1-5.6c1.4-1.5,3.2-2.3,5.4-2.3c2.2,0,4,0.8,5.4,2.3C75.5,40.4,76.2,42.3,76.2,44.5z M72.2,44.4
		c0-1.1-0.3-2-0.9-2.7c-0.7-0.8-1.5-1.2-2.6-1.2c-1,0-1.8,0.4-2.5,1.2c-0.7,0.8-1,1.7-1,2.7c0,1.1,0.3,2,0.9,2.7
		c0.7,0.8,1.5,1.1,2.6,1.1c1,0,1.8-0.4,2.5-1.2C71.8,46.4,72.2,45.5,72.2,44.4z"/>
	
		<linearGradient id="SVGID_00000106138028191697696010000014249739059379954603_" gradientUnits="userSpaceOnUse" x1="280.3325" y1="-320.6453" x2="285.1228" y2="-320.6453" gradientTransform="matrix(1 0 0 -1 -256 -255.5573)">
		<stop  offset="0" style="stop-color:#BC222F"/>
		<stop  offset="0.1833" style="stop-color:#C1232E"/>
		<stop  offset="0.4234" style="stop-color:#D0252D"/>
		<stop  offset="0.673" style="stop-color:#E6282B"/>
		<stop  offset="0.8055" style="stop-color:#D7262C"/>
		<stop  offset="1" style="stop-color:#BC222F"/>
	</linearGradient>
	<path style="fill:url(#SVGID_00000106138028191697696010000014249739059379954603_);" d="M29.1,67.5C29.1,67.5,29.1,67.6,29.1,67.5
		c-0.1,0.1-0.3,0.1-0.5,0c-0.2-0.1-0.3-0.1-0.4-0.1c-0.5,0.2-1,0.3-1.4,0.3c-0.7,0-1.3-0.2-1.8-0.7c-0.5-0.5-0.7-1.1-0.7-1.8
		c0-0.8,0.2-1.4,0.7-1.9c0.5-0.5,1.1-0.8,1.8-0.8c0.4,0,0.7,0.1,1,0.2c0.3,0.2,0.6,0.4,0.8,0.6c0,0.1,0.1,0.1,0.1,0.1
		c0,0.1-0.1,0.2-0.3,0.5s-0.3,0.4-0.4,0.4c0,0-0.1-0.1-0.2-0.2c-0.1-0.1-0.2-0.2-0.4-0.3c-0.2-0.1-0.4-0.2-0.6-0.2
		c-0.4,0-0.6,0.1-0.9,0.4c-0.2,0.2-0.3,0.6-0.3,0.9c0,0.4,0.1,0.7,0.3,0.9c0.2,0.2,0.5,0.3,0.9,0.3c0.2,0,0.5-0.1,0.8-0.2
		c0-0.1,0-0.3-0.1-0.6c0-0.2-0.1-0.5-0.1-0.6c0,0,0-0.1,0.1-0.1c0,0,0,0,0.1,0c0.1,0,0.2,0,0.3,0c0.1,0,0.2,0,0.3,0
		c0.1,0,0.2,0,0.3,0c0.2,0,0.3,0,0.3,0c0.1,0,0.1,0,0.1,0.1c0,0.1,0,0.3,0,0.5c0,0.2,0,0.4,0,0.5C29,66.4,29,66.9,29.1,67.5
		L29.1,67.5z"/>
	
		<linearGradient id="SVGID_00000128473413050948552800000003596233334005161902_" gradientUnits="userSpaceOnUse" x1="285.8571" y1="-320.5838" x2="290.8309" y2="-320.5838" gradientTransform="matrix(1 0 0 -1 -256 -255.5573)">
		<stop  offset="0" style="stop-color:#BC222F"/>
		<stop  offset="0.1833" style="stop-color:#C1232E"/>
		<stop  offset="0.4234" style="stop-color:#D0252D"/>
		<stop  offset="0.673" style="stop-color:#E6282B"/>
		<stop  offset="0.8055" style="stop-color:#D7262C"/>
		<stop  offset="1" style="stop-color:#BC222F"/>
	</linearGradient>
	<path style="fill:url(#SVGID_00000128473413050948552800000003596233334005161902_);" d="M34.8,67.5C34.8,67.5,34.8,67.5,34.8,67.5
		c-0.2,0.1-0.4,0.1-0.8,0.1c-0.3,0-0.5,0-0.6,0c-0.1,0-0.1-0.1-0.2-0.2c-0.1-0.3-0.2-0.5-0.2-0.6c0,0-0.4,0-0.9,0
		c-0.4,0-0.6,0-0.6,0c0,0-0.1,0.2-0.1,0.4c0,0.2-0.1,0.3-0.2,0.3c-0.1,0-0.3,0-0.8,0c-0.4,0-0.5,0-0.5-0.1s0.3-0.8,0.8-2.3
		c0.6-1.6,0.9-2.4,0.9-2.6c0-0.1,0.1-0.1,0.1-0.1c0.1,0,0.2,0,0.3,0c0.1,0,0.2,0,0.3,0c0.1,0,0.2,0,0.3,0s0.2,0,0.3,0
		c0,0,0.1,0,0.1,0.1c0.1,0.2,0.5,1.1,1,2.6C34.6,66.6,34.8,67.4,34.8,67.5z M32.3,64.2c-0.1,0.1-0.1,0.3-0.2,0.7
		c-0.1,0.4-0.2,0.6-0.2,0.6c0,0,0.1,0.1,0.2,0.1c0.1,0,0.2,0,0.4,0c0.2,0,0.2,0,0.2-0.1c0,0,0,0,0-0.1c0-0.1-0.1-0.3-0.2-0.6
		C32.5,64.6,32.4,64.3,32.3,64.2z"/>
	
		<linearGradient id="SVGID_00000093175377496966349320000001635418200634035644_" gradientUnits="userSpaceOnUse" x1="291.7357" y1="-320.5992" x2="295.9555" y2="-320.5992" gradientTransform="matrix(1 0 0 -1 -256 -255.5573)">
		<stop  offset="0" style="stop-color:#BC222F"/>
		<stop  offset="0.1833" style="stop-color:#C1232E"/>
		<stop  offset="0.4234" style="stop-color:#D0252D"/>
		<stop  offset="0.673" style="stop-color:#E6282B"/>
		<stop  offset="0.8055" style="stop-color:#D7262C"/>
		<stop  offset="1" style="stop-color:#BC222F"/>
	</linearGradient>
	<path style="fill:url(#SVGID_00000093175377496966349320000001635418200634035644_);" d="M40,67.5C40,67.6,39.9,67.6,40,67.5
		c-0.2,0-0.4,0.1-0.7,0.1c-0.3,0-0.5,0-0.6,0c-0.1,0-0.1,0-0.1,0c0,0,0,0-0.1-0.1c0-0.1-0.1-0.2-0.2-0.4c-0.1-0.2-0.2-0.6-0.4-1
		c0-0.1-0.2-0.2-0.3-0.2c0.1,0-0.1,0-0.4,0c0,0-0.1,0.1-0.1,0.2c0,0.2,0,0.4,0,0.7c0,0.3,0,0.6,0,0.7c0,0,0,0.1,0,0.1s-0.1,0-0.1,0
		c-0.2,0-0.4,0-0.6,0c-0.3,0-0.5,0-0.6,0c-0.1,0-0.1-0.1-0.1-0.1c0-0.3,0-0.6,0-1.2c0-0.6,0-0.9,0-1.2c0-1,0-1.8-0.1-2.4v-0.1
		c0,0,0-0.1,0.1-0.1c0.1,0,0.4,0,1.1,0c0.4,0,0.8,0,1,0c0.5,0,1,0.1,1.3,0.4c0.4,0.3,0.6,0.7,0.6,1.2c0,0.3-0.1,0.6-0.2,0.8
		c-0.1,0.2-0.3,0.4-0.5,0.6c-0.1,0-0.1,0.1-0.1,0.1c0,0,0.2,0.3,0.4,0.9C39.8,67.1,40,67.5,40,67.5z M38.5,64.3
		c0-0.3-0.1-0.5-0.3-0.6c-0.2-0.1-0.4-0.1-0.7-0.1c-0.2,0-0.3,0-0.4,0.1c0,0.1,0,0.3,0,0.7c0,0.1,0,0.1,0,0.2c0,0.1,0,0.2,0,0.2
		c0,0,0,0,0.1,0c0.2,0,0.3,0,0.5,0C38.2,64.9,38.5,64.8,38.5,64.3z"/>
	
		<linearGradient id="SVGID_00000080195080595302502630000006787099840655091123_" gradientUnits="userSpaceOnUse" x1="296.5946" y1="-320.5838" x2="301.5684" y2="-320.5838" gradientTransform="matrix(1 0 0 -1 -256 -255.5573)">
		<stop  offset="0" style="stop-color:#BC222F"/>
		<stop  offset="0.1833" style="stop-color:#C1232E"/>
		<stop  offset="0.4234" style="stop-color:#D0252D"/>
		<stop  offset="0.673" style="stop-color:#E6282B"/>
		<stop  offset="0.8055" style="stop-color:#D7262C"/>
		<stop  offset="1" style="stop-color:#BC222F"/>
	</linearGradient>
	<path style="fill:url(#SVGID_00000080195080595302502630000006787099840655091123_);" d="M45.6,67.5C45.6,67.5,45.5,67.5,45.6,67.5
		c-0.2,0.1-0.4,0.1-0.8,0.1c-0.3,0-0.5,0-0.6,0c-0.1,0-0.1-0.1-0.2-0.2c-0.1-0.3-0.2-0.5-0.2-0.6c0,0-0.4,0-0.9,0
		c-0.4,0-0.6,0-0.6,0c0,0-0.1,0.2-0.1,0.4c0,0.2-0.1,0.3-0.2,0.3c-0.1,0-0.3,0-0.8,0c-0.4,0-0.5,0-0.5-0.1s0.3-0.8,0.8-2.3
		c0.6-1.6,0.9-2.4,0.9-2.6c0-0.1,0.1-0.1,0.1-0.1c0.1,0,0.2,0,0.3,0c0.1,0,0.2,0,0.3,0c0.1,0,0.2,0,0.3,0s0.2,0,0.3,0
		c0,0,0.1,0,0.1,0.1c0.1,0.2,0.5,1.1,1,2.6C45.3,66.6,45.6,67.4,45.6,67.5z M43.1,64.2c-0.1,0.1-0.1,0.3-0.2,0.7
		c-0.1,0.4-0.2,0.6-0.2,0.6c0,0,0.1,0.1,0.2,0.1c0.1,0,0.2,0,0.4,0c0.2,0,0.2,0,0.2-0.1c0,0,0,0,0-0.1c0-0.1-0.1-0.3-0.2-0.6
		C43.2,64.6,43.1,64.3,43.1,64.2z"/>
	
		<linearGradient id="SVGID_00000018934445727712585850000014763238541141155761_" gradientUnits="userSpaceOnUse" x1="302.4732" y1="-320.553" x2="307.2099" y2="-320.553" gradientTransform="matrix(1 0 0 -1 -256 -255.5573)">
		<stop  offset="0" style="stop-color:#BC222F"/>
		<stop  offset="0.1833" style="stop-color:#C1232E"/>
		<stop  offset="0.4234" style="stop-color:#D0252D"/>
		<stop  offset="0.673" style="stop-color:#E6282B"/>
		<stop  offset="0.8055" style="stop-color:#D7262C"/>
		<stop  offset="1" style="stop-color:#BC222F"/>
	</linearGradient>
	<path style="fill:url(#SVGID_00000018934445727712585850000014763238541141155761_);" d="M51.2,62.7c0,0.3,0,0.7,0,1.2
		c0,0.6,0,1,0,1.2v2.3c0,0.1,0,0.1-0.1,0.1c-0.1,0-0.2,0-0.2,0c-0.1,0-0.2,0-0.2,0c-0.1,0-0.2,0-0.3,0s-0.2,0-0.3,0
		c0,0-0.1,0-0.2-0.1c-0.2-0.2-0.5-0.7-1.2-1.5c-0.2-0.2-0.4-0.6-0.7-1c0,0,0,0-0.1,0c0,0,0,0,0,0.1c0,0.3,0,0.7,0,1.2
		c0,0.6,0,1,0,1.2c0,0.1,0,0.1-0.1,0.1h-1.2c-0.1,0-0.1,0-0.1-0.1c0-0.2,0-0.6,0-1.2c0-0.5,0-0.9,0-1.2c0-0.3,0-0.7,0-1.2
		c0-0.6,0-1,0-1.2c0-0.1,0.1-0.1,0.2-0.1c0.1,0,0.3,0,0.5,0c0.1,0,0.2,0,0.3-0.1c0.1,0,0.2,0,0.3,0c0,0,0.1,0,0.1,0.1l1.3,1.8
		c0.1,0.2,0.3,0.4,0.5,0.7c0.1,0.1,0.1,0.1,0.2,0.1c0,0,0.1-0.1,0.1-0.3c0-0.2,0-0.6,0-1.1c0-0.5,0-0.9,0-1.1c0-0.1,0-0.1,0.1-0.1
		c0.2,0,0.4,0,0.6,0c0.3,0,0.5,0,0.6,0C51.2,62.6,51.2,62.6,51.2,62.7z"/>
	
		<linearGradient id="SVGID_00000061462468551776595710000005730391679233134236_" gradientUnits="userSpaceOnUse" x1="308.1254" y1="-320.5992" x2="311.8599" y2="-320.5992" gradientTransform="matrix(1 0 0 -1 -256 -255.5573)">
		<stop  offset="0" style="stop-color:#BC222F"/>
		<stop  offset="0.1833" style="stop-color:#C1232E"/>
		<stop  offset="0.4234" style="stop-color:#D0252D"/>
		<stop  offset="0.673" style="stop-color:#E6282B"/>
		<stop  offset="0.8055" style="stop-color:#D7262C"/>
		<stop  offset="1" style="stop-color:#BC222F"/>
	</linearGradient>
	<path style="fill:url(#SVGID_00000061462468551776595710000005730391679233134236_);" d="M55.9,63.7C55.9,63.7,55.8,63.7,55.9,63.7
		c-0.2,0.1-0.5,0-1.2,0c0,0.6,0,1,0,1.3c0,0.3,0,0.7,0,1.3c0,0.6,0,1,0,1.3c0,0,0,0.1,0,0.1c0,0,0,0-0.1,0c-0.2,0-0.3,0-0.6,0
		c-0.3,0-0.5,0-0.6,0c-0.1,0-0.1-0.1-0.1-0.1c0-0.3,0-0.7,0-1.3c0-0.6,0-1,0-1.3c0-0.2,0-0.6,0-1.2c-0.5,0.1-0.9,0.1-1.1,0.1
		c0,0-0.1,0-0.1,0c0,0,0-0.1,0.1-0.3c0-0.2,0.1-0.3,0.1-0.3c0-0.1,0-0.2,0-0.3c0-0.2,0-0.3,0.1-0.3c0,0,0,0,0.1,0
		c0.4,0.1,0.9,0.1,1.7,0.1c0.2,0,0.6,0,1.2-0.1c0.3,0,0.5,0,0.5,0c0.1,0,0.1,0,0.1,0c0,0,0,0,0,0.1c0,0.1,0,0.2,0,0.3
		c0,0.1,0,0.2,0,0.3c0,0.1,0,0.2,0,0.3C55.9,63.5,55.9,63.6,55.9,63.7z"/>
	
		<linearGradient id="SVGID_00000111160746089896677770000013508459089126855600_" gradientUnits="userSpaceOnUse" x1="312.7614" y1="-320.6299" x2="314.3015" y2="-320.6299" gradientTransform="matrix(1 0 0 -1 -256 -255.5573)">
		<stop  offset="0" style="stop-color:#BC222F"/>
		<stop  offset="0.1833" style="stop-color:#C1232E"/>
		<stop  offset="0.4234" style="stop-color:#D0252D"/>
		<stop  offset="0.673" style="stop-color:#E6282B"/>
		<stop  offset="0.8055" style="stop-color:#D7262C"/>
		<stop  offset="1" style="stop-color:#BC222F"/>
	</linearGradient>
	<path style="fill:url(#SVGID_00000111160746089896677770000013508459089126855600_);" d="M58.2,64.9c0,0.3,0,0.7,0,1.3
		c0,0.6,0,1,0,1.3c0,0.1,0,0.1,0,0.1c0,0,0,0-0.1,0c-0.2,0-0.4,0-0.6,0c-0.3,0-0.5,0-0.7,0c-0.1,0-0.1-0.1-0.1-0.1c0,0,0-0.2,0-0.6
		c0-1,0.1-1.6,0.1-1.9c0-0.2,0-0.6,0-1.1c0-0.5,0-0.9,0-1.1c0-0.1,0-0.1,0.1-0.1c0.1,0,0.2,0,0.3,0c0.2,0,0.2,0,0.3,0
		c0.1,0,0.2,0,0.3,0c0.2,0,0.2,0,0.3,0c0.1,0,0.1,0,0.1,0.1c0,0.2,0,0.6,0,1.1C58.3,64.3,58.2,64.7,58.2,64.9z"/>
	
		<linearGradient id="SVGID_00000160163199832564968790000017128252965705324720_" gradientUnits="userSpaceOnUse" x1="315.1812" y1="-320.5838" x2="320.155" y2="-320.5838" gradientTransform="matrix(1 0 0 -1 -256 -255.5573)">
		<stop  offset="0" style="stop-color:#BC222F"/>
		<stop  offset="0.1833" style="stop-color:#C1232E"/>
		<stop  offset="0.4234" style="stop-color:#D0252D"/>
		<stop  offset="0.673" style="stop-color:#E6282B"/>
		<stop  offset="0.8055" style="stop-color:#D7262C"/>
		<stop  offset="1" style="stop-color:#BC222F"/>
	</linearGradient>
	<path style="fill:url(#SVGID_00000160163199832564968790000017128252965705324720_);" d="M64.2,67.5C64.2,67.5,64.1,67.5,64.2,67.5
		c-0.2,0.1-0.4,0.1-0.8,0.1c-0.3,0-0.5,0-0.6,0c-0.1,0-0.1-0.1-0.2-0.2c-0.1-0.3-0.2-0.5-0.2-0.6c0,0-0.4,0-0.9,0
		c-0.4,0-0.6,0-0.6,0c0,0-0.1,0.2-0.1,0.4c0,0.2-0.1,0.3-0.2,0.3c-0.1,0-0.3,0-0.8,0c-0.4,0-0.5,0-0.5-0.1s0.3-0.8,0.8-2.3
		c0.6-1.6,0.9-2.4,0.9-2.6c0-0.1,0.1-0.1,0.1-0.1c0.1,0,0.2,0,0.3,0c0.1,0,0.2,0,0.3,0c0.1,0,0.2,0,0.3,0s0.2,0,0.3,0
		c0,0,0.1,0,0.1,0.1c0.1,0.2,0.5,1.1,1,2.6C63.9,66.6,64.2,67.4,64.2,67.5z M61.6,64.2c-0.1,0.1-0.1,0.3-0.2,0.7
		c-0.1,0.4-0.2,0.6-0.2,0.6c0,0,0.1,0.1,0.2,0.1c0.1,0,0.2,0,0.4,0c0.2,0,0.2,0,0.2-0.1c0,0,0,0,0-0.1c0-0.1-0.1-0.3-0.2-0.6
		C61.8,64.6,61.7,64.3,61.6,64.2z"/>
</g>
</svg>
