<?xml version="1.0" encoding="utf-8"?>
<!-- Generator: Adobe Illustrator 26.0.0, SVG Export Plug-In . SVG Version: 6.00 Build 0)  -->
<svg version="1.1" id="Capa_1" xmlns="http://www.w3.org/2000/svg" xmlns:xlink="http://www.w3.org/1999/xlink" x="0px" y="0px"
	 viewBox="0 0 218.5 218.6" style="enable-background:new 0 0 218.5 218.6;" xml:space="preserve">
<path d="M35.9,98.5C16.1,98.5,0,114.6,0,134.4s16.1,35.9,35.9,35.9c14.5,0,27-8.6,32.6-21l8.5,6.6c0,0,62.7,0.4,66.2-1.5
	c0,0-7.8-21.3,2.1-30.3c1-0.9,2.3-2,3.8-3.2c-1.7,4.1-2.6,8.6-2.6,13.4c0,19.9,16.1,35.9,35.9,35.9s35.9-16.1,35.9-35.9
	c0-19.9-16.1-35.9-35.9-35.9c-0.3,0-0.6,0-1,0c2.6-1.7,4.3-2.7,4.3-2.7l-2.7-2.4c0,0,7.8-1.8,6-5.7c-1.8-3.9-20.7-27.3-20.7-27.3
	s3.3-7.2-3.6-12.3l-3.3,7.2c0,0-8.5-5.8-11.8-4.7c-3.4,1.1-8.4,1.7-10,4.2l-1.6,1.5c0,0-0.4,2.6,2.1,6.4c0,0,25.9,8,27.2,13.8
	c0,0,1.8,3.7-6,4.6l-1.6,2l-4.2,0.2L148,66c0,0-7.2,1.9-10.9,4.8l0.6,2.9c0,0-30.2-20.6-58.6,9.9c0,0-21,6.1-35.7-12.6
	c0,0-0.2-6.1-35.7-4.9l2.5,2.6c0,0-2.5,0.2-3.5,1.8c-1,1.6,0.6,3.3,8.6,3.3c0,0,18.3,20.9,32.3,19.7l20,9.7l8.9,15.2
	c0,0,0,1.3,0.1,3.3c-2.1,0.4-4.4,0.9-6.8,1.4C65.3,108.8,51.8,98.5,35.9,98.5z M182.5,109.5c13.7,0,24.9,11.2,24.9,24.9
	s-11.2,24.9-24.9,24.9s-24.9-11.2-24.9-24.9S168.8,109.5,182.5,109.5z M35.9,159.4c-13.7,0-24.9-11.2-24.9-24.9s11.2-24.9,24.9-24.9
	c10.6,0,19.6,6.6,23.2,15.9c-13.2,2.8-26.3,5.6-26.3,5.6l1.7,9.3l25.9-1.1C58.2,150.7,48.1,159.4,35.9,159.4z M79.1,138.4
	c0.7,2.5,1.7,4.5,3,5.3l-11.5,0.5c0.5-1.8,0.9-3.6,1.1-5.5L79.1,138.4z"/>
</svg>
