<?xml version="1.0" encoding="utf-8"?>
<!-- Generator: Adobe Illustrator 27.6.1, SVG Export Plug-In . SVG Version: 6.00 Build 0)  -->
<svg version="1.1" id="Capa_1" xmlns="http://www.w3.org/2000/svg" xmlns:xlink="http://www.w3.org/1999/xlink" x="0px" y="0px"
	 viewBox="0 0 25 25" style="enable-background:new 0 0 25 25;" xml:space="preserve">
<style type="text/css">
	.st0{fill-rule:evenodd;clip-rule:evenodd;fill:#FFFFFF;}
</style>
<path class="st0" d="M22,0H3C1.3,0,0,1.3,0,3v19c0,1.6,1.3,3,3,3h19c1.6,0,3-1.3,3-3V3C25,1.3,23.7,0,22,0z M18,3.9
	c0-0.4,0.3-0.8,0.8-0.8h2.3c0.4,0,0.8,0.3,0.8,0.8v2.3c0,0.4-0.3,0.8-0.8,0.8h-2.3C18.3,7,18,6.7,18,6.3V3.9z M12.5,7.7
	c2.7,0,4.8,2.1,4.8,4.8c0,2.6-2.2,4.8-4.8,4.8c-2.7,0-4.8-2.1-4.8-4.8C7.7,9.9,9.9,7.7,12.5,7.7z M22.7,21.9c0,0.4-0.3,0.8-0.8,0.8
	H3.1c-0.4,0-0.8-0.4-0.8-0.8V10.2h3.1c-0.4,0.6-0.5,1.7-0.5,2.4c0,4.2,3.4,7.6,7.6,7.6s7.6-3.4,7.6-7.6c0-0.7-0.1-1.8-0.6-2.4h3.1
	v11.7H22.7z"/>
</svg>
