<?xml version="1.0" encoding="utf-8"?>
<!-- Generator: Adobe Illustrator 26.0.0, SVG Export Plug-In . SVG Version: 6.00 Build 0)  -->
<svg version="1.1" id="Capa_1" xmlns="http://www.w3.org/2000/svg" xmlns:xlink="http://www.w3.org/1999/xlink" x="0px" y="0px"
	 viewBox="0 0 160 160" style="enable-background:new 0 0 160 160;" xml:space="preserve">
<style type="text/css">
	.st0{fill:#222831;}
</style>
<path class="st0" d="M80,82.5c-7.5,0-14.8-2.2-21.1-6.2c-6.2-4-11.1-9.8-14-16.5c-2.9-6.7-3.6-14.1-2.2-21.3
	c1.5-7.1,5.1-13.7,10.4-18.9c5.3-5.2,12.1-8.7,19.4-10.1c7.4-1.4,15-0.7,21.9,2.1c6.9,2.8,12.8,7.5,17,13.6
	c4.2,6.1,6.4,13.2,6.4,20.5c0,9.8-4,19.1-11.1,26C99.7,78.6,90.1,82.5,80,82.5z M80,23.6c-4.5,0-8.9,1.3-12.6,3.7
	c-3.7,2.4-6.7,5.9-8.4,9.9c-1.7,4-2.2,8.5-1.3,12.8c0.9,4.3,3,8.2,6.2,11.3c3.2,3.1,7.2,5.2,11.6,6c4.4,0.9,9,0.4,13.1-1.3
	c4.2-1.7,7.7-4.5,10.2-8.1s3.8-7.9,3.8-12.3c0-5.9-2.4-11.5-6.7-15.6S86,23.6,80,23.6z M150.7,151.3c-2,0-3.9-0.8-5.3-2.2
	c-1.4-1.4-2.2-3.2-2.2-5.2c0-19.2-10.7-31.9-63.2-31.9c-52.5,0-63.2,12.8-63.2,31.9c0,2-0.8,3.8-2.2,5.2c-1.4,1.4-3.3,2.2-5.4,2.2
	c-2,0-3.9-0.8-5.4-2.2c-1.4-1.4-2.2-3.3-2.2-5.2c0-46.7,54.9-46.7,78.3-46.7s78.3,0,78.3,46.7c0,1.9-0.8,3.8-2.2,5.2
	C154.7,150.4,152.7,151.2,150.7,151.3z"/>
</svg>
