<?xml version="1.0" encoding="utf-8"?>
<!-- Generator: Adobe Illustrator 27.6.1, SVG Export Plug-In . SVG Version: 6.00 Build 0)  -->
<svg version="1.1" id="Capa_1" xmlns="http://www.w3.org/2000/svg" xmlns:xlink="http://www.w3.org/1999/xlink" x="0px" y="0px"
	 viewBox="0 0 50 50" style="enable-background:new 0 0 50 50;" xml:space="preserve">
<style type="text/css">
	.st0{fill:#222831;}
</style>
<path class="st0" d="M47.3,42L36.6,31.2c-0.7-0.7-0.9-1.9-0.4-2.8c1.9-3.5,2.6-7.6,2-11.6c-0.7-4.6-3.1-8.7-6.7-11.6
	S23.3,0.8,18.7,1s-9,2.2-12.2,5.4S1.3,14.1,1,18.7s1.3,9.2,4.2,12.7s7.1,6,11.6,6.7c4,0.6,8.1-0.1,11.6-2c0.9-0.5,2.1-0.3,2.8,0.4
	c2.5,2.5,8,8,10.7,10.7c0.9,0.9,2.4,0.9,3.4,0l1.9-1.9C48.2,44.4,48.2,42.9,47.3,42z M6.3,19.7c0-7.4,6-13.3,13.3-13.3
	c7.4,0,13.3,6,13.3,13.3C33,27,27,33,19.7,33C12.3,33,6.3,27,6.3,19.7z"/>
</svg>
