<?xml version="1.0" encoding="utf-8"?>
<!-- Generator: Adobe Illustrator 27.6.1, SVG Export Plug-In . SVG Version: 6.00 Build 0)  -->
<svg version="1.1" id="Capa_1" xmlns="http://www.w3.org/2000/svg" xmlns:xlink="http://www.w3.org/1999/xlink" x="0px" y="0px"
	 viewBox="0 0 50 50" style="enable-background:new 0 0 50 50;" xml:space="preserve">
<style type="text/css">
	.st0{fill:#222831;}
</style>
<path class="st0" d="M39.4,39.4c1.3,0,2.5,0.5,3.4,1.4c0.9,0.9,1.4,2.1,1.4,3.4c0,1.3-0.5,2.5-1.4,3.4c-0.9,0.9-2.1,1.4-3.4,1.4
	c-1.3,0-2.5-0.5-3.4-1.4c-0.9-0.9-1.4-2.1-1.4-3.4C34.6,41.5,36.7,39.4,39.4,39.4z M3,1h4.6c0.8,0,1.5,0.4,1.8,1.1l1.2,2.5
	c0.3,0.7,1,1.1,1.8,1.1h34.2c0.6,0,1.2,0.3,1.7,0.7C48.7,7,49,7.6,49,8.2c0,0.4-0.1,0.8-0.3,1.2l-8.6,15.5c-0.8,1.5-2.4,2.5-4.2,2.5
	H19.2c-0.7,0-1.4,0.4-1.7,1l-1.6,2.9l-0.1,0.3c0,0.2,0.1,0.3,0.2,0.4c0.1,0.1,0.3,0.2,0.4,0.2h25.8c1.1,0,2,0.9,2,2V35
	c0,1.1-0.9,2-2,2H15.4c-1.3,0-2.5-0.5-3.4-1.4c-0.9-0.9-1.4-2.1-1.4-3.4c0-0.8,0.2-1.6,0.6-2.3l2.8-5c0.3-0.6,0.3-1.2,0.1-1.8
	L6.3,6.9C6,6.2,5.3,5.8,4.6,5.8H3c-1.1,0-2-0.9-2-2V3C1,1.9,1.9,1,3,1z M15.4,39.4c1.3,0,2.5,0.5,3.4,1.4c0.9,0.9,1.4,2.1,1.4,3.4
	c0,1.3-0.5,2.5-1.4,3.4c-0.9,0.9-2.1,1.4-3.4,1.4s-2.5-0.5-3.4-1.4c-0.9-0.9-1.4-2.1-1.4-3.4C10.6,41.5,12.7,39.4,15.4,39.4z
	 M37.6,21.6l4.5-8.1c0.7-1.3-0.2-2.9-1.7-2.9H16.4c-1.4,0-2.4,1.5-1.8,2.8l3.8,8.1c0.3,0.7,1,1.1,1.8,1.1h15.6
	C36.6,22.6,37.2,22.2,37.6,21.6z"/>
</svg>
